Jost-200-Thin.ufo
<glyph name="exclam" format="1">
  <advance width="273"/>
  <unicode hex="0021"/>
  <outline>
    <contour>
      <point x="117" y="700" type="line"/>
      <point x="157" y="700" type="line"/>
      <point x="148" y="200" type="line"/>
      <point x="126" y="200" type="line"/>
    </contour>
    <contour>
      <point x="112" y="13" type="curve" smooth="yes"/>
      <point x="112" y="27"/>
      <point x="124" y="37"/>
      <point x="137" y="37" type="curve" smooth="yes"/>
      <point x="150" y="37"/>
      <point x="161" y="27"/>
      <point x="161" y="13" type="curve" smooth="yes"/>
      <point x="161" y="-1"/>
      <point x="150" y="-12"/>
      <point x="137" y="-12" type="curve" smooth="yes"/>
      <point x="124" y="-12"/>
      <point x="112" y="-1"/>
    </contour>
  </outline>
</glyph>
<glyph name="quotedbl" format="1">
  <advance width="421"/>
  <unicode hex="0022"/>
  <outline>
    <contour>
      <point x="137" y="700" type="line"/>
      <point x="175" y="700" type="line"/>
      <point x="108" y="414" type="line"/>
      <point x="87" y="414" type="line"/>
    </contour>
    <contour>
      <point x="317" y="700" type="line"/>
      <point x="355" y="700" type="line"/>
      <point x="288" y="414" type="line"/>
      <point x="267" y="414" type="line"/>
    </contour>
  </outline>
</glyph>
<glyph name="numbersign" format="1">
  <advance width="583"/>
  <unicode hex="0023"/>
  <outline>
    <contour>
      <point x="75" y="449" type="line"/>
      <point x="75" y="479" type="line"/>
      <point x="548" y="479" type="line"/>
      <point x="548" y="449" type="line"/>
      <point x="424" y="449" type="line" smooth="yes"/>
      <point x="416" y="449" type="line" smooth="yes"/>
      <point x="214" y="449" type="line" smooth="yes"/>
      <point x="207" y="449" type="line" smooth="yes"/>
    </contour>
    <contour>
      <point x="35" y="226" type="line"/>
      <point x="35" y="256" type="line"/>
      <point x="159" y="256" type="line" smooth="yes"/>
      <point x="168" y="256" type="line" smooth="yes"/>
      <point x="370" y="256" type="line" smooth="yes"/>
      <point x="381" y="256" type="line" smooth="yes"/>
      <point x="508" y="256" type="line"/>
      <point x="508" y="226" type="line"/>
    </contour>
    <contour>
      <point x="465" y="700" type="line"/>
      <point x="498" y="700" type="line"/>
      <point x="328" y="0" type="line"/>
      <point x="295" y="0" type="line"/>
      <point x="352" y="238" type="line" smooth="yes"/>
      <point x="355" y="246" type="line" smooth="yes"/>
      <point x="406" y="459" type="line" smooth="yes"/>
      <point x="408" y="468" type="line" smooth="yes"/>
    </contour>
    <contour>
      <point x="255" y="700" type="line"/>
      <point x="288" y="700" type="line"/>
      <point x="232" y="469" type="line" smooth="yes"/>
      <point x="231" y="461" type="line" smooth="yes"/>
      <point x="177" y="244" type="line" smooth="yes"/>
      <point x="176" y="237" type="line" smooth="yes"/>
      <point x="118" y="0" type="line"/>
      <point x="85" y="0" type="line"/>
    </contour>
  </outline>
</glyph>
<glyph name="dollar" format="1">
  <advance width="580"/>
  <unicode hex="0024"/>
  <outline>
    <contour>
      <point x="252" y="818" type="line"/>
      <point x="285" y="818" type="line"/>
      <point x="285" y="689" type="line"/>
      <point x="252" y="689" type="line"/>
    </contour>
    <contour>
      <point x="253" y="16" type="line"/>
      <point x="286" y="16" type="line"/>
      <point x="286" y="-112" type="line"/>
      <point x="253" y="-112" type="line"/>
    </contour>
    <contour>
      <point x="433" y="536" type="line"/>
      <point x="410" y="600"/>
      <point x="364" y="672"/>
      <point x="268" y="672" type="curve" smooth="yes"/>
      <point x="182" y="672"/>
      <point x="123" y="621"/>
      <point x="123" y="544" type="curve" smooth="yes"/>
      <point x="123" y="452"/>
      <point x="213" y="409"/>
      <point x="298" y="378" type="curve" smooth="yes"/>
      <point x="378" y="349"/>
      <point x="470" y="295"/>
      <point x="470" y="180" type="curve" smooth="yes"/>
      <point x="470" y="74"/>
      <point x="412" y="-9"/>
      <point x="273" y="-9" type="curve" smooth="yes"/>
      <point x="152" y="-9"/>
      <point x="79" y="85"/>
      <point x="45" y="189" type="curve"/>
      <point x="78" y="207" type="line"/>
      <point x="111" y="112"/>
      <point x="166" y="27"/>
      <point x="275" y="27" type="curve" smooth="yes"/>
      <point x="387" y="27"/>
      <point x="431" y="90"/>
      <point x="431" y="178" type="curve" smooth="yes"/>
      <point x="431" y="276"/>
      <point x="344" y="322"/>
      <point x="266" y="351" type="curve" smooth="yes"/>
      <point x="190" y="379"/>
      <point x="84" y="431"/>
      <point x="84" y="546" type="curve" smooth="yes"/>
      <point x="84" y="642"/>
      <point x="166" y="709"/>
      <point x="267" y="709" type="curve" smooth="yes"/>
      <point x="380" y="709"/>
      <point x="442" y="625"/>
      <point x="464" y="554" type="curve"/>
    </contour>
  </outline>
</glyph>
<glyph name="percent" format="1">
  <advance width="719"/>
  <unicode hex="0025"/>
  <outline>
    <contour>
      <point x="35" y="556" type="curve" smooth="yes"/>
      <point x="35" y="642"/>
      <point x="95" y="710"/>
      <point x="187" y="710" type="curve" smooth="yes"/>
      <point x="279" y="710"/>
      <point x="338" y="642"/>
      <point x="338" y="556" type="curve" smooth="yes"/>
      <point x="338" y="470"/>
      <point x="279" y="403"/>
      <point x="187" y="403" type="curve" smooth="yes"/>
      <point x="95" y="403"/>
      <point x="35" y="470"/>
    </contour>
    <contour>
      <point x="67" y="556" type="curve" smooth="yes"/>
      <point x="67" y="489"/>
      <point x="113" y="432"/>
      <point x="187" y="432" type="curve" smooth="yes"/>
      <point x="261" y="432"/>
      <point x="306" y="489"/>
      <point x="306" y="556" type="curve" smooth="yes"/>
      <point x="306" y="623"/>
      <point x="261" y="680"/>
      <point x="187" y="680" type="curve" smooth="yes"/>
      <point x="113" y="680"/>
      <point x="67" y="623"/>
    </contour>
    <contour>
      <point x="381" y="144" type="curve" smooth="yes"/>
      <point x="381" y="230"/>
      <point x="440" y="297"/>
      <point x="532" y="297" type="curve" smooth="yes"/>
      <point x="624" y="297"/>
      <point x="684" y="230"/>
      <point x="684" y="144" type="curve" smooth="yes"/>
      <point x="684" y="58"/>
      <point x="624" y="-10"/>
      <point x="532" y="-10" type="curve" smooth="yes"/>
      <point x="440" y="-10"/>
      <point x="381" y="58"/>
    </contour>
    <contour>
      <point x="413" y="144" type="curve" smooth="yes"/>
      <point x="413" y="77"/>
      <point x="458" y="19"/>
      <point x="532" y="19" type="curve" smooth="yes"/>
      <point x="606" y="19"/>
      <point x="652" y="77"/>
      <point x="652" y="144" type="curve" smooth="yes"/>
      <point x="652" y="211"/>
      <point x="606" y="267"/>
      <point x="532" y="267" type="curve" smooth="yes"/>
      <point x="458" y="267"/>
      <point x="413" y="211"/>
    </contour>
    <contour>
      <point x="569" y="700" type="line"/>
      <point x="604" y="700" type="line"/>
      <point x="150" y="0" type="line"/>
      <point x="115" y="0" type="line"/>
    </contour>
  </outline>
</glyph>
<glyph name="ampersand" format="1">
  <advance width="675"/>
  <unicode hex="0026"/>
  <outline>
    <contour>
      <point x="195" y="414" type="line" smooth="yes"/>
      <point x="162" y="452"/>
      <point x="117" y="496"/>
      <point x="117" y="570" type="curve" smooth="yes"/>
      <point x="117" y="650"/>
      <point x="174" y="711"/>
      <point x="274" y="711" type="curve" smooth="yes"/>
      <point x="372" y="711"/>
      <point x="421" y="638"/>
      <point x="421" y="568" type="curve" smooth="yes"/>
      <point x="421" y="501"/>
      <point x="368" y="447"/>
      <point x="275" y="391" type="curve" smooth="yes"/>
      <point x="203" y="347"/>
      <point x="72" y="306"/>
      <point x="72" y="178" type="curve" smooth="yes"/>
      <point x="72" y="76"/>
      <point x="151" y="19"/>
      <point x="252" y="19" type="curve" smooth="yes"/>
      <point x="410" y="19"/>
      <point x="503" y="178"/>
      <point x="603" y="316" type="curve"/>
      <point x="627" y="301" type="line"/>
      <point x="523" y="161"/>
      <point x="430" y="-10"/>
      <point x="251" y="-10" type="curve" smooth="yes"/>
      <point x="136" y="-10"/>
      <point x="40" y="57"/>
      <point x="40" y="176" type="curve" smooth="yes"/>
      <point x="40" y="323"/>
      <point x="187" y="371"/>
      <point x="254" y="410" type="curve" smooth="yes"/>
      <point x="339" y="460"/>
      <point x="390" y="512"/>
      <point x="390" y="568" type="curve" smooth="yes"/>
      <point x="390" y="622"/>
      <point x="354" y="683"/>
      <point x="274" y="683" type="curve" smooth="yes"/>
      <point x="191" y="683"/>
      <point x="149" y="632"/>
      <point x="149" y="570" type="curve" smooth="yes"/>
      <point x="149" y="507"/>
      <point x="185" y="470"/>
      <point x="218" y="432" type="curve" smooth="yes"/>
      <point x="596" y="0" type="line"/>
      <point x="558" y="0" type="line"/>
    </contour>
  </outline>
</glyph>
<glyph name="quotesingle" format="1">
  <advance width="241"/>
  <unicode hex="0027"/>
  <outline>
    <contour>
      <point x="137" y="700" type="line"/>
      <point x="175" y="700" type="line"/>
      <point x="108" y="414" type="line"/>
      <point x="87" y="414" type="line"/>
    </contour>
  </outline>
</glyph>
<glyph name="parenleft" format="1">
  <advance width="265"/>
  <unicode hex="0028"/>
  <outline>
    <contour>
      <point x="205" y="780" type="curve"/>
      <point x="235" y="780" type="line"/>
      <point x="162" y="624"/>
      <point x="129" y="460"/>
      <point x="129" y="290" type="curve" smooth="yes"/>
      <point x="129" y="120"/>
      <point x="162" y="-44"/>
      <point x="235" y="-200" type="curve"/>
      <point x="205" y="-200" type="line"/>
      <point x="125" y="-50"/>
      <point x="90" y="120"/>
      <point x="90" y="290" type="curve" smooth="yes"/>
      <point x="90" y="460"/>
      <point x="125" y="630"/>
    </contour>
  </outline>
</glyph>
<glyph name="parenright" format="1">
  <advance width="265"/>
  <unicode hex="0029"/>
  <outline>
    <contour>
      <point x="60" y="-200" type="curve"/>
      <point x="30" y="-200" type="line"/>
      <point x="103" y="-44"/>
      <point x="136" y="120"/>
      <point x="136" y="290" type="curve" smooth="yes"/>
      <point x="136" y="460"/>
      <point x="103" y="624"/>
      <point x="30" y="780" type="curve"/>
      <point x="60" y="780" type="line"/>
      <point x="140" y="630"/>
      <point x="175" y="460"/>
      <point x="175" y="290" type="curve" smooth="yes"/>
      <point x="175" y="120"/>
      <point x="140" y="-50"/>
    </contour>
  </outline>
</glyph>
<glyph name="asterisk" format="1">
  <advance width="592"/>
  <unicode hex="002A"/>
  <outline>
    <contour>
      <point x="465" y="590" type="line"/>
      <point x="474" y="558" type="line"/>
      <point x="299" y="507" type="line"/>
      <point x="292" y="529" type="line"/>
    </contour>
    <contour>
      <point x="417" y="380" type="line"/>
      <point x="390" y="361" type="line"/>
      <point x="287" y="511" type="line"/>
      <point x="305" y="525" type="line"/>
    </contour>
    <contour>
      <point x="202" y="361" type="line"/>
      <point x="175" y="380" type="line"/>
      <point x="287" y="525" type="line"/>
      <point x="305" y="511" type="line"/>
    </contour>
    <contour>
      <point x="118" y="558" type="line"/>
      <point x="127" y="590" type="line"/>
      <point x="300" y="529" type="line"/>
      <point x="293" y="507" type="line"/>
    </contour>
    <contour>
      <point x="280" y="700" type="line"/>
      <point x="312" y="700" type="line"/>
      <point x="307" y="518" type="line"/>
      <point x="285" y="518" type="line"/>
    </contour>
  </outline>
</glyph>
<glyph name="period" format="1">
  <advance width="274"/>
  <unicode hex="002E"/>
  <outline>
    <contour>
      <point x="111" y="15" type="curve" smooth="yes"/>
      <point x="111" y="30"/>
      <point x="123" y="42"/>
      <point x="137" y="42" type="curve" smooth="yes"/>
      <point x="151" y="42"/>
      <point x="164" y="30"/>
      <point x="164" y="15" type="curve" smooth="yes"/>
      <point x="164" y="0"/>
      <point x="151" y="-12"/>
      <point x="137" y="-12" type="curve" smooth="yes"/>
      <point x="123" y="-12"/>
      <point x="111" y="0"/>
    </contour>
  </outline>
</glyph>
<glyph name="slash" format="1">
  <advance width="489"/>
  <unicode hex="002F"/>
  <outline>
    <contour>
      <point x="438" y="700" type="line"/>
      <point x="474" y="700" type="line"/>
      <point x="52" y="-150" type="line"/>
      <point x="15" y="-150" type="line"/>
    </contour>
  </outline>
</glyph>
<glyph name="zero" format="1">
  <advance width="568"/>
  <unicode hex="0030"/>
  <outline>
    <contour>
      <point x="87" y="350" type="curve" smooth="yes"/>
      <point x="87" y="171"/>
      <point x="160" y="25"/>
      <point x="284" y="25" type="curve" smooth="yes"/>
      <point x="408" y="25"/>
      <point x="481" y="171"/>
      <point x="481" y="350" type="curve" smooth="yes"/>
      <point x="481" y="529"/>
      <point x="408" y="675"/>
      <point x="284" y="675" type="curve" smooth="yes"/>
      <point x="160" y="675"/>
      <point x="87" y="529"/>
    </contour>
    <contour>
      <point x="50" y="350" type="curve" smooth="yes"/>
      <point x="50" y="553"/>
      <point x="140" y="710"/>
      <point x="284" y="710" type="curve" smooth="yes"/>
      <point x="428" y="710"/>
      <point x="518" y="553"/>
      <point x="518" y="350" type="curve" smooth="yes"/>
      <point x="518" y="147"/>
      <point x="428" y="-10"/>
      <point x="284" y="-10" type="curve" smooth="yes"/>
      <point x="140" y="-10"/>
      <point x="50" y="147"/>
    </contour>
  </outline>
</glyph>
<glyph name="two" format="1">
  <advance width="533"/>
  <unicode hex="0032"/>
  <outline>
    <contour>
      <point x="23" y="0" type="line"/>
      <point x="347" y="341" type="line" smooth="yes"/>
      <point x="395" y="391"/>
      <point x="434" y="440"/>
      <point x="434" y="514" type="curve" smooth="yes"/>
      <point x="434" y="586"/>
      <point x="389" y="676"/>
      <point x="275" y="676" type="curve" smooth="yes"/>
      <point x="166" y="676"/>
      <point x="94" y="588"/>
      <point x="94" y="460" type="curve"/>
      <point x="57" y="460" type="line"/>
      <point x="57" y="609"/>
      <point x="143" y="711"/>
      <point x="275" y="711" type="curve" smooth="yes"/>
      <point x="416" y="711"/>
      <point x="473" y="600"/>
      <point x="473" y="512" type="curve" smooth="yes"/>
      <point x="473" y="434"/>
      <point x="429" y="374"/>
      <point x="377" y="320" type="curve" smooth="yes"/>
      <point x="102" y="35" type="line"/>
      <point x="492" y="35" type="line"/>
      <point x="492" y="0" type="line"/>
    </contour>
  </outline>
</glyph>
<glyph name="four" format="1">
  <advance width="563"/>
  <unicode hex="0034"/>
  <outline>
    <contour>
      <point x="23" y="140" type="line"/>
      <point x="55" y="173" type="line"/>
      <point x="399" y="173" type="line" smooth="yes"/>
      <point x="407" y="173" type="line" smooth="yes"/>
      <point x="531" y="173" type="line"/>
      <point x="531" y="140" type="line"/>
    </contour>
    <contour>
      <point x="63" y="140" type="line"/>
      <point x="23" y="140" type="line"/>
      <point x="408" y="700" type="line"/>
      <point x="421" y="700" type="line"/>
      <point x="421" y="0" type="line"/>
      <point x="384" y="0" type="line"/>
      <point x="384" y="154" type="line" smooth="yes"/>
      <point x="384" y="161" type="line" smooth="yes"/>
      <point x="384" y="610" type="line"/>
    </contour>
  </outline>
</glyph>
<glyph name="five" format="1">
  <advance width="559"/>
  <unicode hex="0035"/>
  <outline>
    <contour>
      <point x="500" y="230" type="curve" smooth="yes"/>
      <point x="500" y="71"/>
      <point x="396" y="-10"/>
      <point x="268" y="-10" type="curve" smooth="yes"/>
      <point x="153" y="-10"/>
      <point x="87" y="50"/>
      <point x="48" y="137" type="curve"/>
      <point x="75" y="155" type="line"/>
      <point x="109" y="75"/>
      <point x="171" y="21"/>
      <point x="268" y="21" type="curve" smooth="yes"/>
      <point x="382" y="21"/>
      <point x="466" y="96"/>
      <point x="466" y="230" type="curve" smooth="yes"/>
      <point x="466" y="344"/>
      <point x="387" y="422"/>
      <point x="287" y="422" type="curve" smooth="yes"/>
      <point x="206" y="422"/>
      <point x="147" y="391"/>
      <point x="90" y="327" type="curve"/>
      <point x="182" y="700" type="line"/>
      <point x="512" y="700" type="line"/>
      <point x="512" y="670" type="line"/>
      <point x="206" y="670" type="line"/>
      <point x="135" y="383" type="line"/>
      <point x="166" y="420"/>
      <point x="225" y="452"/>
      <point x="298" y="452" type="curve" smooth="yes"/>
      <point x="411" y="452"/>
      <point x="500" y="362"/>
    </contour>
  </outline>
</glyph>
<glyph name="six" format="1">
  <advance width="548"/>
  <unicode hex="0036"/>
  <outline>
    <contour>
      <point x="82" y="223" type="curve" smooth="yes"/>
      <point x="82" y="106"/>
      <point x="160" y="20"/>
      <point x="274" y="20" type="curve" smooth="yes"/>
      <point x="388" y="20"/>
      <point x="466" y="106"/>
      <point x="466" y="223" type="curve" smooth="yes"/>
      <point x="466" y="333"/>
      <point x="382" y="418"/>
      <point x="282" y="418" type="curve" smooth="yes"/>
      <point x="157" y="418"/>
      <point x="82" y="326"/>
    </contour>
    <contour>
      <point x="330" y="700" type="line"/>
      <point x="370" y="700" type="line"/>
      <point x="136" y="372" type="line"/>
      <point x="134" y="374" type="line"/>
      <point x="172" y="420"/>
      <point x="225" y="443"/>
      <point x="291" y="443" type="curve" smooth="yes"/>
      <point x="405" y="443"/>
      <point x="498" y="345"/>
      <point x="498" y="223" type="curve" smooth="yes"/>
      <point x="498" y="86"/>
      <point x="409" y="-10"/>
      <point x="274" y="-10" type="curve" smooth="yes"/>
      <point x="139" y="-10"/>
      <point x="50" y="86"/>
      <point x="50" y="223" type="curve" smooth="yes"/>
      <point x="50" y="280"/>
      <point x="75" y="341"/>
      <point x="102" y="378" type="curve" smooth="yes"/>
    </contour>
  </outline>
</glyph>
<glyph name="seven" format="1">
  <advance width="518"/>
  <unicode hex="0037"/>
  <outline>
    <contour>
      <point x="34" y="669" type="line"/>
      <point x="34" y="700" type="line"/>
      <point x="510" y="700" type="line"/>
      <point x="150" y="0" type="line"/>
      <point x="116" y="0" type="line"/>
      <point x="460" y="669" type="line"/>
    </contour>
  </outline>
</glyph>
<glyph name="eight" format="1">
  <advance width="526"/>
  <unicode hex="0038"/>
  <outline>
    <contour>
      <point x="83" y="537" type="curve" smooth="yes"/>
      <point x="83" y="630"/>
      <point x="159" y="710"/>
      <point x="263" y="710" type="curve" smooth="yes"/>
      <point x="367" y="710"/>
      <point x="444" y="630"/>
      <point x="444" y="537" type="curve" smooth="yes"/>
      <point x="444" y="434"/>
      <point x="359" y="363"/>
      <point x="263" y="363" type="curve" smooth="yes"/>
      <point x="167" y="363"/>
      <point x="83" y="434"/>
    </contour>
    <contour>
      <point x="119" y="534" type="curve" smooth="yes"/>
      <point x="119" y="449"/>
      <point x="197" y="388"/>
      <point x="263" y="388" type="curve" smooth="yes"/>
      <point x="329" y="388"/>
      <point x="408" y="449"/>
      <point x="408" y="534" type="curve" smooth="yes"/>
      <point x="408" y="613"/>
      <point x="347" y="677"/>
      <point x="263" y="677" type="curve" smooth="yes"/>
      <point x="179" y="677"/>
      <point x="119" y="613"/>
    </contour>
    <contour>
      <point x="61" y="187" type="curve" smooth="yes"/>
      <point x="61" y="303"/>
      <point x="158" y="379"/>
      <point x="263" y="379" type="curve" smooth="yes"/>
      <point x="368" y="379"/>
      <point x="465" y="303"/>
      <point x="465" y="187" type="curve" smooth="yes"/>
      <point x="465" y="78"/>
      <point x="388" y="-10"/>
      <point x="263" y="-10" type="curve" smooth="yes"/>
      <point x="138" y="-10"/>
      <point x="61" y="78"/>
    </contour>
    <contour>
      <point x="97" y="190" type="curve" smooth="yes"/>
      <point x="97" y="91"/>
      <point x="164" y="23"/>
      <point x="263" y="23" type="curve" smooth="yes"/>
      <point x="362" y="23"/>
      <point x="430" y="91"/>
      <point x="430" y="190" type="curve" smooth="yes"/>
      <point x="430" y="285"/>
      <point x="346" y="354"/>
      <point x="263" y="354" type="curve" smooth="yes"/>
      <point x="180" y="354"/>
      <point x="97" y="285"/>
    </contour>
  </outline>
</glyph>
<glyph name="nine" format="1">
  <advance width="548"/>
  <unicode hex="0039"/>
  <outline>
    <contour>
      <point x="467" y="477" type="curve" smooth="yes"/>
      <point x="467" y="594"/>
      <point x="388" y="680"/>
      <point x="274" y="680" type="curve" smooth="yes"/>
      <point x="160" y="680"/>
      <point x="81" y="594"/>
      <point x="81" y="477" type="curve" smooth="yes"/>
      <point x="81" y="367"/>
      <point x="166" y="283"/>
      <point x="266" y="283" type="curve" smooth="yes"/>
      <point x="391" y="283"/>
      <point x="467" y="374"/>
    </contour>
    <contour>
      <point x="218" y="0" type="line"/>
      <point x="178" y="0" type="line"/>
      <point x="413" y="328" type="line"/>
      <point x="414" y="327" type="line"/>
      <point x="376" y="281"/>
      <point x="323" y="257"/>
      <point x="257" y="257" type="curve" smooth="yes"/>
      <point x="143" y="257"/>
      <point x="50" y="355"/>
      <point x="50" y="477" type="curve" smooth="yes"/>
      <point x="50" y="614"/>
      <point x="139" y="710"/>
      <point x="274" y="710" type="curve" smooth="yes"/>
      <point x="409" y="710"/>
      <point x="498" y="614"/>
      <point x="498" y="477" type="curve" smooth="yes"/>
      <point x="498" y="420"/>
      <point x="473" y="359"/>
      <point x="446" y="322" type="curve" smooth="yes"/>
    </contour>
  </outline>
</glyph>
<glyph name="colon" format="1">
  <advance width="300"/>
  <unicode hex="003A"/>
  <outline>
    <contour>
      <point x="111" y="15" type="curve" smooth="yes"/>
      <point x="111" y="30"/>
      <point x="123" y="42"/>
      <point x="137" y="42" type="curve" smooth="yes"/>
      <point x="151" y="42"/>
      <point x="164" y="30"/>
      <point x="164" y="15" type="curve" smooth="yes"/>
      <point x="164" y="0"/>
      <point x="151" y="-12"/>
      <point x="137" y="-12" type="curve" smooth="yes"/>
      <point x="123" y="-12"/>
      <point x="111" y="0"/>
    </contour>
    <contour>
      <point x="111" y="375" type="curve" smooth="yes"/>
      <point x="111" y="390"/>
      <point x="123" y="401"/>
      <point x="137" y="401" type="curve" smooth="yes"/>
      <point x="151" y="401"/>
      <point x="164" y="390"/>
      <point x="164" y="375" type="curve" smooth="yes"/>
      <point x="164" y="360"/>
      <point x="151" y="348"/>
      <point x="137" y="348" type="curve" smooth="yes"/>
      <point x="123" y="348"/>
      <point x="111" y="360"/>
    </contour>
  </outline>
</glyph>
<glyph name="semicolon" format="1">
  <advance width="295"/>
  <unicode hex="003B"/>
  <outline>
    <contour>
      <point x="141" y="375" type="curve" smooth="yes"/>
      <point x="141" y="390"/>
      <point x="153" y="401"/>
      <point x="167" y="401" type="curve" smooth="yes"/>
      <point x="181" y="401"/>
      <point x="194" y="390"/>
      <point x="194" y="375" type="curve" smooth="yes"/>
      <point x="194" y="360"/>
      <point x="181" y="348"/>
      <point x="167" y="348" type="curve" smooth="yes"/>
      <point x="153" y="348"/>
      <point x="141" y="360"/>
    </contour>
    <contour>
      <point x="165" y="100" type="line"/>
      <point x="201" y="86" type="line"/>
      <point x="91" y="-164" type="line"/>
      <point x="66" y="-155" type="line"/>
    </contour>
  </outline>
</glyph>
<glyph name="less" format="1">
  <advance width="640"/>
  <unicode hex="003C"/>
  <outline>
    <contour>
      <point x="123" y="259" type="line"/>
      <point x="575" y="69" type="line"/>
      <point x="575" y="34" type="line"/>
      <point x="65" y="247" type="line"/>
      <point x="65" y="267" type="line"/>
      <point x="575" y="481" type="line"/>
      <point x="575" y="446" type="line"/>
    </contour>
  </outline>
</glyph>
<glyph name="question" format="1">
  <advance width="546"/>
  <unicode hex="003F"/>
  <outline>
    <contour>
      <point x="441" y="514" type="curve" smooth="yes"/>
      <point x="441" y="610"/>
      <point x="377" y="680"/>
      <point x="266" y="680" type="curve" smooth="yes"/>
      <point x="182" y="680"/>
      <point x="129" y="639"/>
      <point x="89" y="576" type="curve"/>
      <point x="64" y="593" type="line"/>
      <point x="110" y="663"/>
      <point x="163" y="710"/>
      <point x="268" y="710" type="curve" smooth="yes"/>
      <point x="393" y="710"/>
      <point x="472" y="626"/>
      <point x="472" y="514" type="curve" smooth="yes"/>
      <point x="472" y="411"/>
      <point x="372" y="326"/>
      <point x="249" y="323" type="curve"/>
      <point x="248" y="170" type="line"/>
      <point x="224" y="170" type="line"/>
      <point x="215" y="345" type="line"/>
      <point x="223" y="345" type="line" smooth="yes"/>
      <point x="350" y="345"/>
      <point x="441" y="424"/>
    </contour>
    <contour>
      <point x="208" y="13" type="curve" smooth="yes"/>
      <point x="208" y="27"/>
      <point x="219" y="37"/>
      <point x="232" y="37" type="curve" smooth="yes"/>
      <point x="245" y="37"/>
      <point x="257" y="27"/>
      <point x="257" y="13" type="curve" smooth="yes"/>
      <point x="257" y="-1"/>
      <point x="245" y="-12"/>
      <point x="232" y="-12" type="curve" smooth="yes"/>
      <point x="219" y="-12"/>
      <point x="208" y="-1"/>
    </contour>
  </outline>
</glyph>
<glyph name="at" format="1">
  <advance width="770"/>
  <unicode hex="0040"/>
  <outline>
    <contour>
      <point x="231" y="320" type="curve" smooth="yes"/>
      <point x="231" y="243"/>
      <point x="275" y="191"/>
      <point x="341" y="191" type="curve" smooth="yes"/>
      <point x="415" y="191"/>
      <point x="482" y="264"/>
      <point x="482" y="370" type="curve" smooth="yes"/>
      <point x="482" y="440"/>
      <point x="442" y="500"/>
      <point x="378" y="500" type="curve" smooth="yes"/>
      <point x="306" y="500"/>
      <point x="231" y="438"/>
    </contour>
    <contour>
      <point x="200" y="319" type="curve" smooth="yes"/>
      <point x="200" y="458"/>
      <point x="293" y="529"/>
      <point x="378" y="529" type="curve" smooth="yes"/>
      <point x="456" y="529"/>
      <point x="500" y="454"/>
      <point x="500" y="368" type="curve" smooth="yes"/>
      <point x="500" y="250"/>
      <point x="424" y="162"/>
      <point x="336" y="162" type="curve" smooth="yes"/>
      <point x="262" y="162"/>
      <point x="200" y="220"/>
    </contour>
    <contour>
      <point x="35" y="320" type="curve" smooth="yes"/>
      <point x="35" y="539"/>
      <point x="191" y="709"/>
      <point x="415" y="709" type="curve" smooth="yes"/>
      <point x="622" y="709"/>
      <point x="735" y="549"/>
      <point x="735" y="390" type="curve" smooth="yes"/>
      <point x="735" y="224"/>
      <point x="631" y="151"/>
      <point x="556" y="151" type="curve" smooth="yes"/>
      <point x="495" y="151"/>
      <point x="464" y="204"/>
      <point x="477" y="284" type="curve"/>
      <point x="474" y="284" type="line"/>
      <point x="512" y="520" type="line"/>
      <point x="543" y="520" type="line"/>
      <point x="502" y="289" type="line" smooth="yes"/>
      <point x="501" y="282"/>
      <point x="500" y="264"/>
      <point x="500" y="256" type="curve" smooth="yes"/>
      <point x="500" y="225"/>
      <point x="508" y="179"/>
      <point x="559" y="179" type="curve" smooth="yes"/>
      <point x="619" y="179"/>
      <point x="706" y="250"/>
      <point x="706" y="390" type="curve" smooth="yes"/>
      <point x="706" y="537"/>
      <point x="604" y="681"/>
      <point x="415" y="681" type="curve" smooth="yes"/>
      <point x="205" y="681"/>
      <point x="64" y="526"/>
      <point x="64" y="320" type="curve" smooth="yes"/>
      <point x="64" y="136"/>
      <point x="173" y="19"/>
      <point x="358" y="19" type="curve" smooth="yes"/>
      <point x="455" y="19"/>
      <point x="530" y="42"/>
      <point x="588" y="75" type="curve"/>
      <point x="602" y="51" type="line"/>
      <point x="542" y="20"/>
      <point x="472" y="-9"/>
      <point x="358" y="-9" type="curve" smooth="yes"/>
      <point x="151" y="-9"/>
      <point x="35" y="121"/>
    </contour>
  </outline>
</glyph>
<glyph name="A" format="1">
  <advance width="621"/>
  <unicode hex="0041"/>
  <outline>
    <contour>
      <point x="134" y="250" type="line"/>
      <point x="145" y="285" type="line"/>
      <point x="477" y="285" type="line"/>
      <point x="488" y="250" type="line"/>
    </contour>
    <contour>
      <point x="311" y="635" type="line"/>
      <point x="164" y="272" type="line"/>
      <point x="160" y="263" type="line"/>
      <point x="53" y="0" type="line"/>
      <point x="11" y="0" type="line"/>
      <point x="311" y="722" type="line"/>
      <point x="610" y="0" type="line"/>
      <point x="568" y="0" type="line"/>
      <point x="463" y="261" type="line"/>
      <point x="460" y="270" type="line"/>
    </contour>
  </outline>
</glyph>
<glyph name="B" format="1">
  <advance width="513"/>
  <unicode hex="0042"/>
  <outline>
    <contour>
      <point x="112" y="381" type="line"/>
      <point x="112" y="401" type="line"/>
      <point x="218" y="401" type="line" smooth="yes"/>
      <point x="309" y="401"/>
      <point x="386" y="440"/>
      <point x="386" y="534" type="curve" smooth="yes"/>
      <point x="386" y="620"/>
      <point x="323" y="670"/>
      <point x="218" y="670" type="curve" smooth="yes"/>
      <point x="120" y="670" type="line"/>
      <point x="120" y="30" type="line"/>
      <point x="228" y="30" type="line" smooth="yes"/>
      <point x="346" y="30"/>
      <point x="424" y="85"/>
      <point x="424" y="203" type="curve" smooth="yes"/>
      <point x="424" y="310"/>
      <point x="325" y="372"/>
      <point x="228" y="372" type="curve" smooth="yes"/>
      <point x="112" y="372" type="line"/>
      <point x="112" y="391" type="line"/>
      <point x="235" y="391" type="line" smooth="yes"/>
      <point x="335" y="391"/>
      <point x="457" y="331"/>
      <point x="457" y="202" type="curve" smooth="yes"/>
      <point x="457" y="63"/>
      <point x="363" y="0"/>
      <point x="228" y="0" type="curve" smooth="yes"/>
      <point x="87" y="0" type="line"/>
      <point x="87" y="700" type="line"/>
      <point x="218" y="700" type="line" smooth="yes"/>
      <point x="343" y="700"/>
      <point x="419" y="641"/>
      <point x="419" y="536" type="curve" smooth="yes"/>
      <point x="419" y="430"/>
      <point x="336" y="381"/>
      <point x="225" y="381" type="curve" smooth="yes"/>
    </contour>
  </outline>
</glyph>
<glyph name="E" format="1">
  <advance width="524"/>
  <unicode hex="0045"/>
  <outline>
    <contour>
      <point x="105" y="0" type="line"/>
      <point x="105" y="35" type="line"/>
      <point x="448" y="35" type="line"/>
      <point x="448" y="0" type="line"/>
    </contour>
    <contour>
      <point x="105" y="665" type="line"/>
      <point x="105" y="700" type="line"/>
      <point x="448" y="700" type="line"/>
      <point x="448" y="665" type="line"/>
    </contour>
    <contour>
      <point x="105" y="368" type="line"/>
      <point x="105" y="404" type="line"/>
      <point x="428" y="404" type="line"/>
      <point x="428" y="368" type="line"/>
    </contour>
    <contour>
      <point x="86" y="700" type="line"/>
      <point x="124" y="700" type="line"/>
      <point x="124" y="0" type="line"/>
      <point x="86" y="0" type="line"/>
    </contour>
  </outline>
</glyph>
<glyph name="F" format="1">
  <advance width="468"/>
  <unicode hex="0046"/>
  <outline>
    <contour>
      <point x="105" y="664" type="line"/>
      <point x="105" y="700" type="line"/>
      <point x="408" y="700" type="line"/>
      <point x="408" y="664" type="line"/>
    </contour>
    <contour>
      <point x="105" y="361" type="line"/>
      <point x="105" y="396" type="line"/>
      <point x="398" y="396" type="line"/>
      <point x="398" y="361" type="line"/>
    </contour>
    <contour>
      <point x="86" y="700" type="line"/>
      <point x="124" y="700" type="line"/>
      <point x="124" y="0" type="line"/>
      <point x="86" y="0" type="line"/>
    </contour>
  </outline>
</glyph>
<glyph name="H" format="1">
  <advance width="671"/>
  <unicode hex="0048"/>
  <outline>
    <contour>
      <point x="105" y="364" type="line"/>
      <point x="105" y="399" type="line"/>
      <point x="572" y="399" type="line"/>
      <point x="572" y="364" type="line"/>
    </contour>
    <contour>
      <point x="547" y="700" type="line"/>
      <point x="585" y="700" type="line"/>
      <point x="585" y="0" type="line"/>
      <point x="547" y="0" type="line"/>
    </contour>
    <contour>
      <point x="86" y="700" type="line"/>
      <point x="124" y="700" type="line"/>
      <point x="124" y="0" type="line"/>
      <point x="86" y="0" type="line"/>
    </contour>
  </outline>
</glyph>
<glyph name="J" format="1">
  <advance width="212"/>
  <unicode hex="004A"/>
  <outline>
    <contour>
      <point x="-105" y="-139" type="line"/>
      <point x="-85" y="-162"/>
      <point x="-49" y="-184"/>
      <point x="-7" y="-184" type="curve" smooth="yes"/>
      <point x="61" y="-184"/>
      <point x="90" y="-148"/>
      <point x="90" y="-50" type="curve" smooth="yes"/>
      <point x="90" y="700" type="line"/>
      <point x="126" y="700" type="line"/>
      <point x="126" y="-60" type="line" smooth="yes"/>
      <point x="126" y="-169"/>
      <point x="86" y="-220"/>
      <point x="-8" y="-220" type="curve" smooth="yes"/>
      <point x="-61" y="-220"/>
      <point x="-111" y="-187"/>
      <point x="-126" y="-167" type="curve"/>
    </contour>
  </outline>
</glyph>
<glyph name="M" format="1">
  <advance width="822"/>
  <unicode hex="004D"/>
  <outline>
    <contour>
      <point x="667" y="614" type="line"/>
      <point x="691" y="722" type="line"/>
      <point x="770" y="0" type="line"/>
      <point x="733" y="0" type="line"/>
    </contour>
    <contour>
      <point x="131" y="722" type="line"/>
      <point x="156" y="614" type="line"/>
      <point x="90" y="0" type="line"/>
      <point x="53" y="0" type="line"/>
    </contour>
    <contour>
      <point x="691" y="722" type="line"/>
      <point x="687" y="635" type="line"/>
      <point x="411" y="91" type="line"/>
      <point x="136" y="635" type="line"/>
      <point x="131" y="722" type="line"/>
      <point x="411" y="166" type="line"/>
    </contour>
  </outline>
</glyph>
<glyph name="N" format="1">
  <advance width="704"/>
  <unicode hex="004E"/>
  <outline>
    <contour>
      <point x="69" y="652" type="line"/>
      <point x="61" y="722" type="line"/>
      <point x="622" y="45" type="line"/>
      <point x="631" y="-22" type="line"/>
    </contour>
    <contour>
      <point x="594" y="700" type="line"/>
      <point x="631" y="700" type="line"/>
      <point x="631" y="-22" type="line"/>
      <point x="594" y="38" type="line"/>
    </contour>
    <contour>
      <point x="61" y="722" type="line"/>
      <point x="98" y="659" type="line"/>
      <point x="98" y="0" type="line"/>
      <point x="61" y="0" type="line"/>
    </contour>
  </outline>
</glyph>
<glyph name="O" format="1">
  <advance width="779"/>
  <unicode hex="004F"/>
  <outline>
    <contour>
      <point x="86" y="350" type="curve" smooth="yes"/>
      <point x="86" y="165"/>
      <point x="213" y="29"/>
      <point x="390" y="29" type="curve" smooth="yes"/>
      <point x="567" y="29"/>
      <point x="694" y="165"/>
      <point x="694" y="350" type="curve" smooth="yes"/>
      <point x="694" y="535"/>
      <point x="567" y="671"/>
      <point x="390" y="671" type="curve" smooth="yes"/>
      <point x="213" y="671"/>
      <point x="86" y="535"/>
    </contour>
    <contour>
      <point x="46" y="350" type="curve" smooth="yes"/>
      <point x="46" y="557"/>
      <point x="192" y="709"/>
      <point x="390" y="709" type="curve" smooth="yes"/>
      <point x="588" y="709"/>
      <point x="734" y="557"/>
      <point x="734" y="350" type="curve" smooth="yes"/>
      <point x="734" y="143"/>
      <point x="588" y="-9"/>
      <point x="390" y="-9" type="curve" smooth="yes"/>
      <point x="192" y="-9"/>
      <point x="46" y="143"/>
    </contour>
  </outline>
</glyph>
<glyph name="P" format="1">
  <advance width="504"/>
  <unicode hex="0050"/>
  <outline>
    <contour>
      <point x="86" y="700" type="line"/>
      <point x="124" y="700" type="line"/>
      <point x="124" y="0" type="line"/>
      <point x="86" y="0" type="line"/>
    </contour>
    <contour>
      <point x="108" y="665" type="line"/>
      <point x="108" y="700" type="line"/>
      <point x="235" y="700" type="line" smooth="yes"/>
      <point x="364" y="700"/>
      <point x="458" y="624"/>
      <point x="458" y="495" type="curve" smooth="yes"/>
      <point x="458" y="366"/>
      <point x="364" y="289"/>
      <point x="235" y="289" type="curve" smooth="yes"/>
      <point x="108" y="289" type="line"/>
      <point x="108" y="324" type="line"/>
      <point x="235" y="324" type="line" smooth="yes"/>
      <point x="344" y="324"/>
      <point x="420" y="385"/>
      <point x="420" y="495" type="curve" smooth="yes"/>
      <point x="420" y="605"/>
      <point x="344" y="665"/>
      <point x="235" y="665" type="curve" smooth="yes"/>
    </contour>
  </outline>
</glyph>
<glyph name="Q" format="1">
  <advance width="777"/>
  <unicode hex="0051"/>
  <outline>
    <contour>
      <point x="86" y="350" type="curve" smooth="yes"/>
      <point x="86" y="165"/>
      <point x="213" y="29"/>
      <point x="390" y="29" type="curve" smooth="yes"/>
      <point x="567" y="29"/>
      <point x="694" y="165"/>
      <point x="694" y="350" type="curve" smooth="yes"/>
      <point x="694" y="535"/>
      <point x="567" y="671"/>
      <point x="390" y="671" type="curve" smooth="yes"/>
      <point x="213" y="671"/>
      <point x="86" y="535"/>
    </contour>
    <contour>
      <point x="46" y="350" type="curve" smooth="yes"/>
      <point x="46" y="557"/>
      <point x="192" y="709"/>
      <point x="390" y="709" type="curve" smooth="yes"/>
      <point x="588" y="709"/>
      <point x="734" y="557"/>
      <point x="734" y="350" type="curve" smooth="yes"/>
      <point x="734" y="143"/>
      <point x="588" y="-9"/>
      <point x="390" y="-9" type="curve" smooth="yes"/>
      <point x="192" y="-9"/>
      <point x="46" y="143"/>
    </contour>
    <contour>
      <point x="392" y="300" type="line"/>
      <point x="442" y="300" type="line"/>
      <point x="755" y="0" type="line"/>
      <point x="705" y="0" type="line"/>
    </contour>
  </outline>
</glyph>
<glyph name="R" format="1">
  <advance width="495"/>
  <unicode hex="0052"/>
  <outline>
    <contour>
      <point x="201" y="326" type="line"/>
      <point x="238" y="326" type="line"/>
      <point x="468" y="0" type="line"/>
      <point x="427" y="0" type="line"/>
    </contour>
    <contour>
      <point x="87" y="700" type="line"/>
      <point x="120" y="700" type="line"/>
      <point x="120" y="0" type="line"/>
      <point x="87" y="0" type="line"/>
    </contour>
    <contour>
      <point x="102" y="670" type="line"/>
      <point x="102" y="700" type="line"/>
      <point x="224" y="700" type="line" smooth="yes"/>
      <point x="359" y="700"/>
      <point x="461" y="631"/>
      <point x="461" y="502" type="curve" smooth="yes"/>
      <point x="461" y="373"/>
      <point x="359" y="304"/>
      <point x="224" y="304" type="curve" smooth="yes"/>
      <point x="102" y="304" type="line"/>
      <point x="102" y="334" type="line"/>
      <point x="224" y="334" type="line" smooth="yes"/>
      <point x="344" y="334"/>
      <point x="428" y="390"/>
      <point x="428" y="502" type="curve" smooth="yes"/>
      <point x="428" y="614"/>
      <point x="342" y="670"/>
      <point x="224" y="670" type="curve" smooth="yes"/>
    </contour>
  </outline>
</glyph>
<glyph name="V" format="1">
  <advance width="621"/>
  <unicode hex="0056"/>
  <outline>
    <contour>
      <point x="311" y="67" type="line"/>
      <point x="568" y="700" type="line"/>
      <point x="610" y="700" type="line"/>
      <point x="311" y="-22" type="line"/>
      <point x="11" y="700" type="line"/>
      <point x="54" y="700" type="line"/>
    </contour>
  </outline>
</glyph>
<glyph name="X" format="1">
  <advance width="519"/>
  <unicode hex="0058"/>
  <outline>
    <contour>
      <point x="443" y="700" type="line"/>
      <point x="488" y="700" type="line"/>
      <point x="282" y="367" type="line"/>
      <point x="503" y="0" type="line"/>
      <point x="458" y="0" type="line"/>
      <point x="262" y="333" type="line"/>
      <point x="62" y="0" type="line"/>
      <point x="16" y="0" type="line"/>
      <point x="243" y="367" type="line"/>
      <point x="41" y="700" type="line"/>
      <point x="87" y="700" type="line"/>
      <point x="263" y="400" type="line"/>
    </contour>
  </outline>
</glyph>
<glyph name="Y" format="1">
  <advance width="526"/>
  <unicode hex="0059"/>
  <outline>
    <contour>
      <point x="241" y="306" type="line"/>
      <point x="279" y="306" type="line"/>
      <point x="279" y="0" type="line"/>
      <point x="241" y="0" type="line"/>
    </contour>
    <contour>
      <point x="472" y="700" type="line"/>
      <point x="515" y="700" type="line"/>
      <point x="260" y="246" type="line"/>
      <point x="11" y="700" type="line"/>
      <point x="54" y="700" type="line"/>
      <point x="260" y="315" type="line"/>
    </contour>
  </outline>
</glyph>
<glyph name="bracketleft" format="1">
  <advance width="274"/>
  <unicode hex="005B"/>
  <outline>
    <contour>
      <point x="136" y="746" type="line"/>
      <point x="136" y="-186" type="line"/>
      <point x="254" y="-186" type="line"/>
      <point x="254" y="-220" type="line"/>
      <point x="100" y="-220" type="line"/>
      <point x="100" y="780" type="line"/>
      <point x="254" y="780" type="line"/>
      <point x="254" y="746" type="line"/>
    </contour>
  </outline>
</glyph>
<glyph name="bracketright" format="1">
  <advance width="274"/>
  <unicode hex="005D"/>
  <outline>
    <contour>
      <point x="139" y="-186" type="line"/>
      <point x="139" y="746" type="line"/>
      <point x="20" y="746" type="line"/>
      <point x="20" y="780" type="line"/>
      <point x="174" y="780" type="line"/>
      <point x="174" y="-220" type="line"/>
      <point x="20" y="-220" type="line"/>
      <point x="20" y="-186" type="line"/>
    </contour>
  </outline>
</glyph>
<glyph name="asciicircum" format="1">
  <advance width="510"/>
  <unicode hex="005E"/>
  <outline>
    <contour>
      <point x="255" y="667" type="line"/>
      <point x="103" y="460" type="line"/>
      <point x="65" y="460" type="line"/>
      <point x="248" y="710" type="line"/>
      <point x="262" y="710" type="line"/>
      <point x="445" y="460" type="line"/>
      <point x="407" y="460" type="line"/>
    </contour>
  </outline>
</glyph>
<glyph name="grave" format="1">
  <advance width="360"/>
  <unicode hex="0060"/>
  <outline>
    <contour>
      <point x="91" y="681" type="line"/>
      <point x="123" y="700" type="line"/>
      <point x="286" y="540" type="line"/>
      <point x="266" y="526" type="line"/>
    </contour>
  </outline>
</glyph>
<glyph name="b" format="1">
  <advance width="549"/>
  <unicode hex="0062"/>
  <outline>
    <contour>
      <point x="108" y="780" type="line"/>
      <point x="108" y="0" type="line"/>
      <point x="77" y="0" type="line"/>
      <point x="77" y="780" type="line"/>
    </contour>
    <contour>
      <point x="508" y="230" type="curve" smooth="yes"/>
      <point x="508" y="82"/>
      <point x="412" y="-10"/>
      <point x="290" y="-10" type="curve" smooth="yes"/>
      <point x="170" y="-10"/>
      <point x="94" y="92"/>
      <point x="94" y="230" type="curve" smooth="yes"/>
      <point x="94" y="368"/>
      <point x="170" y="470"/>
      <point x="290" y="470" type="curve" smooth="yes"/>
      <point x="412" y="470"/>
      <point x="508" y="378"/>
    </contour>
    <contour>
      <point x="476" y="230" type="curve" smooth="yes"/>
      <point x="476" y="360"/>
      <point x="391" y="440"/>
      <point x="285" y="440" type="curve" smooth="yes"/>
      <point x="187" y="440"/>
      <point x="108" y="343"/>
      <point x="108" y="230" type="curve" smooth="yes"/>
      <point x="108" y="117"/>
      <point x="187" y="20"/>
      <point x="285" y="20" type="curve" smooth="yes"/>
      <point x="391" y="20"/>
      <point x="476" y="100"/>
    </contour>
  </outline>
</glyph>
<glyph name="d" format="1">
  <advance width="549"/>
  <unicode hex="0064"/>
  <outline>
    <contour>
      <point x="442" y="780" type="line"/>
      <point x="472" y="780" type="line"/>
      <point x="472" y="0" type="line"/>
      <point x="442" y="0" type="line"/>
    </contour>
    <contour>
      <point x="42" y="230" type="curve" smooth="yes"/>
      <point x="42" y="378"/>
      <point x="138" y="470"/>
      <point x="260" y="470" type="curve" smooth="yes"/>
      <point x="380" y="470"/>
      <point x="456" y="368"/>
      <point x="456" y="230" type="curve" smooth="yes"/>
      <point x="456" y="92"/>
      <point x="380" y="-10"/>
      <point x="260" y="-10" type="curve" smooth="yes"/>
      <point x="138" y="-10"/>
      <point x="42" y="82"/>
    </contour>
    <contour>
      <point x="74" y="230" type="curve" smooth="yes"/>
      <point x="74" y="100"/>
      <point x="158" y="20"/>
      <point x="264" y="20" type="curve" smooth="yes"/>
      <point x="362" y="20"/>
      <point x="442" y="117"/>
      <point x="442" y="230" type="curve" smooth="yes"/>
      <point x="442" y="343"/>
      <point x="362" y="440"/>
      <point x="264" y="440" type="curve" smooth="yes"/>
      <point x="158" y="440"/>
      <point x="74" y="360"/>
    </contour>
  </outline>
</glyph>
<glyph name="e" format="1">
  <advance width="506"/>
  <unicode hex="0065"/>
  <outline>
    <contour>
      <point x="68" y="221" type="line"/>
      <point x="68" y="255" type="line"/>
      <point x="454" y="255" type="line"/>
      <point x="463" y="221" type="line"/>
    </contour>
    <contour>
      <point x="430" y="252" type="line" smooth="yes"/>
      <point x="430" y="359"/>
      <point x="353" y="438"/>
      <point x="257" y="438" type="curve" smooth="yes"/>
      <point x="162" y="438"/>
      <point x="78" y="365"/>
      <point x="78" y="242" type="curve"/>
      <point x="77" y="231" type="line"/>
      <point x="77" y="109"/>
      <point x="153" y="23"/>
      <point x="255" y="23" type="curve" smooth="yes"/>
      <point x="354" y="23"/>
      <point x="398" y="76"/>
      <point x="429" y="126" type="curve"/>
      <point x="457" y="107" type="line"/>
      <point x="421" y="51"/>
      <point x="374" y="-10"/>
      <point x="251" y="-10" type="curve" smooth="yes"/>
      <point x="132" y="-10"/>
      <point x="41" y="92"/>
      <point x="41" y="231" type="curve" smooth="yes"/>
      <point x="41" y="254"/>
      <point x="43" y="277"/>
      <point x="49" y="298" type="curve" smooth="yes"/>
      <point x="73" y="400"/>
      <point x="152" y="470"/>
      <point x="258" y="470" type="curve" smooth="yes"/>
      <point x="372" y="470"/>
      <point x="465" y="379"/>
      <point x="465" y="247" type="curve" smooth="yes"/>
      <point x="465" y="239"/>
      <point x="464" y="229"/>
      <point x="463" y="221" type="curve"/>
      <point x="430" y="230" type="line"/>
    </contour>
  </outline>
</glyph>
<glyph name="f" format="1">
  <advance width="280"/>
  <unicode hex="0066"/>
  <outline>
    <contour>
      <point x="46" y="460" type="line"/>
      <point x="254" y="460" type="line"/>
      <point x="254" y="427" type="line"/>
      <point x="46" y="427" type="line"/>
    </contour>
    <contour>
      <point x="274" y="716" type="line"/>
      <point x="259" y="737"/>
      <point x="236" y="753"/>
      <point x="207" y="753" type="curve" smooth="yes"/>
      <point x="145" y="753"/>
      <point x="127" y="699"/>
      <point x="127" y="639" type="curve" smooth="yes"/>
      <point x="127" y="0" type="line"/>
      <point x="91" y="0" type="line"/>
      <point x="91" y="643" type="line" smooth="yes"/>
      <point x="91" y="726"/>
      <point x="124" y="789"/>
      <point x="208" y="789" type="curve" smooth="yes"/>
      <point x="251" y="789"/>
      <point x="280" y="764"/>
      <point x="295" y="744" type="curve"/>
    </contour>
  </outline>
</glyph>
<glyph name="g" format="1">
  <advance width="551"/>
  <unicode hex="0067"/>
  <outline>
    <contour>
      <point x="54" y="-30" type="curve"/>
      <point x="90" y="-30" type="line"/>
      <point x="90" y="-128"/>
      <point x="158" y="-197"/>
      <point x="259" y="-197" type="curve" smooth="yes"/>
      <point x="353" y="-197"/>
      <point x="440" y="-131"/>
      <point x="440" y="10" type="curve" smooth="yes"/>
      <point x="440" y="460" type="line"/>
      <point x="475" y="460" type="line"/>
      <point x="475" y="10" type="line" smooth="yes"/>
      <point x="475" y="-149"/>
      <point x="374" y="-230"/>
      <point x="259" y="-230" type="curve" smooth="yes"/>
      <point x="137" y="-230"/>
      <point x="54" y="-149"/>
    </contour>
    <contour>
      <point x="41" y="230" type="curve" smooth="yes"/>
      <point x="41" y="378"/>
      <point x="138" y="470"/>
      <point x="260" y="470" type="curve" smooth="yes"/>
      <point x="380" y="470"/>
      <point x="456" y="360"/>
      <point x="456" y="230" type="curve" smooth="yes"/>
      <point x="456" y="100"/>
      <point x="380" y="-10"/>
      <point x="260" y="-10" type="curve" smooth="yes"/>
      <point x="138" y="-10"/>
      <point x="41" y="82"/>
    </contour>
    <contour>
      <point x="77" y="230" type="curve" smooth="yes"/>
      <point x="77" y="102"/>
      <point x="160" y="23"/>
      <point x="265" y="23" type="curve" smooth="yes"/>
      <point x="361" y="23"/>
      <point x="440" y="117"/>
      <point x="440" y="233" type="curve" smooth="yes"/>
      <point x="440" y="339"/>
      <point x="361" y="437"/>
      <point x="265" y="437" type="curve" smooth="yes"/>
      <point x="160" y="437"/>
      <point x="77" y="358"/>
    </contour>
  </outline>
</glyph>
<glyph name="h" format="1">
  <advance width="493"/>
  <unicode hex="0068"/>
  <outline>
    <contour>
      <point x="117" y="780" type="line"/>
      <point x="117" y="0" type="line"/>
      <point x="81" y="0" type="line"/>
      <point x="81" y="780" type="line"/>
    </contour>
    <contour>
      <point x="376" y="306" type="line" smooth="yes"/>
      <point x="376" y="385"/>
      <point x="343" y="437"/>
      <point x="262" y="437" type="curve" smooth="yes"/>
      <point x="179" y="437"/>
      <point x="117" y="365"/>
      <point x="117" y="280" type="curve"/>
      <point x="104" y="280" type="line"/>
      <point x="104" y="389"/>
      <point x="175" y="470"/>
      <point x="270" y="470" type="curve" smooth="yes"/>
      <point x="365" y="470"/>
      <point x="412" y="409"/>
      <point x="412" y="309" type="curve" smooth="yes"/>
      <point x="412" y="0" type="line"/>
      <point x="376" y="0" type="line"/>
    </contour>
  </outline>
</glyph>
<glyph name="k" format="1">
  <advance width="396"/>
  <unicode hex="006B"/>
  <outline>
    <contour>
      <point x="76" y="780" type="line"/>
      <point x="112" y="780" type="line"/>
      <point x="112" y="0" type="line"/>
      <point x="76" y="0" type="line"/>
    </contour>
    <contour>
      <point x="325" y="460" type="line"/>
      <point x="372" y="460" type="line"/>
      <point x="145" y="270" type="line"/>
      <point x="390" y="0" type="line"/>
      <point x="345" y="0" type="line"/>
      <point x="99" y="270" type="line"/>
    </contour>
  </outline>
</glyph>
<glyph name="m" format="1">
  <advance width="717"/>
  <unicode hex="006D"/>
  <outline>
    <contour>
      <point x="343" y="308" type="line" smooth="yes"/>
      <point x="343" y="388"/>
      <point x="312" y="440"/>
      <point x="244" y="440" type="curve" smooth="yes"/>
      <point x="174" y="440"/>
      <point x="113" y="367"/>
      <point x="113" y="280" type="curve"/>
      <point x="97" y="280" type="line"/>
      <point x="97" y="389"/>
      <point x="169" y="470"/>
      <point x="250" y="470" type="curve" smooth="yes"/>
      <point x="331" y="470"/>
      <point x="374" y="409"/>
      <point x="374" y="311" type="curve" smooth="yes"/>
      <point x="374" y="0" type="line"/>
      <point x="343" y="0" type="line"/>
    </contour>
    <contour>
      <point x="113" y="460" type="line"/>
      <point x="113" y="0" type="line"/>
      <point x="82" y="0" type="line"/>
      <point x="82" y="460" type="line"/>
    </contour>
    <contour>
      <point x="635" y="311" type="curve" smooth="yes"/>
      <point x="635" y="0" type="line"/>
      <point x="604" y="0" type="line"/>
      <point x="604" y="308" type="line" smooth="yes"/>
      <point x="604" y="388"/>
      <point x="574" y="440"/>
      <point x="506" y="440" type="curve" smooth="yes"/>
      <point x="436" y="440"/>
      <point x="374" y="366"/>
      <point x="374" y="280" type="curve"/>
      <point x="352" y="280" type="line"/>
      <point x="352" y="389"/>
      <point x="431" y="470"/>
      <point x="512" y="470" type="curve" smooth="yes"/>
      <point x="593" y="470"/>
      <point x="635" y="409"/>
    </contour>
  </outline>
</glyph>
<glyph name="o" format="1">
  <advance width="552"/>
  <unicode hex="006F"/>
  <outline>
    <contour>
      <point x="41" y="230" type="curve" smooth="yes"/>
      <point x="41" y="369"/>
      <point x="143" y="470"/>
      <point x="276" y="470" type="curve" smooth="yes"/>
      <point x="409" y="470"/>
      <point x="511" y="369"/>
      <point x="511" y="230" type="curve" smooth="yes"/>
      <point x="511" y="91"/>
      <point x="409" y="-10"/>
      <point x="276" y="-10" type="curve" smooth="yes"/>
      <point x="143" y="-10"/>
      <point x="41" y="91"/>
    </contour>
    <contour>
      <point x="77" y="230" type="curve" smooth="yes"/>
      <point x="77" y="110"/>
      <point x="164" y="23"/>
      <point x="276" y="23" type="curve" smooth="yes"/>
      <point x="388" y="23"/>
      <point x="475" y="110"/>
      <point x="475" y="230" type="curve" smooth="yes"/>
      <point x="475" y="350"/>
      <point x="388" y="437"/>
      <point x="276" y="437" type="curve" smooth="yes"/>
      <point x="164" y="437"/>
      <point x="77" y="350"/>
    </contour>
  </outline>
</glyph>
<glyph name="p" format="1">
  <advance width="549"/>
  <unicode hex="0070"/>
  <outline>
    <contour>
      <point x="108" y="-220" type="line"/>
      <point x="77" y="-220" type="line"/>
      <point x="77" y="460" type="line"/>
      <point x="108" y="460" type="line"/>
    </contour>
    <contour>
      <point x="508" y="230" type="curve" smooth="yes"/>
      <point x="508" y="82"/>
      <point x="412" y="-10"/>
      <point x="290" y="-10" type="curve" smooth="yes"/>
      <point x="169" y="-10"/>
      <point x="94" y="102"/>
      <point x="94" y="230" type="curve" smooth="yes"/>
      <point x="94" y="358"/>
      <point x="169" y="470"/>
      <point x="290" y="470" type="curve" smooth="yes"/>
      <point x="412" y="470"/>
      <point x="508" y="378"/>
    </contour>
    <contour>
      <point x="476" y="230" type="curve" smooth="yes"/>
      <point x="476" y="360"/>
      <point x="392" y="440"/>
      <point x="285" y="440" type="curve" smooth="yes"/>
      <point x="188" y="440"/>
      <point x="108" y="343"/>
      <point x="108" y="230" type="curve" smooth="yes"/>
      <point x="108" y="117"/>
      <point x="188" y="20"/>
      <point x="285" y="20" type="curve" smooth="yes"/>
      <point x="392" y="20"/>
      <point x="476" y="100"/>
    </contour>
  </outline>
</glyph>
<glyph name="s" format="1">
  <advance width="403"/>
  <unicode hex="0073"/>
  <outline>
    <contour>
      <point x="67" y="152" type="line"/>
      <point x="80" y="86"/>
      <point x="119" y="23"/>
      <point x="202" y="23" type="curve" smooth="yes"/>
      <point x="266" y="23"/>
      <point x="311" y="56"/>
      <point x="311" y="114" type="curve" smooth="yes"/>
      <point x="311" y="179"/>
      <point x="256" y="204"/>
      <point x="193" y="225" type="curve" smooth="yes"/>
      <point x="124" y="248"/>
      <point x="62" y="275"/>
      <point x="62" y="358" type="curve" smooth="yes"/>
      <point x="62" y="428"/>
      <point x="120" y="469"/>
      <point x="193" y="469" type="curve" smooth="yes"/>
      <point x="277" y="469"/>
      <point x="323" y="410"/>
      <point x="341" y="359" type="curve"/>
      <point x="310" y="349" type="line"/>
      <point x="291" y="391"/>
      <point x="258" y="435"/>
      <point x="193" y="435" type="curve" smooth="yes"/>
      <point x="137" y="435"/>
      <point x="97" y="409"/>
      <point x="97" y="357" type="curve" smooth="yes"/>
      <point x="97" y="293"/>
      <point x="156" y="271"/>
      <point x="219" y="250" type="curve" smooth="yes"/>
      <point x="285" y="228"/>
      <point x="347" y="192"/>
      <point x="347" y="117" type="curve" smooth="yes"/>
      <point x="347" y="34"/>
      <point x="286" y="-10"/>
      <point x="200" y="-10" type="curve" smooth="yes"/>
      <point x="102" y="-10"/>
      <point x="49" y="64"/>
      <point x="35" y="142" type="curve"/>
    </contour>
  </outline>
</glyph>
<glyph name="t" format="1">
  <advance width="208"/>
  <unicode hex="0074"/>
  <outline>
    <contour>
      <point x="11" y="460" type="line"/>
      <point x="197" y="460" type="line"/>
      <point x="197" y="427" type="line"/>
      <point x="11" y="427" type="line"/>
    </contour>
    <contour>
      <point x="86" y="620" type="line"/>
      <point x="122" y="620" type="line"/>
      <point x="122" y="0" type="line"/>
      <point x="86" y="0" type="line"/>
    </contour>
  </outline>
</glyph>
<glyph name="w" format="1">
  <advance width="638"/>
  <unicode hex="0077"/>
  <outline>
    <contour>
      <point x="12" y="460" type="line"/>
      <point x="46" y="460" type="line"/>
      <point x="176" y="61" type="line"/>
      <point x="314" y="481" type="line"/>
      <point x="461" y="60" type="line"/>
      <point x="592" y="460" type="line"/>
      <point x="626" y="460" type="line"/>
      <point x="463" y="-21" type="line"/>
      <point x="314" y="399" type="line"/>
      <point x="175" y="-21" type="line"/>
    </contour>
  </outline>
</glyph>
<glyph name="x" format="1">
  <advance width="394"/>
  <unicode hex="0078"/>
  <outline>
    <contour>
      <point x="336" y="460" type="line"/>
      <point x="378" y="460" type="line"/>
      <point x="217" y="237" type="line"/>
      <point x="388" y="0" type="line"/>
      <point x="346" y="0" type="line"/>
      <point x="197" y="209" type="line"/>
      <point x="48" y="0" type="line"/>
      <point x="6" y="0" type="line"/>
      <point x="177" y="237" type="line"/>
      <point x="16" y="460" type="line"/>
      <point x="58" y="460" type="line"/>
      <point x="197" y="265" type="line"/>
    </contour>
  </outline>
</glyph>
<glyph name="z" format="1">
  <advance width="440"/>
  <unicode hex="007A"/>
  <outline>
    <contour>
      <point x="351" y="427" type="line"/>
      <point x="42" y="427" type="line"/>
      <point x="42" y="460" type="line"/>
      <point x="416" y="460" type="line"/>
      <point x="84" y="33" type="line"/>
      <point x="415" y="33" type="line"/>
      <point x="415" y="0" type="line"/>
      <point x="18" y="0" type="line"/>
    </contour>
  </outline>
</glyph>
<glyph name="braceleft" format="1">
  <advance width="291"/>
  <unicode hex="007B"/>
  <outline>
    <contour>
      <point x="159" y="647" type="curve" smooth="yes"/>
      <point x="159" y="452" type="line" smooth="yes"/>
      <point x="159" y="363"/>
      <point x="133" y="285"/>
      <point x="75" y="285" type="curve"/>
      <point x="75" y="295" type="line"/>
      <point x="133" y="295"/>
      <point x="159" y="217"/>
      <point x="159" y="128" type="curve" smooth="yes"/>
      <point x="159" y="-67" type="line" smooth="yes"/>
      <point x="159" y="-138"/>
      <point x="177" y="-168"/>
      <point x="229" y="-168" type="curve" smooth="yes"/>
      <point x="255" y="-168" type="line"/>
      <point x="255" y="-200" type="line"/>
      <point x="220" y="-200" type="line" smooth="yes"/>
      <point x="157" y="-200"/>
      <point x="124" y="-159"/>
      <point x="124" y="-60" type="curve" smooth="yes"/>
      <point x="124" y="150" type="line" smooth="yes"/>
      <point x="124" y="226"/>
      <point x="99" y="266"/>
      <point x="69" y="276" type="curve"/>
      <point x="69" y="304" type="line"/>
      <point x="99" y="314"/>
      <point x="124" y="354"/>
      <point x="124" y="430" type="curve" smooth="yes"/>
      <point x="124" y="640" type="line" smooth="yes"/>
      <point x="124" y="739"/>
      <point x="157" y="780"/>
      <point x="220" y="780" type="curve" smooth="yes"/>
      <point x="255" y="780" type="line"/>
      <point x="255" y="748" type="line"/>
      <point x="229" y="748" type="line" smooth="yes"/>
      <point x="177" y="748"/>
      <point x="159" y="718"/>
    </contour>
  </outline>
</glyph>
<glyph name="braceright" format="1">
  <advance width="291"/>
  <unicode hex="007D"/>
  <outline>
    <contour>
      <point x="136" y="-67" type="curve" smooth="yes"/>
      <point x="136" y="128" type="line" smooth="yes"/>
      <point x="136" y="217"/>
      <point x="162" y="295"/>
      <point x="220" y="295" type="curve"/>
      <point x="220" y="285" type="line"/>
      <point x="162" y="285"/>
      <point x="136" y="363"/>
      <point x="136" y="452" type="curve" smooth="yes"/>
      <point x="136" y="647" type="line" smooth="yes"/>
      <point x="136" y="718"/>
      <point x="118" y="748"/>
      <point x="66" y="748" type="curve" smooth="yes"/>
      <point x="40" y="748" type="line"/>
      <point x="40" y="780" type="line"/>
      <point x="75" y="780" type="line" smooth="yes"/>
      <point x="138" y="780"/>
      <point x="171" y="739"/>
      <point x="171" y="640" type="curve" smooth="yes"/>
      <point x="171" y="430" type="line" smooth="yes"/>
      <point x="171" y="354"/>
      <point x="196" y="314"/>
      <point x="226" y="304" type="curve"/>
      <point x="226" y="276" type="line"/>
      <point x="196" y="266"/>
      <point x="171" y="226"/>
      <point x="171" y="150" type="curve" smooth="yes"/>
      <point x="171" y="-60" type="line" smooth="yes"/>
      <point x="171" y="-159"/>
      <point x="138" y="-200"/>
      <point x="75" y="-200" type="curve" smooth="yes"/>
      <point x="40" y="-200" type="line"/>
      <point x="40" y="-168" type="line"/>
      <point x="66" y="-168" type="line" smooth="yes"/>
      <point x="118" y="-168"/>
      <point x="136" y="-138"/>
    </contour>
  </outline>
</glyph>
<glyph name="exclamdown" format="1">
  <advance width="300"/>
  <unicode hex="00A1"/>
  <outline>
    <contour>
      <point x="184" y="-245" type="line"/>
      <point x="140" y="-245" type="line"/>
      <point x="149" y="255" type="line"/>
      <point x="175" y="255" type="line"/>
    </contour>
    <contour>
      <point x="189" y="440" type="curve" smooth="yes"/>
      <point x="189" y="425"/>
      <point x="176" y="413"/>
      <point x="162" y="413" type="curve" smooth="yes"/>
      <point x="148" y="413"/>
      <point x="135" y="425"/>
      <point x="135" y="440" type="curve" smooth="yes"/>
      <point x="135" y="455"/>
      <point x="148" y="467"/>
      <point x="162" y="467" type="curve" smooth="yes"/>
      <point x="176" y="467"/>
      <point x="189" y="455"/>
    </contour>
  </outline>
</glyph>
<glyph name="cent" format="1">
  <advance width="580"/>
  <unicode hex="00A2"/>
  <outline>
    <contour>
      <point x="303" y="11" type="line"/>
      <point x="328" y="11" type="line"/>
      <point x="332" y="-112" type="line"/>
      <point x="300" y="-112" type="line"/>
    </contour>
    <contour>
      <point x="120" y="230" type="curve" smooth="yes"/>
      <point x="120" y="112"/>
      <point x="205" y="23"/>
      <point x="319" y="23" type="curve" smooth="yes"/>
      <point x="393" y="23"/>
      <point x="455" y="61"/>
      <point x="476" y="93" type="curve"/>
      <point x="476" y="49" type="line"/>
      <point x="450" y="19"/>
      <point x="388" y="-10"/>
      <point x="319" y="-10" type="curve" smooth="yes"/>
      <point x="186" y="-10"/>
      <point x="84" y="91"/>
      <point x="84" y="230" type="curve" smooth="yes"/>
      <point x="84" y="369"/>
      <point x="186" y="470"/>
      <point x="319" y="470" type="curve" smooth="yes"/>
      <point x="388" y="470"/>
      <point x="451" y="440"/>
      <point x="476" y="411" type="curve"/>
      <point x="476" y="367" type="line"/>
      <point x="455" y="399"/>
      <point x="393" y="437"/>
      <point x="319" y="437" type="curve" smooth="yes"/>
      <point x="205" y="437"/>
      <point x="120" y="348"/>
    </contour>
    <contour>
      <point x="300" y="578" type="line"/>
      <point x="332" y="578" type="line"/>
      <point x="328" y="450" type="line"/>
      <point x="303" y="450" type="line"/>
    </contour>
  </outline>
</glyph>
<glyph name="currency" format="1">
  <advance width="567"/>
  <unicode hex="00A4"/>
  <outline>
    <contour>
      <point x="50" y="516" type="line"/>
      <point x="74" y="540" type="line"/>
      <point x="148" y="465" type="line"/>
      <point x="125" y="442" type="line"/>
    </contour>
    <contour>
      <point x="74" y="60" type="line"/>
      <point x="50" y="84" type="line"/>
      <point x="125" y="158" type="line"/>
      <point x="148" y="135" type="line"/>
    </contour>
    <contour>
      <point x="449" y="442" type="line"/>
      <point x="425" y="465" type="line"/>
      <point x="499" y="540" type="line"/>
      <point x="523" y="516" type="line"/>
    </contour>
    <contour>
      <point x="425" y="135" type="line"/>
      <point x="449" y="158" type="line"/>
      <point x="523" y="84" type="line"/>
      <point x="499" y="60" type="line"/>
    </contour>
    <contour>
      <point x="52" y="300" type="curve" smooth="yes"/>
      <point x="52" y="439"/>
      <point x="155" y="540"/>
      <point x="284" y="540" type="curve" smooth="yes"/>
      <point x="413" y="540"/>
      <point x="515" y="439"/>
      <point x="515" y="300" type="curve" smooth="yes"/>
      <point x="515" y="161"/>
      <point x="413" y="60"/>
      <point x="284" y="60" type="curve" smooth="yes"/>
      <point x="155" y="60"/>
      <point x="52" y="161"/>
    </contour>
    <contour>
      <point x="88" y="300" type="curve" smooth="yes"/>
      <point x="88" y="182"/>
      <point x="175" y="93"/>
      <point x="284" y="93" type="curve" smooth="yes"/>
      <point x="393" y="93"/>
      <point x="479" y="182"/>
      <point x="479" y="300" type="curve" smooth="yes"/>
      <point x="479" y="418"/>
      <point x="393" y="507"/>
      <point x="284" y="507" type="curve" smooth="yes"/>
      <point x="175" y="507"/>
      <point x="88" y="418"/>
    </contour>
  </outline>
</glyph>
<glyph name="section" format="1">
  <advance width="401"/>
  <unicode hex="00A7"/>
  <outline>
    <contour>
      <point x="340" y="603" type="line"/>
      <point x="320" y="648"/>
      <point x="259" y="676"/>
      <point x="205" y="676" type="curve" smooth="yes"/>
      <point x="152" y="676"/>
      <point x="94" y="652"/>
      <point x="94" y="595" type="curve" smooth="yes"/>
      <point x="94" y="538"/>
      <point x="182" y="512"/>
      <point x="233" y="491" type="curve" smooth="yes"/>
      <point x="298" y="464"/>
      <point x="372" y="431"/>
      <point x="372" y="364" type="curve" smooth="yes"/>
      <point x="372" y="278"/>
      <point x="306" y="240"/>
      <point x="207" y="240" type="curve"/>
      <point x="207" y="253" type="line"/>
      <point x="283" y="263"/>
      <point x="335" y="302"/>
      <point x="335" y="361" type="curve" smooth="yes"/>
      <point x="335" y="417"/>
      <point x="260" y="447"/>
      <point x="207" y="468" type="curve" smooth="yes"/>
      <point x="144" y="493"/>
      <point x="59" y="518"/>
      <point x="59" y="595" type="curve" smooth="yes"/>
      <point x="59" y="671"/>
      <point x="131" y="710"/>
      <point x="205" y="710" type="curve" smooth="yes"/>
      <point x="278" y="710"/>
      <point x="350" y="671"/>
      <point x="368" y="620" type="curve"/>
    </contour>
    <contour>
      <point x="59" y="139" type="line"/>
      <point x="71" y="77"/>
      <point x="139" y="23"/>
      <point x="215" y="23" type="curve" smooth="yes"/>
      <point x="271" y="23"/>
      <point x="335" y="42"/>
      <point x="335" y="108" type="curve" smooth="yes"/>
      <point x="335" y="177"/>
      <point x="261" y="201"/>
      <point x="202" y="226" type="curve" smooth="yes"/>
      <point x="139" y="252"/>
      <point x="59" y="288"/>
      <point x="59" y="359" type="curve" smooth="yes"/>
      <point x="59" y="422"/>
      <point x="111" y="480"/>
      <point x="225" y="480" type="curve"/>
      <point x="225" y="470" type="line"/>
      <point x="139" y="456"/>
      <point x="94" y="410"/>
      <point x="94" y="363" type="curve" smooth="yes"/>
      <point x="94" y="299"/>
      <point x="178" y="271"/>
      <point x="229" y="250" type="curve" smooth="yes"/>
      <point x="294" y="223"/>
      <point x="372" y="191"/>
      <point x="372" y="111" type="curve" smooth="yes"/>
      <point x="372" y="25"/>
      <point x="299" y="-10"/>
      <point x="213" y="-10" type="curve" smooth="yes"/>
      <point x="128" y="-10"/>
      <point x="44" y="48"/>
      <point x="30" y="123" type="curve"/>
    </contour>
  </outline>
</glyph>
<glyph name="dieresis" format="1">
  <advance width="438"/>
  <unicode hex="00A8"/>
  <outline>
    <contour>
      <point x="293" y="679" type="curve" smooth="yes"/>
      <point x="293" y="694"/>
      <point x="305" y="705"/>
      <point x="319" y="705" type="curve" smooth="yes"/>
      <point x="333" y="705"/>
      <point x="347" y="694"/>
      <point x="347" y="679" type="curve" smooth="yes"/>
      <point x="347" y="664"/>
      <point x="333" y="652"/>
      <point x="319" y="652" type="curve" smooth="yes"/>
      <point x="305" y="652"/>
      <point x="293" y="664"/>
    </contour>
    <contour>
      <point x="93" y="679" type="curve" smooth="yes"/>
      <point x="93" y="694"/>
      <point x="105" y="705"/>
      <point x="119" y="705" type="curve" smooth="yes"/>
      <point x="133" y="705"/>
      <point x="147" y="694"/>
      <point x="147" y="679" type="curve" smooth="yes"/>
      <point x="147" y="664"/>
      <point x="133" y="652"/>
      <point x="119" y="652" type="curve" smooth="yes"/>
      <point x="105" y="652"/>
      <point x="93" y="664"/>
    </contour>
  </outline>
</glyph>
<glyph name="copyright" format="1">
  <advance width="800"/>
  <unicode hex="00A9"/>
  <outline>
    <contour>
      <point x="213" y="350" type="curve" smooth="yes"/>
      <point x="213" y="238"/>
      <point x="287" y="158"/>
      <point x="391" y="158" type="curve" smooth="yes"/>
      <point x="450" y="158"/>
      <point x="493" y="177"/>
      <point x="526" y="212" type="curve"/>
      <point x="526" y="182" type="line"/>
      <point x="491" y="151"/>
      <point x="452" y="134"/>
      <point x="391" y="134" type="curve" smooth="yes"/>
      <point x="275" y="134"/>
      <point x="189" y="225"/>
      <point x="189" y="350" type="curve" smooth="yes"/>
      <point x="189" y="475"/>
      <point x="275" y="566"/>
      <point x="391" y="566" type="curve" smooth="yes"/>
      <point x="452" y="566"/>
      <point x="491" y="549"/>
      <point x="526" y="518" type="curve"/>
      <point x="526" y="488" type="line"/>
      <point x="494" y="523"/>
      <point x="448" y="542"/>
      <point x="391" y="542" type="curve" smooth="yes"/>
      <point x="288" y="542"/>
      <point x="213" y="464"/>
    </contour>
    <contour>
      <point x="66" y="350" type="curve" smooth="yes"/>
      <point x="66" y="156"/>
      <point x="214" y="14"/>
      <point x="400" y="14" type="curve" smooth="yes"/>
      <point x="586" y="14"/>
      <point x="734" y="156"/>
      <point x="734" y="350" type="curve" smooth="yes"/>
      <point x="734" y="544"/>
      <point x="586" y="686"/>
      <point x="400" y="686" type="curve" smooth="yes"/>
      <point x="214" y="686"/>
      <point x="66" y="544"/>
    </contour>
    <contour>
      <point x="40" y="350" type="curve" smooth="yes"/>
      <point x="40" y="559"/>
      <point x="196" y="710"/>
      <point x="400" y="710" type="curve" smooth="yes"/>
      <point x="604" y="710"/>
      <point x="760" y="559"/>
      <point x="760" y="350" type="curve" smooth="yes"/>
      <point x="760" y="141"/>
      <point x="604" y="-10"/>
      <point x="400" y="-10" type="curve" smooth="yes"/>
      <point x="196" y="-10"/>
      <point x="40" y="141"/>
    </contour>
  </outline>
</glyph>
<glyph name="degree" format="1">
  <advance width="278"/>
  <unicode hex="00B0"/>
  <outline>
    <contour>
      <point x="20" y="600" type="curve" smooth="yes"/>
      <point x="20" y="670"/>
      <point x="71" y="720"/>
      <point x="139" y="720" type="curve" smooth="yes"/>
      <point x="207" y="720"/>
      <point x="258" y="670"/>
      <point x="258" y="600" type="curve" smooth="yes"/>
      <point x="258" y="530"/>
      <point x="207" y="480"/>
      <point x="139" y="480" type="curve" smooth="yes"/>
      <point x="71" y="480"/>
      <point x="20" y="530"/>
    </contour>
    <contour>
      <point x="41" y="600" type="curve" smooth="yes"/>
      <point x="41" y="541"/>
      <point x="84" y="500"/>
      <point x="139" y="500" type="curve" smooth="yes"/>
      <point x="194" y="500"/>
      <point x="237" y="541"/>
      <point x="237" y="600" type="curve" smooth="yes"/>
      <point x="237" y="659"/>
      <point x="194" y="700"/>
      <point x="139" y="700" type="curve" smooth="yes"/>
      <point x="84" y="700"/>
      <point x="41" y="659"/>
    </contour>
  </outline>
</glyph>
<glyph name="acute" format="1">
  <advance width="359"/>
  <unicode hex="00B4"/>
  <outline>
    <contour>
      <point x="267" y="682" type="line"/>
      <point x="92" y="528" type="line"/>
      <point x="75" y="540" type="line"/>
      <point x="239" y="700" type="line"/>
    </contour>
  </outline>
</glyph>
<glyph name="ordmasculine" format="1">
  <advance width="278"/>
  <unicode hex="00BA"/>
  <outline>
    <contour>
      <point x="20" y="580" type="curve" smooth="yes"/>
      <point x="20" y="650"/>
      <point x="71" y="700"/>
      <point x="139" y="700" type="curve" smooth="yes"/>
      <point x="207" y="700"/>
      <point x="258" y="650"/>
      <point x="258" y="580" type="curve" smooth="yes"/>
      <point x="258" y="510"/>
      <point x="207" y="460"/>
      <point x="139" y="460" type="curve" smooth="yes"/>
      <point x="71" y="460"/>
      <point x="20" y="510"/>
    </contour>
    <contour>
      <point x="41" y="580" type="curve" smooth="yes"/>
      <point x="41" y="521"/>
      <point x="84" y="480"/>
      <point x="139" y="480" type="curve" smooth="yes"/>
      <point x="194" y="480"/>
      <point x="237" y="521"/>
      <point x="237" y="580" type="curve" smooth="yes"/>
      <point x="237" y="639"/>
      <point x="194" y="680"/>
      <point x="139" y="680" type="curve" smooth="yes"/>
      <point x="84" y="680"/>
      <point x="41" y="639"/>
    </contour>
  </outline>
</glyph>
<glyph name="guillemotright" format="1">
  <advance width="494"/>
  <unicode hex="00BB"/>
  <outline>
    <contour>
      <point x="422" y="262" type="line"/>
      <point x="454" y="255" type="line"/>
      <point x="253" y="20" type="line"/>
      <point x="230" y="41" type="line"/>
    </contour>
    <contour>
      <point x="454" y="255" type="line"/>
      <point x="422" y="244" type="line"/>
      <point x="230" y="469" type="line"/>
      <point x="253" y="490" type="line"/>
    </contour>
    <contour>
      <point x="262" y="262" type="line"/>
      <point x="294" y="255" type="line"/>
      <point x="93" y="20" type="line"/>
      <point x="70" y="41" type="line"/>
    </contour>
    <contour>
      <point x="294" y="255" type="line"/>
      <point x="262" y="244" type="line"/>
      <point x="70" y="469" type="line"/>
      <point x="93" y="490" type="line"/>
    </contour>
  </outline>
</glyph>
<glyph name="questiondown" format="1">
  <advance width="547"/>
  <unicode hex="00BF"/>
  <outline>
    <contour>
      <point x="340" y="685" type="curve" smooth="yes"/>
      <point x="340" y="670"/>
      <point x="327" y="658"/>
      <point x="313" y="658" type="curve" smooth="yes"/>
      <point x="299" y="658"/>
      <point x="287" y="670"/>
      <point x="287" y="685" type="curve" smooth="yes"/>
      <point x="287" y="700"/>
      <point x="299" y="712"/>
      <point x="313" y="712" type="curve" smooth="yes"/>
      <point x="327" y="712"/>
      <point x="340" y="700"/>
    </contour>
    <contour>
      <point x="334" y="355" type="line"/>
      <point x="294" y="355" type="line"/>
      <point x="297" y="530" type="line"/>
      <point x="323" y="530" type="line"/>
    </contour>
    <contour>
      <point x="109" y="187" type="curve" smooth="yes"/>
      <point x="109" y="91"/>
      <point x="173" y="23"/>
      <point x="282" y="23" type="curve" smooth="yes"/>
      <point x="365" y="23"/>
      <point x="416" y="64"/>
      <point x="455" y="126" type="curve"/>
      <point x="484" y="107" type="line"/>
      <point x="438" y="37"/>
      <point x="384" y="-10"/>
      <point x="278" y="-10" type="curve" smooth="yes"/>
      <point x="153" y="-10"/>
      <point x="73" y="74"/>
      <point x="73" y="187" type="curve" smooth="yes"/>
      <point x="73" y="293"/>
      <point x="177" y="380"/>
      <point x="302" y="380" type="curve"/>
      <point x="325" y="355" type="line"/>
      <point x="199" y="355"/>
      <point x="109" y="276"/>
    </contour>
  </outline>
</glyph>
<glyph name="Agrave" format="1">
  <advance width="621"/>
  <unicode hex="00C0"/>
  <outline>
    <contour>
      <point x="134" y="250" type="line"/>
      <point x="145" y="285" type="line"/>
      <point x="477" y="285" type="line"/>
      <point x="488" y="250" type="line"/>
    </contour>
    <contour>
      <point x="311" y="635" type="line"/>
      <point x="164" y="272" type="line"/>
      <point x="160" y="263" type="line"/>
      <point x="53" y="0" type="line"/>
      <point x="11" y="0" type="line"/>
      <point x="311" y="722" type="line"/>
      <point x="610" y="0" type="line"/>
      <point x="568" y="0" type="line"/>
      <point x="463" y="261" type="line"/>
      <point x="460" y="270" type="line"/>
    </contour>
    <contour>
      <point x="177" y="937" type="line"/>
      <point x="209" y="956" type="line"/>
      <point x="372" y="796" type="line"/>
      <point x="353" y="782" type="line"/>
    </contour>
  </outline>
</glyph>
<glyph name="AE" format="1">
  <advance width="918"/>
  <unicode hex="00C6"/>
  <outline>
    <contour>
      <point x="211" y="255" type="line"/>
      <point x="211" y="290" type="line"/>
      <point x="504" y="290" type="line"/>
      <point x="504" y="255" type="line"/>
    </contour>
    <contour>
      <point x="467" y="700" type="line"/>
      <point x="500" y="686" type="line"/>
      <point x="47" y="0" type="line"/>
      <point x="5" y="0" type="line"/>
    </contour>
    <contour>
      <point x="511" y="0" type="line"/>
      <point x="511" y="35" type="line"/>
      <point x="842" y="35" type="line"/>
      <point x="842" y="0" type="line"/>
    </contour>
    <contour>
      <point x="516" y="665" type="line"/>
      <point x="467" y="700" type="line"/>
      <point x="842" y="700" type="line"/>
      <point x="842" y="665" type="line"/>
    </contour>
    <contour>
      <point x="511" y="368" type="line"/>
      <point x="511" y="404" type="line"/>
      <point x="822" y="404" type="line"/>
      <point x="822" y="368" type="line"/>
    </contour>
    <contour>
      <point x="490" y="700" type="line"/>
      <point x="527" y="700" type="line"/>
      <point x="527" y="0" type="line"/>
      <point x="490" y="0" type="line"/>
    </contour>
  </outline>
</glyph>
<glyph name="Ccedilla" format="1">
  <advance width="685"/>
  <unicode hex="00C7"/>
  <outline>
    <contour>
      <point x="87" y="350" type="curve" smooth="yes"/>
      <point x="87" y="163"/>
      <point x="214" y="30"/>
      <point x="384" y="30" type="curve" smooth="yes"/>
      <point x="483" y="30"/>
      <point x="554" y="62"/>
      <point x="609" y="121" type="curve"/>
      <point x="609" y="70" type="line"/>
      <point x="550" y="18"/>
      <point x="486" y="-9"/>
      <point x="384" y="-9" type="curve" smooth="yes"/>
      <point x="190" y="-9"/>
      <point x="46" y="141"/>
      <point x="46" y="350" type="curve" smooth="yes"/>
      <point x="46" y="559"/>
      <point x="190" y="709"/>
      <point x="384" y="709" type="curve" smooth="yes"/>
      <point x="486" y="709"/>
      <point x="550" y="682"/>
      <point x="609" y="630" type="curve"/>
      <point x="609" y="580" type="line"/>
      <point x="555" y="638"/>
      <point x="480" y="670"/>
      <point x="384" y="670" type="curve" smooth="yes"/>
      <point x="215" y="670"/>
      <point x="87" y="539"/>
    </contour>
    <contour>
      <point x="384" y="20" type="line"/>
      <point x="413" y="20" type="line"/>
      <point x="354" y="-70" type="line"/>
      <point x="318" y="-97" type="line"/>
    </contour>
    <contour>
      <point x="475" y="-128" type="curve"/>
      <point x="448" y="-128" type="line"/>
      <point x="448" y="-91"/>
      <point x="421" y="-74"/>
      <point x="390" y="-74" type="curve" smooth="yes"/>
      <point x="367" y="-74"/>
      <point x="341" y="-81"/>
      <point x="318" y="-97" type="curve"/>
      <point x="339" y="-75" type="line"/>
      <point x="365" y="-59"/>
      <point x="376" y="-54"/>
      <point x="402" y="-54" type="curve" smooth="yes"/>
      <point x="435" y="-54"/>
      <point x="475" y="-79"/>
    </contour>
    <contour>
      <point x="475" y="-128" type="line"/>
      <point x="475" y="-189"/>
      <point x="423" y="-222"/>
      <point x="368" y="-222" type="curve" smooth="yes"/>
      <point x="331" y="-222"/>
      <point x="307" y="-212"/>
      <point x="279" y="-184" type="curve"/>
      <point x="295" y="-166" type="line"/>
      <point x="320" y="-187"/>
      <point x="337" y="-196"/>
      <point x="368" y="-196" type="curve" smooth="yes"/>
      <point x="410" y="-196"/>
      <point x="448" y="-173"/>
      <point x="448" y="-128" type="curve"/>
    </contour>
  </outline>
</glyph>
<glyph name="Egrave" format="1">
  <advance width="524"/>
  <unicode hex="00C8"/>
  <outline>
    <contour>
      <point x="105" y="0" type="line"/>
      <point x="105" y="35" type="line"/>
      <point x="448" y="35" type="line"/>
      <point x="448" y="0" type="line"/>
    </contour>
    <contour>
      <point x="105" y="665" type="line"/>
      <point x="105" y="700" type="line"/>
      <point x="448" y="700" type="line"/>
      <point x="448" y="665" type="line"/>
    </contour>
    <contour>
      <point x="105" y="368" type="line"/>
      <point x="105" y="404" type="line"/>
      <point x="428" y="404" type="line"/>
      <point x="428" y="368" type="line"/>
    </contour>
    <contour>
      <point x="86" y="700" type="line"/>
      <point x="124" y="700" type="line"/>
      <point x="124" y="0" type="line"/>
      <point x="86" y="0" type="line"/>
    </contour>
    <contour>
      <point x="121" y="923" type="line"/>
      <point x="153" y="943" type="line"/>
      <point x="316" y="783" type="line"/>
      <point x="297" y="769" type="line"/>
    </contour>
  </outline>
</glyph>
<glyph name="Eacute" format="1">
  <advance width="524"/>
  <unicode hex="00C9"/>
  <outline>
    <contour>
      <point x="105" y="0" type="line"/>
      <point x="105" y="35" type="line"/>
      <point x="448" y="35" type="line"/>
      <point x="448" y="0" type="line"/>
    </contour>
    <contour>
      <point x="105" y="665" type="line"/>
      <point x="105" y="700" type="line"/>
      <point x="448" y="700" type="line"/>
      <point x="448" y="665" type="line"/>
    </contour>
    <contour>
      <point x="105" y="368" type="line"/>
      <point x="105" y="404" type="line"/>
      <point x="428" y="404" type="line"/>
      <point x="428" y="368" type="line"/>
    </contour>
    <contour>
      <point x="86" y="700" type="line"/>
      <point x="124" y="700" type="line"/>
      <point x="124" y="0" type="line"/>
      <point x="86" y="0" type="line"/>
    </contour>
    <contour>
      <point x="414" y="923" type="line"/>
      <point x="238" y="769" type="line"/>
      <point x="219" y="783" type="line"/>
      <point x="382" y="943" type="line"/>
    </contour>
  </outline>
</glyph>
<glyph name="Ecircumflex" format="1">
  <advance width="524"/>
  <unicode hex="00CA"/>
  <outline>
    <contour>
      <point x="105" y="0" type="line"/>
      <point x="105" y="35" type="line"/>
      <point x="448" y="35" type="line"/>
      <point x="448" y="0" type="line"/>
    </contour>
    <contour>
      <point x="105" y="665" type="line"/>
      <point x="105" y="700" type="line"/>
      <point x="448" y="700" type="line"/>
      <point x="448" y="665" type="line"/>
    </contour>
    <contour>
      <point x="105" y="368" type="line"/>
      <point x="105" y="404" type="line"/>
      <point x="428" y="404" type="line"/>
      <point x="428" y="368" type="line"/>
    </contour>
    <contour>
      <point x="86" y="700" type="line"/>
      <point x="124" y="700" type="line"/>
      <point x="124" y="0" type="line"/>
      <point x="86" y="0" type="line"/>
    </contour>
    <contour>
      <point x="271" y="889" type="line"/>
      <point x="133" y="769" type="line"/>
      <point x="111" y="788" type="line"/>
      <point x="271" y="928" type="line"/>
      <point x="431" y="788" type="line"/>
      <point x="408" y="769" type="line"/>
    </contour>
  </outline>
</glyph>
<glyph name="Edieresis" format="1">
  <advance width="524"/>
  <unicode hex="00CB"/>
  <outline>
    <contour>
      <point x="105" y="0" type="line"/>
      <point x="105" y="35" type="line"/>
      <point x="448" y="35" type="line"/>
      <point x="448" y="0" type="line"/>
    </contour>
    <contour>
      <point x="105" y="665" type="line"/>
      <point x="105" y="700" type="line"/>
      <point x="448" y="700" type="line"/>
      <point x="448" y="665" type="line"/>
    </contour>
    <contour>
      <point x="105" y="368" type="line"/>
      <point x="105" y="404" type="line"/>
      <point x="428" y="404" type="line"/>
      <point x="428" y="368" type="line"/>
    </contour>
    <contour>
      <point x="86" y="700" type="line"/>
      <point x="124" y="700" type="line"/>
      <point x="124" y="0" type="line"/>
      <point x="86" y="0" type="line"/>
    </contour>
    <contour>
      <point x="344" y="816" type="curve" smooth="yes"/>
      <point x="344" y="831"/>
      <point x="357" y="842"/>
      <point x="371" y="842" type="curve" smooth="yes"/>
      <point x="385" y="842"/>
      <point x="397" y="831"/>
      <point x="397" y="816" type="curve" smooth="yes"/>
      <point x="397" y="801"/>
      <point x="385" y="789"/>
      <point x="371" y="789" type="curve" smooth="yes"/>
      <point x="357" y="789"/>
      <point x="344" y="801"/>
    </contour>
    <contour>
      <point x="144" y="816" type="curve" smooth="yes"/>
      <point x="144" y="831"/>
      <point x="157" y="842"/>
      <point x="171" y="842" type="curve" smooth="yes"/>
      <point x="185" y="842"/>
      <point x="197" y="831"/>
      <point x="197" y="816" type="curve" smooth="yes"/>
      <point x="197" y="801"/>
      <point x="185" y="789"/>
      <point x="171" y="789" type="curve" smooth="yes"/>
      <point x="157" y="789"/>
      <point x="144" y="801"/>
    </contour>
  </outline>
</glyph>
<glyph name="Idieresis" format="1">
  <advance width="203"/>
  <unicode hex="00CF"/>
  <outline>
    <contour>
      <point x="83" y="700" type="line"/>
      <point x="120" y="700" type="line"/>
      <point x="120" y="0" type="line"/>
      <point x="83" y="0" type="line"/>
    </contour>
    <contour>
      <point x="156" y="809" type="curve" smooth="yes"/>
      <point x="156" y="824"/>
      <point x="168" y="835"/>
      <point x="182" y="835" type="curve" smooth="yes"/>
      <point x="196" y="835"/>
      <point x="209" y="824"/>
      <point x="209" y="809" type="curve" smooth="yes"/>
      <point x="209" y="794"/>
      <point x="196" y="781"/>
      <point x="182" y="781" type="curve" smooth="yes"/>
      <point x="168" y="781"/>
      <point x="156" y="794"/>
    </contour>
    <contour>
      <point x="-6" y="809" type="curve" smooth="yes"/>
      <point x="-6" y="824"/>
      <point x="7" y="835"/>
      <point x="21" y="835" type="curve" smooth="yes"/>
      <point x="35" y="835"/>
      <point x="48" y="824"/>
      <point x="48" y="809" type="curve" smooth="yes"/>
      <point x="48" y="794"/>
      <point x="35" y="781"/>
      <point x="21" y="781" type="curve" smooth="yes"/>
      <point x="7" y="781"/>
      <point x="-6" y="794"/>
    </contour>
  </outline>
</glyph>
<glyph name="Ntilde" format="1">
  <advance width="704"/>
  <unicode hex="00D1"/>
  <outline>
    <contour>
      <point x="69" y="652" type="line"/>
      <point x="61" y="722" type="line"/>
      <point x="622" y="45" type="line"/>
      <point x="631" y="-22" type="line"/>
    </contour>
    <contour>
      <point x="594" y="700" type="line"/>
      <point x="631" y="700" type="line"/>
      <point x="631" y="-22" type="line"/>
      <point x="594" y="38" type="line"/>
    </contour>
    <contour>
      <point x="61" y="722" type="line"/>
      <point x="98" y="659" type="line"/>
      <point x="98" y="0" type="line"/>
      <point x="61" y="0" type="line"/>
    </contour>
    <contour>
      <point x="218" y="782" type="line"/>
      <point x="222" y="818"/>
      <point x="250" y="848"/>
      <point x="295" y="848" type="curve" smooth="yes"/>
      <point x="354" y="848"/>
      <point x="365" y="801"/>
      <point x="419" y="801" type="curve" smooth="yes"/>
      <point x="444" y="801"/>
      <point x="458" y="817"/>
      <point x="475" y="849" type="curve"/>
      <point x="498" y="832" type="line"/>
      <point x="482" y="795"/>
      <point x="454" y="772"/>
      <point x="417" y="772" type="curve" smooth="yes"/>
      <point x="362" y="772"/>
      <point x="341" y="819"/>
      <point x="296" y="819" type="curve" smooth="yes"/>
      <point x="255" y="819"/>
      <point x="243" y="789"/>
      <point x="243" y="768" type="curve"/>
    </contour>
  </outline>
</glyph>
<glyph name="Ograve" format="1">
  <advance width="779"/>
  <unicode hex="00D2"/>
  <outline>
    <contour>
      <point x="86" y="350" type="curve" smooth="yes"/>
      <point x="86" y="165"/>
      <point x="213" y="29"/>
      <point x="390" y="29" type="curve" smooth="yes"/>
      <point x="567" y="29"/>
      <point x="694" y="165"/>
      <point x="694" y="350" type="curve" smooth="yes"/>
      <point x="694" y="535"/>
      <point x="567" y="671"/>
      <point x="390" y="671" type="curve" smooth="yes"/>
      <point x="213" y="671"/>
      <point x="86" y="535"/>
    </contour>
    <contour>
      <point x="46" y="350" type="curve" smooth="yes"/>
      <point x="46" y="557"/>
      <point x="192" y="709"/>
      <point x="390" y="709" type="curve" smooth="yes"/>
      <point x="588" y="709"/>
      <point x="734" y="557"/>
      <point x="734" y="350" type="curve" smooth="yes"/>
      <point x="734" y="143"/>
      <point x="588" y="-9"/>
      <point x="390" y="-9" type="curve" smooth="yes"/>
      <point x="192" y="-9"/>
      <point x="46" y="143"/>
    </contour>
    <contour>
      <point x="260" y="923" type="line"/>
      <point x="292" y="943" type="line"/>
      <point x="455" y="783" type="line"/>
      <point x="436" y="769" type="line"/>
    </contour>
  </outline>
</glyph>
<glyph name="Odieresis" format="1">
  <advance width="779"/>
  <unicode hex="00D6"/>
  <outline>
    <contour>
      <point x="86" y="350" type="curve" smooth="yes"/>
      <point x="86" y="165"/>
      <point x="213" y="29"/>
      <point x="390" y="29" type="curve" smooth="yes"/>
      <point x="567" y="29"/>
      <point x="694" y="165"/>
      <point x="694" y="350" type="curve" smooth="yes"/>
      <point x="694" y="535"/>
      <point x="567" y="671"/>
      <point x="390" y="671" type="curve" smooth="yes"/>
      <point x="213" y="671"/>
      <point x="86" y="535"/>
    </contour>
    <contour>
      <point x="46" y="350" type="curve" smooth="yes"/>
      <point x="46" y="557"/>
      <point x="192" y="709"/>
      <point x="390" y="709" type="curve" smooth="yes"/>
      <point x="588" y="709"/>
      <point x="734" y="557"/>
      <point x="734" y="350" type="curve" smooth="yes"/>
      <point x="734" y="143"/>
      <point x="588" y="-9"/>
      <point x="390" y="-9" type="curve" smooth="yes"/>
      <point x="192" y="-9"/>
      <point x="46" y="143"/>
    </contour>
    <contour>
      <point x="469" y="815" type="curve" smooth="yes"/>
      <point x="469" y="830"/>
      <point x="482" y="842"/>
      <point x="496" y="842" type="curve" smooth="yes"/>
      <point x="510" y="842"/>
      <point x="523" y="830"/>
      <point x="523" y="815" type="curve" smooth="yes"/>
      <point x="523" y="800"/>
      <point x="510" y="788"/>
      <point x="496" y="788" type="curve" smooth="yes"/>
      <point x="482" y="788"/>
      <point x="469" y="800"/>
    </contour>
    <contour>
      <point x="256" y="815" type="curve" smooth="yes"/>
      <point x="256" y="830"/>
      <point x="270" y="842"/>
      <point x="284" y="842" type="curve" smooth="yes"/>
      <point x="298" y="842"/>
      <point x="310" y="830"/>
      <point x="310" y="815" type="curve" smooth="yes"/>
      <point x="310" y="800"/>
      <point x="298" y="788"/>
      <point x="284" y="788" type="curve" smooth="yes"/>
      <point x="270" y="788"/>
      <point x="256" y="800"/>
    </contour>
  </outline>
</glyph>
<glyph name="multiply" format="1">
  <advance width="584"/>
  <unicode hex="00D7"/>
  <outline>
    <contour>
      <point x="100" y="38" type="line"/>
      <point x="75" y="62" type="line"/>
      <point x="270" y="255" type="line"/>
      <point x="75" y="448" type="line"/>
      <point x="99" y="472" type="line"/>
      <point x="292" y="277" type="line"/>
      <point x="485" y="472" type="line"/>
      <point x="510" y="448" type="line"/>
      <point x="314" y="255" type="line"/>
      <point x="509" y="62" type="line"/>
      <point x="485" y="38" type="line"/>
      <point x="292" y="232" type="line"/>
    </contour>
  </outline>
</glyph>
<glyph name="Oslash" format="1">
  <advance width="790"/>
  <unicode hex="00D8"/>
  <outline>
    <contour>
      <point x="86" y="350" type="curve" smooth="yes"/>
      <point x="86" y="165"/>
      <point x="213" y="29"/>
      <point x="390" y="29" type="curve" smooth="yes"/>
      <point x="567" y="29"/>
      <point x="694" y="165"/>
      <point x="694" y="350" type="curve" smooth="yes"/>
      <point x="694" y="535"/>
      <point x="567" y="671"/>
      <point x="390" y="671" type="curve" smooth="yes"/>
      <point x="213" y="671"/>
      <point x="86" y="535"/>
    </contour>
    <contour>
      <point x="46" y="350" type="curve" smooth="yes"/>
      <point x="46" y="557"/>
      <point x="192" y="709"/>
      <point x="390" y="709" type="curve" smooth="yes"/>
      <point x="588" y="709"/>
      <point x="734" y="557"/>
      <point x="734" y="350" type="curve" smooth="yes"/>
      <point x="734" y="143"/>
      <point x="588" y="-9"/>
      <point x="390" y="-9" type="curve" smooth="yes"/>
      <point x="192" y="-9"/>
      <point x="46" y="143"/>
    </contour>
    <contour>
      <point x="704" y="739" type="line"/>
      <point x="731" y="721" type="line"/>
      <point x="82" y="-39" type="line"/>
      <point x="56" y="-21" type="line"/>
    </contour>
  </outline>
</glyph>
<glyph name="Yacute" format="1">
  <advance width="526"/>
  <unicode hex="00DD"/>
  <outline>
    <contour>
      <point x="241" y="306" type="line"/>
      <point x="279" y="306" type="line"/>
      <point x="279" y="0" type="line"/>
      <point x="241" y="0" type="line"/>
    </contour>
    <contour>
      <point x="472" y="700" type="line"/>
      <point x="515" y="700" type="line"/>
      <point x="260" y="246" type="line"/>
      <point x="11" y="700" type="line"/>
      <point x="54" y="700" type="line"/>
      <point x="260" y="315" type="line"/>
    </contour>
    <contour>
      <point x="410" y="923" type="line"/>
      <point x="234" y="769" type="line"/>
      <point x="215" y="783" type="line"/>
      <point x="378" y="943" type="line"/>
    </contour>
  </outline>
</glyph>
<glyph name="Thorn" format="1">
  <advance width="530"/>
  <unicode hex="00DE"/>
  <outline>
    <contour>
      <point x="251" y="140" type="curve"/>
      <point x="251" y="175" type="line"/>
      <point x="363" y="175"/>
      <point x="451" y="245"/>
      <point x="451" y="350" type="curve" smooth="yes"/>
      <point x="451" y="462"/>
      <point x="363" y="525"/>
      <point x="251" y="525" type="curve"/>
      <point x="251" y="560" type="line"/>
      <point x="386" y="560"/>
      <point x="489" y="479"/>
      <point x="489" y="350" type="curve" smooth="yes"/>
      <point x="489" y="221"/>
      <point x="386" y="140"/>
    </contour>
    <contour>
      <point x="100" y="140" type="line"/>
      <point x="100" y="175" type="line"/>
      <point x="251" y="175" type="line"/>
      <point x="251" y="140" type="line"/>
    </contour>
    <contour>
      <point x="100" y="525" type="line"/>
      <point x="100" y="560" type="line"/>
      <point x="251" y="560" type="line"/>
      <point x="251" y="525" type="line"/>
    </contour>
    <contour>
      <point x="80" y="700" type="line"/>
      <point x="117" y="700" type="line"/>
      <point x="117" y="0" type="line"/>
      <point x="80" y="0" type="line"/>
    </contour>
  </outline>
</glyph>
<glyph name="acircumflex" format="1">
  <advance width="453"/>
  <unicode hex="00E2"/>
  <outline>
    <contour>
      <point x="72" y="135" type="curve" smooth="yes"/>
      <point x="72" y="54"/>
      <point x="130" y="22"/>
      <point x="198" y="22" type="curve" smooth="yes"/>
      <point x="284" y="22"/>
      <point x="351" y="81"/>
      <point x="351" y="167" type="curve"/>
      <point x="361" y="149" type="line"/>
      <point x="361" y="60"/>
      <point x="291" y="-10"/>
      <point x="191" y="-10" type="curve" smooth="yes"/>
      <point x="109" y="-10"/>
      <point x="36" y="34"/>
      <point x="36" y="131" type="curve" smooth="yes"/>
      <point x="36" y="232"/>
      <point x="125" y="283"/>
      <point x="223" y="283" type="curve" smooth="yes"/>
      <point x="305" y="283"/>
      <point x="346" y="248"/>
      <point x="365" y="231" type="curve"/>
      <point x="365" y="208" type="line"/>
      <point x="333" y="234"/>
      <point x="288" y="254"/>
      <point x="224" y="254" type="curve" smooth="yes"/>
      <point x="142" y="254"/>
      <point x="72" y="214"/>
    </contour>
    <contour>
      <point x="94" y="379" type="curve"/>
      <point x="75" y="407" type="line"/>
      <point x="109" y="436"/>
      <point x="161" y="470"/>
      <point x="238" y="470" type="curve" smooth="yes"/>
      <point x="333" y="470"/>
      <point x="387" y="413"/>
      <point x="387" y="324" type="curve" smooth="yes"/>
      <point x="387" y="0" type="line"/>
      <point x="351" y="0" type="line"/>
      <point x="351" y="324" type="line" smooth="yes"/>
      <point x="351" y="396"/>
      <point x="309" y="438"/>
      <point x="238" y="438" type="curve" smooth="yes"/>
      <point x="172" y="438"/>
      <point x="126" y="407"/>
    </contour>
    <contour>
      <point x="238" y="657" type="line"/>
      <point x="101" y="536" type="line"/>
      <point x="78" y="555" type="line"/>
      <point x="238" y="695" type="line"/>
      <point x="398" y="555" type="line"/>
      <point x="376" y="536" type="line"/>
    </contour>
  </outline>
</glyph>
<glyph name="iacute" format="1">
  <advance width="211"/>
  <unicode hex="00ED"/>
  <outline>
    <contour>
      <point x="90" y="460" type="line"/>
      <point x="121" y="460" type="line"/>
      <point x="121" y="0" type="line"/>
      <point x="90" y="0" type="line"/>
    </contour>
    <contour>
      <point x="262" y="691" type="line"/>
      <point x="88" y="536" type="line"/>
      <point x="70" y="548" type="line"/>
      <point x="234" y="708" type="line"/>
    </contour>
  </outline>
</glyph>
<glyph name="idieresis" format="1">
  <advance width="215"/>
  <unicode hex="00EF"/>
  <outline>
    <contour>
      <point x="90" y="460" type="line"/>
      <point x="125" y="460" type="line"/>
      <point x="125" y="0" type="line"/>
      <point x="90" y="0" type="line"/>
    </contour>
    <contour>
      <point x="168" y="567" type="curve" smooth="yes"/>
      <point x="168" y="582"/>
      <point x="181" y="595"/>
      <point x="195" y="595" type="curve" smooth="yes"/>
      <point x="209" y="595"/>
      <point x="221" y="582"/>
      <point x="221" y="567" type="curve" smooth="yes"/>
      <point x="221" y="552"/>
      <point x="209" y="541"/>
      <point x="195" y="541" type="curve" smooth="yes"/>
      <point x="181" y="541"/>
      <point x="168" y="552"/>
    </contour>
    <contour>
      <point x="-6" y="567" type="curve" smooth="yes"/>
      <point x="-6" y="582"/>
      <point x="6" y="595"/>
      <point x="20" y="595" type="curve" smooth="yes"/>
      <point x="34" y="595"/>
      <point x="47" y="582"/>
      <point x="47" y="567" type="curve" smooth="yes"/>
      <point x="47" y="552"/>
      <point x="34" y="541"/>
      <point x="20" y="541" type="curve" smooth="yes"/>
      <point x="6" y="541"/>
      <point x="-6" y="552"/>
    </contour>
  </outline>
</glyph>
<glyph name="eth" format="1">
  <advance width="550"/>
  <unicode hex="00F0"/>
  <outline>
    <contour>
      <point x="465" y="224" type="curve" smooth="yes"/>
      <point x="465" y="326"/>
      <point x="390" y="416"/>
      <point x="268" y="416" type="curve" smooth="yes"/>
      <point x="169" y="416"/>
      <point x="86" y="333"/>
      <point x="86" y="224" type="curve" smooth="yes"/>
      <point x="86" y="109"/>
      <point x="163" y="24"/>
      <point x="275" y="24" type="curve" smooth="yes"/>
      <point x="391" y="24"/>
      <point x="465" y="113"/>
    </contour>
    <contour>
      <point x="220" y="700" type="line"/>
      <point x="449" y="378" type="line" smooth="yes"/>
      <point x="476" y="341"/>
      <point x="500" y="281"/>
      <point x="500" y="224" type="curve" smooth="yes"/>
      <point x="500" y="86"/>
      <point x="410" y="-10"/>
      <point x="275" y="-10" type="curve" smooth="yes"/>
      <point x="140" y="-10"/>
      <point x="50" y="86"/>
      <point x="50" y="224" type="curve" smooth="yes"/>
      <point x="50" y="347"/>
      <point x="143" y="444"/>
      <point x="257" y="444" type="curve" smooth="yes"/>
      <point x="321" y="444"/>
      <point x="373" y="422"/>
      <point x="410" y="377" type="curve"/>
      <point x="408" y="375" type="line"/>
      <point x="174" y="700" type="line"/>
    </contour>
    <contour>
      <point x="149" y="555" type="line"/>
      <point x="149" y="585" type="line"/>
      <point x="429" y="585" type="line"/>
      <point x="429" y="555" type="line"/>
    </contour>
  </outline>
</glyph>
<glyph name="ograve" format="1">
  <advance width="552"/>
  <unicode hex="00F2"/>
  <outline>
    <contour>
      <point x="41" y="230" type="curve" smooth="yes"/>
      <point x="41" y="369"/>
      <point x="143" y="470"/>
      <point x="276" y="470" type="curve" smooth="yes"/>
      <point x="409" y="470"/>
      <point x="511" y="369"/>
      <point x="511" y="230" type="curve" smooth="yes"/>
      <point x="511" y="91"/>
      <point x="409" y="-10"/>
      <point x="276" y="-10" type="curve" smooth="yes"/>
      <point x="143" y="-10"/>
      <point x="41" y="91"/>
    </contour>
    <contour>
      <point x="77" y="230" type="curve" smooth="yes"/>
      <point x="77" y="110"/>
      <point x="164" y="23"/>
      <point x="276" y="23" type="curve" smooth="yes"/>
      <point x="388" y="23"/>
      <point x="475" y="110"/>
      <point x="475" y="230" type="curve" smooth="yes"/>
      <point x="475" y="350"/>
      <point x="388" y="437"/>
      <point x="276" y="437" type="curve" smooth="yes"/>
      <point x="164" y="437"/>
      <point x="77" y="350"/>
    </contour>
    <contour>
      <point x="132" y="692" type="line"/>
      <point x="164" y="711" type="line"/>
      <point x="327" y="551" type="line"/>
      <point x="308" y="537" type="line"/>
    </contour>
  </outline>
</glyph>
<glyph name="otilde" format="1">
  <advance width="552"/>
  <unicode hex="00F5"/>
  <outline>
    <contour>
      <point x="41" y="230" type="curve" smooth="yes"/>
      <point x="41" y="369"/>
      <point x="143" y="470"/>
      <point x="276" y="470" type="curve" smooth="yes"/>
      <point x="409" y="470"/>
      <point x="511" y="369"/>
      <point x="511" y="230" type="curve" smooth="yes"/>
      <point x="511" y="91"/>
      <point x="409" y="-10"/>
      <point x="276" y="-10" type="curve" smooth="yes"/>
      <point x="143" y="-10"/>
      <point x="41" y="91"/>
    </contour>
    <contour>
      <point x="77" y="230" type="curve" smooth="yes"/>
      <point x="77" y="110"/>
      <point x="164" y="23"/>
      <point x="276" y="23" type="curve" smooth="yes"/>
      <point x="388" y="23"/>
      <point x="475" y="110"/>
      <point x="475" y="230" type="curve" smooth="yes"/>
      <point x="475" y="350"/>
      <point x="388" y="437"/>
      <point x="276" y="437" type="curve" smooth="yes"/>
      <point x="164" y="437"/>
      <point x="77" y="350"/>
    </contour>
    <contour>
      <point x="136" y="557" type="line"/>
      <point x="140" y="593"/>
      <point x="168" y="623"/>
      <point x="213" y="623" type="curve" smooth="yes"/>
      <point x="272" y="623"/>
      <point x="283" y="576"/>
      <point x="337" y="576" type="curve" smooth="yes"/>
      <point x="362" y="576"/>
      <point x="376" y="592"/>
      <point x="393" y="624" type="curve"/>
      <point x="416" y="607" type="line"/>
      <point x="400" y="570"/>
      <point x="373" y="547"/>
      <point x="336" y="547" type="curve" smooth="yes"/>
      <point x="281" y="547"/>
      <point x="259" y="594"/>
      <point x="214" y="594" type="curve" smooth="yes"/>
      <point x="173" y="594"/>
      <point x="161" y="564"/>
      <point x="161" y="543" type="curve"/>
    </contour>
  </outline>
</glyph>
<glyph name="odieresis" format="1">
  <advance width="552"/>
  <unicode hex="00F6"/>
  <outline>
    <contour>
      <point x="41" y="230" type="curve" smooth="yes"/>
      <point x="41" y="369"/>
      <point x="143" y="470"/>
      <point x="276" y="470" type="curve" smooth="yes"/>
      <point x="409" y="470"/>
      <point x="511" y="369"/>
      <point x="511" y="230" type="curve" smooth="yes"/>
      <point x="511" y="91"/>
      <point x="409" y="-10"/>
      <point x="276" y="-10" type="curve" smooth="yes"/>
      <point x="143" y="-10"/>
      <point x="41" y="91"/>
    </contour>
    <contour>
      <point x="77" y="230" type="curve" smooth="yes"/>
      <point x="77" y="110"/>
      <point x="164" y="23"/>
      <point x="276" y="23" type="curve" smooth="yes"/>
      <point x="388" y="23"/>
      <point x="475" y="110"/>
      <point x="475" y="230" type="curve" smooth="yes"/>
      <point x="475" y="350"/>
      <point x="388" y="437"/>
      <point x="276" y="437" type="curve" smooth="yes"/>
      <point x="164" y="437"/>
      <point x="77" y="350"/>
    </contour>
    <contour>
      <point x="350" y="580" type="curve" smooth="yes"/>
      <point x="350" y="595"/>
      <point x="362" y="607"/>
      <point x="376" y="607" type="curve" smooth="yes"/>
      <point x="390" y="607"/>
      <point x="403" y="595"/>
      <point x="403" y="580" type="curve" smooth="yes"/>
      <point x="403" y="565"/>
      <point x="390" y="554"/>
      <point x="376" y="554" type="curve" smooth="yes"/>
      <point x="362" y="554"/>
      <point x="350" y="565"/>
    </contour>
    <contour>
      <point x="150" y="580" type="curve" smooth="yes"/>
      <point x="150" y="595"/>
      <point x="162" y="607"/>
      <point x="176" y="607" type="curve" smooth="yes"/>
      <point x="190" y="607"/>
      <point x="203" y="595"/>
      <point x="203" y="580" type="curve" smooth="yes"/>
      <point x="203" y="565"/>
      <point x="190" y="554"/>
      <point x="176" y="554" type="curve" smooth="yes"/>
      <point x="162" y="554"/>
      <point x="150" y="565"/>
    </contour>
  </outline>
</glyph>
<glyph name="divide" format="1">
  <advance width="623"/>
  <unicode hex="00F7"/>
  <outline>
    <contour>
      <point x="283" y="450" type="curve" smooth="yes"/>
      <point x="283" y="465"/>
      <point x="296" y="478"/>
      <point x="310" y="478" type="curve" smooth="yes"/>
      <point x="324" y="478"/>
      <point x="337" y="465"/>
      <point x="337" y="450" type="curve" smooth="yes"/>
      <point x="337" y="435"/>
      <point x="324" y="424"/>
      <point x="310" y="424" type="curve" smooth="yes"/>
      <point x="296" y="424"/>
      <point x="283" y="435"/>
    </contour>
    <contour>
      <point x="283" y="45" type="curve" smooth="yes"/>
      <point x="283" y="60"/>
      <point x="296" y="72"/>
      <point x="310" y="72" type="curve" smooth="yes"/>
      <point x="324" y="72"/>
      <point x="337" y="60"/>
      <point x="337" y="45" type="curve" smooth="yes"/>
      <point x="337" y="30"/>
      <point x="324" y="18"/>
      <point x="310" y="18" type="curve" smooth="yes"/>
      <point x="296" y="18"/>
      <point x="283" y="30"/>
    </contour>
    <contour>
      <point x="60" y="231" type="line"/>
      <point x="60" y="267" type="line"/>
      <point x="560" y="267" type="line"/>
      <point x="560" y="231" type="line"/>
    </contour>
  </outline>
</glyph>
<glyph name="ugrave" format="1">
  <advance width="493"/>
  <unicode hex="00F9"/>
  <outline>
    <contour>
      <point x="376" y="0" type="line"/>
      <point x="376" y="460" type="line"/>
      <point x="412" y="460" type="line"/>
      <point x="412" y="0" type="line"/>
    </contour>
    <contour>
      <point x="117" y="161" type="line" smooth="yes"/>
      <point x="117" y="75"/>
      <point x="150" y="23"/>
      <point x="231" y="23" type="curve" smooth="yes"/>
      <point x="314" y="23"/>
      <point x="376" y="95"/>
      <point x="376" y="180" type="curve"/>
      <point x="393" y="180" type="line"/>
      <point x="393" y="71"/>
      <point x="318" y="-10"/>
      <point x="223" y="-10" type="curve" smooth="yes"/>
      <point x="128" y="-10"/>
      <point x="81" y="51"/>
      <point x="81" y="157" type="curve" smooth="yes"/>
      <point x="81" y="460" type="line"/>
      <point x="117" y="460" type="line"/>
    </contour>
    <contour>
      <point x="104" y="698" type="line"/>
      <point x="136" y="718" type="line"/>
      <point x="299" y="558" type="line"/>
      <point x="279" y="544" type="line"/>
    </contour>
  </outline>
</glyph>
<glyph name="yacute" format="1">
  <advance width="430"/>
  <unicode hex="00FD"/>
  <outline>
    <contour>
      <point x="424" y="460" type="line"/>
      <point x="124" y="-220" type="line"/>
      <point x="85" y="-220" type="line"/>
      <point x="198" y="36" type="line"/>
      <point x="6" y="460" type="line"/>
      <point x="48" y="460" type="line"/>
      <point x="228" y="49" type="line"/>
      <point x="209" y="50" type="line"/>
      <point x="385" y="460" type="line"/>
    </contour>
    <contour>
      <point x="361" y="692" type="line"/>
      <point x="186" y="537" type="line"/>
      <point x="167" y="551" type="line"/>
      <point x="329" y="711" type="line"/>
    </contour>
  </outline>
</glyph>
<glyph name="thorn" format="1">
  <advance width="551"/>
  <unicode hex="00FE"/>
  <outline>
    <contour>
      <point x="112" y="420" type="line"/>
      <point x="83" y="-220" type="line"/>
      <point x="76" y="140" type="line"/>
      <point x="105" y="780" type="line"/>
    </contour>
    <contour>
      <point x="510" y="230" type="curve" smooth="yes"/>
      <point x="510" y="82"/>
      <point x="413" y="-10"/>
      <point x="291" y="-10" type="curve" smooth="yes"/>
      <point x="171" y="-10"/>
      <point x="95" y="100"/>
      <point x="95" y="230" type="curve" smooth="yes"/>
      <point x="95" y="360"/>
      <point x="171" y="470"/>
      <point x="291" y="470" type="curve" smooth="yes"/>
      <point x="413" y="470"/>
      <point x="510" y="378"/>
    </contour>
    <contour>
      <point x="475" y="230" type="curve" smooth="yes"/>
      <point x="475" y="358"/>
      <point x="391" y="437"/>
      <point x="286" y="437" type="curve" smooth="yes"/>
      <point x="191" y="437"/>
      <point x="112" y="342"/>
      <point x="112" y="230" type="curve" smooth="yes"/>
      <point x="112" y="118"/>
      <point x="191" y="23"/>
      <point x="286" y="23" type="curve" smooth="yes"/>
      <point x="391" y="23"/>
      <point x="475" y="102"/>
    </contour>
  </outline>
</glyph>
<glyph name="ydieresis" format="1">
  <advance width="430"/>
  <unicode hex="00FF"/>
  <outline>
    <contour>
      <point x="424" y="460" type="line"/>
      <point x="124" y="-220" type="line"/>
      <point x="85" y="-220" type="line"/>
      <point x="198" y="36" type="line"/>
      <point x="6" y="460" type="line"/>
      <point x="48" y="460" type="line"/>
      <point x="228" y="49" type="line"/>
      <point x="209" y="50" type="line"/>
      <point x="385" y="460" type="line"/>
    </contour>
    <contour>
      <point x="276" y="569" type="curve" smooth="yes"/>
      <point x="276" y="584"/>
      <point x="288" y="597"/>
      <point x="302" y="597" type="curve" smooth="yes"/>
      <point x="316" y="597"/>
      <point x="329" y="584"/>
      <point x="329" y="569" type="curve" smooth="yes"/>
      <point x="329" y="554"/>
      <point x="316" y="543"/>
      <point x="302" y="543" type="curve" smooth="yes"/>
      <point x="288" y="543"/>
      <point x="276" y="554"/>
    </contour>
    <contour>
      <point x="101" y="569" type="curve" smooth="yes"/>
      <point x="101" y="584"/>
      <point x="114" y="597"/>
      <point x="128" y="597" type="curve" smooth="yes"/>
      <point x="142" y="597"/>
      <point x="155" y="584"/>
      <point x="155" y="569" type="curve" smooth="yes"/>
      <point x="155" y="554"/>
      <point x="142" y="543"/>
      <point x="128" y="543" type="curve" smooth="yes"/>
      <point x="114" y="543"/>
      <point x="101" y="554"/>
    </contour>
  </outline>
</glyph>
<glyph name="Ccircumflex" format="1">
  <advance width="685"/>
  <unicode hex="0108"/>
  <outline>
    <contour>
      <point x="87" y="350" type="curve" smooth="yes"/>
      <point x="87" y="163"/>
      <point x="214" y="30"/>
      <point x="384" y="30" type="curve" smooth="yes"/>
      <point x="483" y="30"/>
      <point x="554" y="62"/>
      <point x="609" y="121" type="curve"/>
      <point x="609" y="70" type="line"/>
      <point x="550" y="18"/>
      <point x="486" y="-9"/>
      <point x="384" y="-9" type="curve" smooth="yes"/>
      <point x="190" y="-9"/>
      <point x="46" y="141"/>
      <point x="46" y="350" type="curve" smooth="yes"/>
      <point x="46" y="559"/>
      <point x="190" y="709"/>
      <point x="384" y="709" type="curve" smooth="yes"/>
      <point x="486" y="709"/>
      <point x="550" y="682"/>
      <point x="609" y="630" type="curve"/>
      <point x="609" y="580" type="line"/>
      <point x="555" y="638"/>
      <point x="480" y="670"/>
      <point x="384" y="670" type="curve" smooth="yes"/>
      <point x="215" y="670"/>
      <point x="87" y="539"/>
    </contour>
    <contour>
      <point x="384" y="889" type="line"/>
      <point x="246" y="769" type="line"/>
      <point x="224" y="788" type="line"/>
      <point x="384" y="928" type="line"/>
      <point x="544" y="788" type="line"/>
      <point x="521" y="769" type="line"/>
    </contour>
  </outline>
</glyph>
<glyph name="Dcroat" format="1">
  <advance width="680"/>
  <unicode hex="0110"/>
  <outline>
    <contour>
      <point x="106" y="663" type="line"/>
      <point x="106" y="700" type="line"/>
      <point x="264" y="700" type="line" smooth="yes"/>
      <point x="468" y="700"/>
      <point x="605" y="559"/>
      <point x="605" y="350" type="curve"/>
      <point x="567" y="350" type="line"/>
      <point x="567" y="539"/>
      <point x="448" y="663"/>
      <point x="264" y="663" type="curve" smooth="yes"/>
    </contour>
    <contour>
      <point x="264" y="0" type="curve" smooth="yes"/>
      <point x="106" y="0" type="line"/>
      <point x="106" y="37" type="line"/>
      <point x="264" y="37" type="line" smooth="yes"/>
      <point x="448" y="37"/>
      <point x="567" y="161"/>
      <point x="567" y="350" type="curve"/>
      <point x="605" y="350" type="line"/>
      <point x="605" y="141"/>
      <point x="468" y="0"/>
    </contour>
    <contour>
      <point x="86" y="700" type="line"/>
      <point x="124" y="700" type="line"/>
      <point x="124" y="0" type="line"/>
      <point x="86" y="0" type="line"/>
    </contour>
    <contour>
      <point x="5" y="332" type="line"/>
      <point x="5" y="366" type="line"/>
      <point x="305" y="366" type="line"/>
      <point x="305" y="332" type="line"/>
    </contour>
  </outline>
</glyph>
<glyph name="emacron" format="1">
  <advance width="519"/>
  <unicode hex="0113"/>
  <outline>
    <contour>
      <point x="68" y="221" type="line"/>
      <point x="68" y="252" type="line"/>
      <point x="467" y="252" type="line"/>
      <point x="476" y="221" type="line"/>
    </contour>
    <contour>
      <point x="440" y="252" type="line" smooth="yes"/>
      <point x="440" y="359"/>
      <point x="364" y="438"/>
      <point x="264" y="438" type="curve" smooth="yes"/>
      <point x="166" y="438"/>
      <point x="78" y="365"/>
      <point x="78" y="242" type="curve"/>
      <point x="77" y="231" type="line"/>
      <point x="77" y="109"/>
      <point x="152" y="23"/>
      <point x="261" y="23" type="curve" smooth="yes"/>
      <point x="360" y="23"/>
      <point x="411" y="76"/>
      <point x="442" y="126" type="curve"/>
      <point x="470" y="107" type="line"/>
      <point x="434" y="51"/>
      <point x="381" y="-10"/>
      <point x="258" y="-10" type="curve" smooth="yes"/>
      <point x="133" y="-10"/>
      <point x="41" y="92"/>
      <point x="41" y="231" type="curve" smooth="yes"/>
      <point x="41" y="254"/>
      <point x="43" y="277"/>
      <point x="49" y="298" type="curve" smooth="yes"/>
      <point x="73" y="400"/>
      <point x="155" y="470"/>
      <point x="264" y="470" type="curve" smooth="yes"/>
      <point x="381" y="470"/>
      <point x="478" y="379"/>
      <point x="478" y="247" type="curve" smooth="yes"/>
      <point x="478" y="239"/>
      <point x="477" y="229"/>
      <point x="476" y="221" type="curve"/>
      <point x="440" y="230" type="line"/>
    </contour>
    <contour>
      <point x="88" y="572" type="line"/>
      <point x="88" y="605" type="line"/>
      <point x="438" y="605" type="line"/>
      <point x="438" y="572" type="line"/>
    </contour>
  </outline>
</glyph>
<glyph name="Edotaccent" format="1">
  <advance width="524"/>
  <unicode hex="0116"/>
  <outline>
    <contour>
      <point x="105" y="0" type="line"/>
      <point x="105" y="35" type="line"/>
      <point x="448" y="35" type="line"/>
      <point x="448" y="0" type="line"/>
    </contour>
    <contour>
      <point x="105" y="665" type="line"/>
      <point x="105" y="700" type="line"/>
      <point x="448" y="700" type="line"/>
      <point x="448" y="665" type="line"/>
    </contour>
    <contour>
      <point x="105" y="368" type="line"/>
      <point x="105" y="404" type="line"/>
      <point x="428" y="404" type="line"/>
      <point x="428" y="368" type="line"/>
    </contour>
    <contour>
      <point x="86" y="700" type="line"/>
      <point x="124" y="700" type="line"/>
      <point x="124" y="0" type="line"/>
      <point x="86" y="0" type="line"/>
    </contour>
    <contour>
      <point x="241" y="796" type="curve" smooth="yes"/>
      <point x="241" y="811"/>
      <point x="253" y="822"/>
      <point x="267" y="822" type="curve" smooth="yes"/>
      <point x="281" y="822"/>
      <point x="294" y="811"/>
      <point x="294" y="796" type="curve" smooth="yes"/>
      <point x="294" y="781"/>
      <point x="281" y="769"/>
      <point x="267" y="769" type="curve" smooth="yes"/>
      <point x="253" y="769"/>
      <point x="241" y="781"/>
    </contour>
  </outline>
</glyph>
<glyph name="eogonek" format="1">
  <advance width="519"/>
  <unicode hex="0119"/>
  <outline>
    <contour>
      <point x="68" y="221" type="line"/>
      <point x="68" y="252" type="line"/>
      <point x="467" y="252" type="line"/>
      <point x="476" y="221" type="line"/>
    </contour>
    <contour>
      <point x="440" y="252" type="line" smooth="yes"/>
      <point x="440" y="359"/>
      <point x="364" y="438"/>
      <point x="264" y="438" type="curve" smooth="yes"/>
      <point x="166" y="438"/>
      <point x="78" y="365"/>
      <point x="78" y="242" type="curve"/>
      <point x="77" y="231" type="line"/>
      <point x="77" y="109"/>
      <point x="152" y="23"/>
      <point x="261" y="23" type="curve" smooth="yes"/>
      <point x="360" y="23"/>
      <point x="411" y="76"/>
      <point x="442" y="126" type="curve"/>
      <point x="470" y="107" type="line"/>
      <point x="434" y="51"/>
      <point x="381" y="-10"/>
      <point x="258" y="-10" type="curve" smooth="yes"/>
      <point x="133" y="-10"/>
      <point x="41" y="92"/>
      <point x="41" y="231" type="curve" smooth="yes"/>
      <point x="41" y="254"/>
      <point x="43" y="277"/>
      <point x="49" y="298" type="curve" smooth="yes"/>
      <point x="73" y="400"/>
      <point x="155" y="470"/>
      <point x="264" y="470" type="curve" smooth="yes"/>
      <point x="381" y="470"/>
      <point x="478" y="379"/>
      <point x="478" y="247" type="curve" smooth="yes"/>
      <point x="478" y="239"/>
      <point x="477" y="229"/>
      <point x="476" y="221" type="curve"/>
      <point x="440" y="230" type="line"/>
    </contour>
    <contour>
      <point x="299" y="-165" type="curve"/>
      <point x="314" y="-187" type="line"/>
      <point x="299" y="-207"/>
      <point x="263" y="-227"/>
      <point x="220" y="-227" type="curve" smooth="yes"/>
      <point x="149" y="-227"/>
      <point x="110" y="-192"/>
      <point x="110" y="-139" type="curve"/>
      <point x="145" y="-132" type="line"/>
      <point x="145" y="-174"/>
      <point x="179" y="-195"/>
      <point x="222" y="-195" type="curve" smooth="yes"/>
      <point x="257" y="-195"/>
      <point x="285" y="-181"/>
    </contour>
    <contour>
      <point x="145" y="-132" type="curve"/>
      <point x="110" y="-139" type="line"/>
      <point x="110" y="-74"/>
      <point x="185" y="-28"/>
      <point x="255" y="8" type="curve"/>
      <point x="275" y="-8" type="line"/>
      <point x="213" y="-36"/>
      <point x="145" y="-82"/>
    </contour>
  </outline>
</glyph>
<glyph name="Gcircumflex" format="1">
  <advance width="768"/>
  <unicode hex="011C"/>
  <outline>
    <contour>
      <point x="415" y="310" type="line"/>
      <point x="415" y="345" type="line"/>
      <point x="717" y="345" type="line"/>
      <point x="691" y="310" type="line"/>
    </contour>
    <contour>
      <point x="717" y="345" type="line"/>
      <point x="717" y="157"/>
      <point x="593" y="-9"/>
      <point x="392" y="-9" type="curve" smooth="yes"/>
      <point x="194" y="-9"/>
      <point x="46" y="141"/>
      <point x="46" y="350" type="curve" smooth="yes"/>
      <point x="46" y="559"/>
      <point x="194" y="709"/>
      <point x="392" y="709" type="curve" smooth="yes"/>
      <point x="521" y="709"/>
      <point x="615" y="649"/>
      <point x="675" y="558" type="curve"/>
      <point x="647" y="534" type="line"/>
      <point x="599" y="614"/>
      <point x="509" y="671"/>
      <point x="392" y="671" type="curve" smooth="yes"/>
      <point x="217" y="671"/>
      <point x="86" y="539"/>
      <point x="86" y="350" type="curve" smooth="yes"/>
      <point x="86" y="163"/>
      <point x="216" y="29"/>
      <point x="392" y="29" type="curve" smooth="yes"/>
      <point x="573" y="29"/>
      <point x="680" y="178"/>
      <point x="680" y="342" type="curve"/>
    </contour>
    <contour>
      <point x="392" y="889" type="line"/>
      <point x="254" y="769" type="line"/>
      <point x="232" y="788" type="line"/>
      <point x="392" y="928" type="line"/>
      <point x="552" y="788" type="line"/>
      <point x="529" y="769" type="line"/>
    </contour>
  </outline>
</glyph>
<glyph name="Gdotaccent" format="1">
  <advance width="768"/>
  <unicode hex="0120"/>
  <outline>
    <contour>
      <point x="415" y="310" type="line"/>
      <point x="415" y="345" type="line"/>
      <point x="717" y="345" type="line"/>
      <point x="691" y="310" type="line"/>
    </contour>
    <contour>
      <point x="717" y="345" type="line"/>
      <point x="717" y="157"/>
      <point x="593" y="-9"/>
      <point x="392" y="-9" type="curve" smooth="yes"/>
      <point x="194" y="-9"/>
      <point x="46" y="141"/>
      <point x="46" y="350" type="curve" smooth="yes"/>
      <point x="46" y="559"/>
      <point x="194" y="709"/>
      <point x="392" y="709" type="curve" smooth="yes"/>
      <point x="521" y="709"/>
      <point x="615" y="649"/>
      <point x="675" y="558" type="curve"/>
      <point x="647" y="534" type="line"/>
      <point x="599" y="614"/>
      <point x="509" y="671"/>
      <point x="392" y="671" type="curve" smooth="yes"/>
      <point x="217" y="671"/>
      <point x="86" y="539"/>
      <point x="86" y="350" type="curve" smooth="yes"/>
      <point x="86" y="163"/>
      <point x="216" y="29"/>
      <point x="392" y="29" type="curve" smooth="yes"/>
      <point x="573" y="29"/>
      <point x="680" y="178"/>
      <point x="680" y="342" type="curve"/>
    </contour>
    <contour>
      <point x="365" y="796" type="curve" smooth="yes"/>
      <point x="365" y="811"/>
      <point x="378" y="822"/>
      <point x="392" y="822" type="curve" smooth="yes"/>
      <point x="406" y="822"/>
      <point x="418" y="811"/>
      <point x="418" y="796" type="curve" smooth="yes"/>
      <point x="418" y="781"/>
      <point x="406" y="769"/>
      <point x="392" y="769" type="curve" smooth="yes"/>
      <point x="378" y="769"/>
      <point x="365" y="781"/>
    </contour>
  </outline>
</glyph>
<glyph name="gdotaccent" format="1">
  <advance width="551"/>
  <unicode hex="0121"/>
  <outline>
    <contour>
      <point x="456" y="230" type="curve"/>
      <point x="440" y="230" type="line"/>
      <point x="440" y="349"/>
      <point x="353" y="437"/>
      <point x="270" y="437" type="curve" smooth="yes"/>
      <point x="156" y="437"/>
      <point x="77" y="355"/>
      <point x="77" y="230" type="curve"/>
      <point x="41" y="230" type="line"/>
      <point x="41" y="379"/>
      <point x="138" y="470"/>
      <point x="263" y="470" type="curve" smooth="yes"/>
      <point x="365" y="470"/>
      <point x="456" y="379"/>
    </contour>
    <contour>
      <point x="440" y="230" type="curve"/>
      <point x="456" y="230" type="line"/>
      <point x="456" y="81"/>
      <point x="365" y="-10"/>
      <point x="263" y="-10" type="curve" smooth="yes"/>
      <point x="138" y="-10"/>
      <point x="41" y="81"/>
      <point x="41" y="230" type="curve"/>
      <point x="77" y="230" type="line"/>
      <point x="77" y="105"/>
      <point x="156" y="23"/>
      <point x="270" y="23" type="curve" smooth="yes"/>
      <point x="353" y="23"/>
      <point x="440" y="111"/>
    </contour>
    <contour>
      <point x="54" y="-30" type="curve"/>
      <point x="90" y="-30" type="line"/>
      <point x="90" y="-128"/>
      <point x="158" y="-197"/>
      <point x="259" y="-197" type="curve" smooth="yes"/>
      <point x="353" y="-197"/>
      <point x="440" y="-131"/>
      <point x="440" y="10" type="curve" smooth="yes"/>
      <point x="440" y="460" type="line"/>
      <point x="475" y="460" type="line"/>
      <point x="475" y="10" type="line" smooth="yes"/>
      <point x="475" y="-149"/>
      <point x="374" y="-230"/>
      <point x="259" y="-230" type="curve" smooth="yes"/>
      <point x="137" y="-230"/>
      <point x="54" y="-149"/>
    </contour>
    <contour>
      <point x="233" y="557" type="curve" smooth="yes"/>
      <point x="233" y="572"/>
      <point x="246" y="584"/>
      <point x="260" y="584" type="curve" smooth="yes"/>
      <point x="274" y="584"/>
      <point x="286" y="572"/>
      <point x="286" y="557" type="curve" smooth="yes"/>
      <point x="286" y="542"/>
      <point x="274" y="530"/>
      <point x="260" y="530" type="curve" smooth="yes"/>
      <point x="246" y="530"/>
      <point x="233" y="542"/>
    </contour>
  </outline>
</glyph>
<glyph name="uni0122" format="1">
  <advance width="768"/>
  <unicode hex="0122"/>
  <outline>
    <contour>
      <point x="415" y="310" type="line"/>
      <point x="415" y="345" type="line"/>
      <point x="717" y="345" type="line"/>
      <point x="691" y="310" type="line"/>
    </contour>
    <contour>
      <point x="717" y="345" type="line"/>
      <point x="717" y="157"/>
      <point x="593" y="-9"/>
      <point x="392" y="-9" type="curve" smooth="yes"/>
      <point x="194" y="-9"/>
      <point x="46" y="141"/>
      <point x="46" y="350" type="curve" smooth="yes"/>
      <point x="46" y="559"/>
      <point x="194" y="709"/>
      <point x="392" y="709" type="curve" smooth="yes"/>
      <point x="521" y="709"/>
      <point x="615" y="649"/>
      <point x="675" y="558" type="curve"/>
      <point x="647" y="534" type="line"/>
      <point x="599" y="614"/>
      <point x="509" y="671"/>
      <point x="392" y="671" type="curve" smooth="yes"/>
      <point x="217" y="671"/>
      <point x="86" y="539"/>
      <point x="86" y="350" type="curve" smooth="yes"/>
      <point x="86" y="163"/>
      <point x="216" y="29"/>
      <point x="392" y="29" type="curve" smooth="yes"/>
      <point x="573" y="29"/>
      <point x="680" y="178"/>
      <point x="680" y="342" type="curve"/>
    </contour>
    <contour>
      <point x="423" y="-69" type="line"/>
      <point x="459" y="-83" type="line"/>
      <point x="349" y="-333" type="line"/>
      <point x="324" y="-324" type="line"/>
    </contour>
  </outline>
</glyph>
<glyph name="uni0123" format="1">
  <advance width="570"/>
  <unicode hex="0123"/>
  <outline>
    <contour>
      <point x="55" y="-30" type="curve"/>
      <point x="86" y="-30" type="line"/>
      <point x="86" y="-131"/>
      <point x="156" y="-200"/>
      <point x="258" y="-200" type="curve" smooth="yes"/>
      <point x="354" y="-200"/>
      <point x="442" y="-133"/>
      <point x="442" y="10" type="curve" smooth="yes"/>
      <point x="442" y="460" type="line"/>
      <point x="473" y="460" type="line"/>
      <point x="473" y="10" type="line" smooth="yes"/>
      <point x="473" y="-149"/>
      <point x="373" y="-230"/>
      <point x="258" y="-230" type="curve" smooth="yes"/>
      <point x="137" y="-230"/>
      <point x="55" y="-149"/>
    </contour>
    <contour>
      <point x="42" y="230" type="curve" smooth="yes"/>
      <point x="42" y="378"/>
      <point x="138" y="470"/>
      <point x="260" y="470" type="curve" smooth="yes"/>
      <point x="381" y="470"/>
      <point x="456" y="358"/>
      <point x="456" y="230" type="curve" smooth="yes"/>
      <point x="456" y="102"/>
      <point x="381" y="-10"/>
      <point x="260" y="-10" type="curve" smooth="yes"/>
      <point x="138" y="-10"/>
      <point x="42" y="82"/>
    </contour>
    <contour>
      <point x="73" y="230" type="curve" smooth="yes"/>
      <point x="73" y="100"/>
      <point x="158" y="20"/>
      <point x="265" y="20" type="curve" smooth="yes"/>
      <point x="363" y="20"/>
      <point x="442" y="118"/>
      <point x="442" y="234" type="curve" smooth="yes"/>
      <point x="442" y="340"/>
      <point x="363" y="440"/>
      <point x="265" y="440" type="curve" smooth="yes"/>
      <point x="158" y="440"/>
      <point x="73" y="360"/>
    </contour>
    <contour>
      <point x="265" y="560" type="line"/>
      <point x="236" y="577" type="line"/>
      <point x="383" y="807" type="line"/>
      <point x="403" y="796" type="line"/>
    </contour>
  </outline>
</glyph>
<glyph name="Itilde" format="1">
  <advance width="203"/>
  <unicode hex="0128"/>
  <outline>
    <contour>
      <point x="83" y="700" type="line"/>
      <point x="120" y="700" type="line"/>
      <point x="120" y="0" type="line"/>
      <point x="83" y="0" type="line"/>
    </contour>
    <contour>
      <point x="-31" y="823" type="line"/>
      <point x="-27" y="859"/>
      <point x="1" y="889"/>
      <point x="46" y="889" type="curve" smooth="yes"/>
      <point x="105" y="889"/>
      <point x="116" y="842"/>
      <point x="170" y="842" type="curve" smooth="yes"/>
      <point x="195" y="842"/>
      <point x="209" y="858"/>
      <point x="226" y="890" type="curve"/>
      <point x="248" y="873" type="line"/>
      <point x="232" y="836"/>
      <point x="205" y="812"/>
      <point x="168" y="812" type="curve" smooth="yes"/>
      <point x="113" y="812"/>
      <point x="92" y="859"/>
      <point x="47" y="859" type="curve" smooth="yes"/>
      <point x="6" y="859"/>
      <point x="-6" y="829"/>
      <point x="-6" y="808" type="curve"/>
    </contour>
  </outline>
</glyph>
<glyph name="itilde" format="1">
  <advance width="215"/>
  <unicode hex="0129"/>
  <outline>
    <contour>
      <point x="90" y="460" type="line"/>
      <point x="125" y="460" type="line"/>
      <point x="125" y="0" type="line"/>
      <point x="90" y="0" type="line"/>
    </contour>
    <contour>
      <point x="-24" y="583" type="line"/>
      <point x="-20" y="619"/>
      <point x="8" y="649"/>
      <point x="53" y="649" type="curve" smooth="yes"/>
      <point x="112" y="649"/>
      <point x="123" y="602"/>
      <point x="177" y="602" type="curve" smooth="yes"/>
      <point x="202" y="602"/>
      <point x="216" y="618"/>
      <point x="233" y="650" type="curve"/>
      <point x="255" y="633" type="line"/>
      <point x="239" y="596"/>
      <point x="212" y="572"/>
      <point x="175" y="572" type="curve" smooth="yes"/>
      <point x="120" y="572"/>
      <point x="99" y="619"/>
      <point x="54" y="619" type="curve" smooth="yes"/>
      <point x="13" y="619"/>
      <point x="1" y="589"/>
      <point x="1" y="568" type="curve"/>
    </contour>
  </outline>
</glyph>
<glyph name="ibreve" format="1">
  <advance width="215"/>
  <unicode hex="012D"/>
  <outline>
    <contour>
      <point x="90" y="460" type="line"/>
      <point x="125" y="460" type="line"/>
      <point x="125" y="0" type="line"/>
      <point x="90" y="0" type="line"/>
    </contour>
    <contour>
      <point x="-50" y="670" type="curve"/>
      <point x="-18" y="670" type="line"/>
      <point x="-18" y="618"/>
      <point x="24" y="560"/>
      <point x="108" y="560" type="curve" smooth="yes"/>
      <point x="192" y="560"/>
      <point x="233" y="618"/>
      <point x="233" y="670" type="curve"/>
      <point x="266" y="670" type="line"/>
      <point x="266" y="601"/>
      <point x="213" y="530"/>
      <point x="108" y="530" type="curve" smooth="yes"/>
      <point x="3" y="530"/>
      <point x="-50" y="601"/>
    </contour>
  </outline>
</glyph>
<glyph name="Idotaccent" format="1">
  <advance width="203"/>
  <unicode hex="0130"/>
  <outline>
    <contour>
      <point x="83" y="700" type="line"/>
      <point x="120" y="700" type="line"/>
      <point x="120" y="0" type="line"/>
      <point x="83" y="0" type="line"/>
    </contour>
    <contour>
      <point x="75" y="800" type="curve" smooth="yes"/>
      <point x="75" y="815"/>
      <point x="87" y="827"/>
      <point x="101" y="827" type="curve" smooth="yes"/>
      <point x="115" y="827"/>
      <point x="129" y="815"/>
      <point x="129" y="800" type="curve" smooth="yes"/>
      <point x="129" y="785"/>
      <point x="115" y="773"/>
      <point x="101" y="773" type="curve" smooth="yes"/>
      <point x="87" y="773"/>
      <point x="75" y="785"/>
    </contour>
  </outline>
</glyph>
<glyph name="dotlessi" format="1">
  <advance width="211"/>
  <unicode hex="0131"/>
  <outline>
    <contour>
      <point x="90" y="460" type="line"/>
      <point x="121" y="460" type="line"/>
      <point x="121" y="0" type="line"/>
      <point x="90" y="0" type="line"/>
    </contour>
  </outline>
</glyph>
<glyph name="IJ" format="1">
  <advance width="490"/>
  <unicode hex="0132"/>
  <outline>
    <contour>
      <point x="145" y="-139" type="line"/>
      <point x="165" y="-162"/>
      <point x="201" y="-184"/>
      <point x="243" y="-184" type="curve" smooth="yes"/>
      <point x="311" y="-184"/>
      <point x="340" y="-148"/>
      <point x="340" y="-50" type="curve" smooth="yes"/>
      <point x="340" y="700" type="line"/>
      <point x="376" y="700" type="line"/>
      <point x="376" y="-60" type="line" smooth="yes"/>
      <point x="376" y="-169"/>
      <point x="336" y="-220"/>
      <point x="242" y="-220" type="curve" smooth="yes"/>
      <point x="189" y="-220"/>
      <point x="139" y="-187"/>
      <point x="124" y="-167" type="curve"/>
    </contour>
    <contour>
      <point x="83" y="700" type="line"/>
      <point x="120" y="700" type="line"/>
      <point x="120" y="0" type="line"/>
      <point x="83" y="0" type="line"/>
    </contour>
  </outline>
</glyph>
<glyph name="jcircumflex" format="1">
  <advance width="205"/>
  <unicode hex="0135"/>
  <outline>
    <contour>
      <point x="-68" y="-146" type="line"/>
      <point x="-53" y="-167"/>
      <point x="-29" y="-185"/>
      <point x="0" y="-185" type="curve" smooth="yes"/>
      <point x="62" y="-185"/>
      <point x="80" y="-131"/>
      <point x="80" y="-71" type="curve" smooth="yes"/>
      <point x="80" y="460" type="line"/>
      <point x="115" y="460" type="line"/>
      <point x="115" y="-74" type="line" smooth="yes"/>
      <point x="115" y="-157"/>
      <point x="82" y="-220"/>
      <point x="-2" y="-220" type="curve" smooth="yes"/>
      <point x="-45" y="-220"/>
      <point x="-73" y="-195"/>
      <point x="-88" y="-175" type="curve"/>
    </contour>
    <contour>
      <point x="120" y="672" type="line"/>
      <point x="-17" y="551" type="line"/>
      <point x="-40" y="570" type="line"/>
      <point x="120" y="710" type="line"/>
      <point x="280" y="570" type="line"/>
      <point x="257" y="551" type="line"/>
    </contour>
  </outline>
</glyph>
<glyph name="uni0136" format="1">
  <advance width="493"/>
  <unicode hex="0136"/>
  <outline>
    <contour>
      <point x="83" y="700" type="line"/>
      <point x="121" y="700" type="line"/>
      <point x="121" y="0" type="line"/>
      <point x="83" y="0" type="line"/>
    </contour>
    <contour>
      <point x="419" y="700" type="line"/>
      <point x="468" y="700" type="line"/>
      <point x="157" y="372" type="line"/>
      <point x="483" y="0" type="line"/>
      <point x="434" y="0" type="line"/>
      <point x="110" y="371" type="line"/>
    </contour>
    <contour>
      <point x="341" y="-70" type="line"/>
      <point x="377" y="-84" type="line"/>
      <point x="267" y="-334" type="line"/>
      <point x="242" y="-325" type="line"/>
    </contour>
  </outline>
</glyph>
<glyph name="Lacute" format="1">
  <advance width="437"/>
  <unicode hex="0139"/>
  <outline>
    <contour>
      <point x="108" y="0" type="line"/>
      <point x="108" y="35" type="line"/>
      <point x="421" y="35" type="line"/>
      <point x="421" y="0" type="line"/>
    </contour>
    <contour>
      <point x="86" y="700" type="line"/>
      <point x="123" y="700" type="line"/>
      <point x="123" y="0" type="line"/>
      <point x="86" y="0" type="line"/>
    </contour>
    <contour>
      <point x="413" y="923" type="line"/>
      <point x="237" y="769" type="line"/>
      <point x="218" y="783" type="line"/>
      <point x="381" y="943" type="line"/>
    </contour>
  </outline>
</glyph>
<glyph name="lacute" format="1">
  <advance width="198"/>
  <unicode hex="013A"/>
  <outline>
    <contour>
      <point x="81" y="780" type="line"/>
      <point x="117" y="780" type="line"/>
      <point x="117" y="0" type="line"/>
      <point x="81" y="0" type="line"/>
    </contour>
    <contour>
      <point x="258" y="995" type="line"/>
      <point x="82" y="840" type="line"/>
      <point x="63" y="854" type="line"/>
      <point x="226" y="1014" type="line"/>
    </contour>
  </outline>
</glyph>
<glyph name="uni013C" format="1">
  <advance width="198"/>
  <unicode hex="013C"/>
  <outline>
    <contour>
      <point x="81" y="780" type="line"/>
      <point x="117" y="780" type="line"/>
      <point x="117" y="0" type="line"/>
      <point x="81" y="0" type="line"/>
    </contour>
    <contour>
      <point x="118" y="-60" type="line"/>
      <point x="154" y="-74" type="line"/>
      <point x="44" y="-324" type="line"/>
      <point x="19" y="-315" type="line"/>
    </contour>
  </outline>
</glyph>
<glyph name="Lcaron" format="1">
  <advance width="450"/>
  <unicode hex="013D"/>
  <outline>
    <contour>
      <point x="108" y="0" type="line"/>
      <point x="108" y="35" type="line"/>
      <point x="421" y="35" type="line"/>
      <point x="421" y="0" type="line"/>
    </contour>
    <contour>
      <point x="86" y="700" type="line"/>
      <point x="123" y="700" type="line"/>
      <point x="123" y="0" type="line"/>
      <point x="86" y="0" type="line"/>
    </contour>
    <contour>
      <point x="335" y="700" type="line"/>
      <point x="371" y="686" type="line"/>
      <point x="261" y="436" type="line"/>
      <point x="236" y="445" type="line"/>
    </contour>
  </outline>
</glyph>
<glyph name="Ldot" format="1">
  <advance width="437"/>
  <unicode hex="013F"/>
  <outline>
    <contour>
      <point x="108" y="0" type="line"/>
      <point x="108" y="35" type="line"/>
      <point x="421" y="35" type="line"/>
      <point x="421" y="0" type="line"/>
    </contour>
    <contour>
      <point x="86" y="700" type="line"/>
      <point x="123" y="700" type="line"/>
      <point x="123" y="0" type="line"/>
      <point x="86" y="0" type="line"/>
    </contour>
    <contour>
      <point x="275" y="403" type="curve" smooth="yes"/>
      <point x="275" y="418"/>
      <point x="287" y="430"/>
      <point x="301" y="430" type="curve" smooth="yes"/>
      <point x="315" y="430"/>
      <point x="328" y="418"/>
      <point x="328" y="403" type="curve" smooth="yes"/>
      <point x="328" y="388"/>
      <point x="315" y="376"/>
      <point x="301" y="376" type="curve" smooth="yes"/>
      <point x="287" y="376"/>
      <point x="275" y="388"/>
    </contour>
  </outline>
</glyph>
<glyph name="ldot" format="1">
  <advance width="370"/>
  <unicode hex="0140"/>
  <outline>
    <contour>
      <point x="81" y="780" type="line"/>
      <point x="117" y="780" type="line"/>
      <point x="117" y="0" type="line"/>
      <point x="81" y="0" type="line"/>
    </contour>
    <contour>
      <point x="225" y="403" type="curve" smooth="yes"/>
      <point x="225" y="418"/>
      <point x="237" y="430"/>
      <point x="251" y="430" type="curve" smooth="yes"/>
      <point x="265" y="430"/>
      <point x="278" y="418"/>
      <point x="278" y="403" type="curve" smooth="yes"/>
      <point x="278" y="388"/>
      <point x="265" y="376"/>
      <point x="251" y="376" type="curve" smooth="yes"/>
      <point x="237" y="376"/>
      <point x="225" y="388"/>
    </contour>
  </outline>
</glyph>
<glyph name="Lslash" format="1">
  <advance width="402"/>
  <unicode hex="0141"/>
  <outline>
    <contour>
      <point x="-4" y="370" type="line"/>
      <point x="-15" y="395" type="line"/>
      <point x="255" y="565" type="line"/>
      <point x="266" y="540" type="line"/>
    </contour>
    <contour>
      <point x="100" y="0" type="line"/>
      <point x="100" y="35" type="line"/>
      <point x="392" y="35" type="line"/>
      <point x="392" y="0" type="line"/>
    </contour>
    <contour>
      <point x="80" y="700" type="line"/>
      <point x="117" y="700" type="line"/>
      <point x="117" y="0" type="line"/>
      <point x="80" y="0" type="line"/>
    </contour>
  </outline>
</glyph>
<glyph name="Nacute" format="1">
  <advance width="704"/>
  <unicode hex="0143"/>
  <outline>
    <contour>
      <point x="69" y="652" type="line"/>
      <point x="61" y="722" type="line"/>
      <point x="622" y="45" type="line"/>
      <point x="631" y="-22" type="line"/>
    </contour>
    <contour>
      <point x="594" y="700" type="line"/>
      <point x="631" y="700" type="line"/>
      <point x="631" y="-22" type="line"/>
      <point x="594" y="38" type="line"/>
    </contour>
    <contour>
      <point x="61" y="722" type="line"/>
      <point x="98" y="659" type="line"/>
      <point x="98" y="0" type="line"/>
      <point x="61" y="0" type="line"/>
    </contour>
    <contour>
      <point x="482" y="913" type="line"/>
      <point x="307" y="759" type="line"/>
      <point x="288" y="773" type="line"/>
      <point x="450" y="933" type="line"/>
    </contour>
  </outline>
</glyph>
<glyph name="nacute" format="1">
  <advance width="493"/>
  <unicode hex="0144"/>
  <outline>
    <contour>
      <point x="117" y="460" type="line"/>
      <point x="117" y="0" type="line"/>
      <point x="81" y="0" type="line"/>
      <point x="81" y="460" type="line"/>
    </contour>
    <contour>
      <point x="376" y="306" type="line" smooth="yes"/>
      <point x="376" y="385"/>
      <point x="343" y="437"/>
      <point x="262" y="437" type="curve" smooth="yes"/>
      <point x="179" y="437"/>
      <point x="117" y="365"/>
      <point x="117" y="280" type="curve"/>
      <point x="100" y="280" type="line"/>
      <point x="100" y="389"/>
      <point x="175" y="470"/>
      <point x="270" y="470" type="curve" smooth="yes"/>
      <point x="365" y="470"/>
      <point x="412" y="409"/>
      <point x="412" y="309" type="curve" smooth="yes"/>
      <point x="412" y="0" type="line"/>
      <point x="376" y="0" type="line"/>
    </contour>
    <contour>
      <point x="386" y="691" type="line"/>
      <point x="211" y="536" type="line"/>
      <point x="192" y="550" type="line"/>
      <point x="355" y="710" type="line"/>
    </contour>
  </outline>
</glyph>
<glyph name="uni0146" format="1">
  <advance width="493"/>
  <unicode hex="0146"/>
  <outline>
    <contour>
      <point x="117" y="460" type="line"/>
      <point x="117" y="0" type="line"/>
      <point x="81" y="0" type="line"/>
      <point x="81" y="460" type="line"/>
    </contour>
    <contour>
      <point x="376" y="306" type="line" smooth="yes"/>
      <point x="376" y="385"/>
      <point x="343" y="437"/>
      <point x="262" y="437" type="curve" smooth="yes"/>
      <point x="179" y="437"/>
      <point x="117" y="365"/>
      <point x="117" y="280" type="curve"/>
      <point x="100" y="280" type="line"/>
      <point x="100" y="389"/>
      <point x="175" y="470"/>
      <point x="270" y="470" type="curve" smooth="yes"/>
      <point x="365" y="470"/>
      <point x="412" y="409"/>
      <point x="412" y="309" type="curve" smooth="yes"/>
      <point x="412" y="0" type="line"/>
      <point x="376" y="0" type="line"/>
    </contour>
    <contour>
      <point x="258" y="-47" type="line"/>
      <point x="295" y="-61" type="line"/>
      <point x="185" y="-311" type="line"/>
      <point x="160" y="-303" type="line"/>
    </contour>
  </outline>
</glyph>
<glyph name="Ncaron" format="1">
  <advance width="704"/>
  <unicode hex="0147"/>
  <outline>
    <contour>
      <point x="69" y="652" type="line"/>
      <point x="61" y="722" type="line"/>
      <point x="622" y="45" type="line"/>
      <point x="631" y="-22" type="line"/>
    </contour>
    <contour>
      <point x="594" y="700" type="line"/>
      <point x="631" y="700" type="line"/>
      <point x="631" y="-22" type="line"/>
      <point x="594" y="38" type="line"/>
    </contour>
    <contour>
      <point x="61" y="722" type="line"/>
      <point x="98" y="659" type="line"/>
      <point x="98" y="0" type="line"/>
      <point x="61" y="0" type="line"/>
    </contour>
    <contour>
      <point x="362" y="814" type="line"/>
      <point x="499" y="935" type="line"/>
      <point x="522" y="916" type="line"/>
      <point x="362" y="776" type="line"/>
      <point x="202" y="916" type="line"/>
      <point x="225" y="935" type="line"/>
    </contour>
  </outline>
</glyph>
<glyph name="ncaron" format="1">
  <advance width="493"/>
  <unicode hex="0148"/>
  <outline>
    <contour>
      <point x="117" y="460" type="line"/>
      <point x="117" y="0" type="line"/>
      <point x="81" y="0" type="line"/>
      <point x="81" y="460" type="line"/>
    </contour>
    <contour>
      <point x="376" y="306" type="line" smooth="yes"/>
      <point x="376" y="385"/>
      <point x="343" y="437"/>
      <point x="262" y="437" type="curve" smooth="yes"/>
      <point x="179" y="437"/>
      <point x="117" y="365"/>
      <point x="117" y="280" type="curve"/>
      <point x="100" y="280" type="line"/>
      <point x="100" y="389"/>
      <point x="175" y="470"/>
      <point x="270" y="470" type="curve" smooth="yes"/>
      <point x="365" y="470"/>
      <point x="412" y="409"/>
      <point x="412" y="309" type="curve" smooth="yes"/>
      <point x="412" y="0" type="line"/>
      <point x="376" y="0" type="line"/>
    </contour>
    <contour>
      <point x="246" y="568" type="line"/>
      <point x="383" y="689" type="line"/>
      <point x="406" y="670" type="line"/>
      <point x="246" y="530" type="line"/>
      <point x="86" y="670" type="line"/>
      <point x="110" y="689" type="line"/>
    </contour>
  </outline>
</glyph>
<glyph name="napostrophe" format="1">
  <advance width="622"/>
  <unicode hex="0149"/>
  <outline>
    <contour>
      <point x="214" y="460" type="line"/>
      <point x="214" y="0" type="line"/>
      <point x="179" y="0" type="line"/>
      <point x="179" y="460" type="line"/>
    </contour>
    <contour>
      <point x="474" y="306" type="line" smooth="yes"/>
      <point x="474" y="385"/>
      <point x="441" y="437"/>
      <point x="360" y="437" type="curve" smooth="yes"/>
      <point x="277" y="437"/>
      <point x="214" y="365"/>
      <point x="214" y="280" type="curve"/>
      <point x="197" y="280" type="line"/>
      <point x="197" y="389"/>
      <point x="272" y="470"/>
      <point x="367" y="470" type="curve" smooth="yes"/>
      <point x="462" y="470"/>
      <point x="509" y="409"/>
      <point x="509" y="309" type="curve" smooth="yes"/>
      <point x="509" y="0" type="line"/>
      <point x="474" y="0" type="line"/>
    </contour>
    <contour>
      <point x="157" y="700" type="line"/>
      <point x="199" y="700" type="line"/>
      <point x="103" y="470" type="line"/>
      <point x="76" y="470" type="line"/>
    </contour>
  </outline>
</glyph>
<glyph name="obreve" format="1">
  <advance width="552"/>
  <unicode hex="014F"/>
  <outline>
    <contour>
      <point x="41" y="230" type="curve" smooth="yes"/>
      <point x="41" y="369"/>
      <point x="143" y="470"/>
      <point x="276" y="470" type="curve" smooth="yes"/>
      <point x="409" y="470"/>
      <point x="511" y="369"/>
      <point x="511" y="230" type="curve" smooth="yes"/>
      <point x="511" y="91"/>
      <point x="409" y="-10"/>
      <point x="276" y="-10" type="curve" smooth="yes"/>
      <point x="143" y="-10"/>
      <point x="41" y="91"/>
    </contour>
    <contour>
      <point x="77" y="230" type="curve" smooth="yes"/>
      <point x="77" y="110"/>
      <point x="164" y="23"/>
      <point x="276" y="23" type="curve" smooth="yes"/>
      <point x="388" y="23"/>
      <point x="475" y="110"/>
      <point x="475" y="230" type="curve" smooth="yes"/>
      <point x="475" y="350"/>
      <point x="388" y="437"/>
      <point x="276" y="437" type="curve" smooth="yes"/>
      <point x="164" y="437"/>
      <point x="77" y="350"/>
    </contour>
    <contour>
      <point x="118" y="670" type="curve"/>
      <point x="150" y="670" type="line"/>
      <point x="150" y="618"/>
      <point x="192" y="560"/>
      <point x="276" y="560" type="curve" smooth="yes"/>
      <point x="360" y="560"/>
      <point x="402" y="618"/>
      <point x="402" y="670" type="curve"/>
      <point x="434" y="670" type="line"/>
      <point x="434" y="601"/>
      <point x="381" y="530"/>
      <point x="276" y="530" type="curve" smooth="yes"/>
      <point x="171" y="530"/>
      <point x="118" y="601"/>
    </contour>
  </outline>
</glyph>
<glyph name="OE" format="1">
  <advance width="963"/>
  <unicode hex="0152"/>
  <outline>
    <contour>
      <point x="533" y="369" type="line"/>
      <point x="533" y="404" type="line"/>
      <point x="866" y="404" type="line"/>
      <point x="866" y="369" type="line"/>
    </contour>
    <contour>
      <point x="515" y="686" type="line"/>
      <point x="552" y="686" type="line"/>
      <point x="552" y="14" type="line"/>
      <point x="515" y="14" type="line"/>
    </contour>
    <contour>
      <point x="887" y="35" type="line"/>
      <point x="887" y="0" type="line"/>
      <point x="390" y="0" type="line" smooth="yes"/>
      <point x="187" y="0"/>
      <point x="40" y="141"/>
      <point x="40" y="350" type="curve" smooth="yes"/>
      <point x="40" y="559"/>
      <point x="186" y="700"/>
      <point x="390" y="700" type="curve" smooth="yes"/>
      <point x="886" y="700" type="line"/>
      <point x="886" y="665" type="line"/>
      <point x="539" y="665" type="line"/>
      <point x="522" y="665" type="line"/>
      <point x="390" y="665" type="line" smooth="yes"/>
      <point x="210" y="665"/>
      <point x="77" y="535"/>
      <point x="77" y="350" type="curve" smooth="yes"/>
      <point x="77" y="165"/>
      <point x="211" y="35"/>
      <point x="390" y="35" type="curve" smooth="yes"/>
      <point x="519" y="35" type="line"/>
      <point x="543" y="35" type="line"/>
    </contour>
  </outline>
</glyph>
<glyph name="oe" format="1">
  <advance width="916"/>
  <unicode hex="0153"/>
  <outline>
    <contour>
      <point x="838" y="250" type="line" smooth="yes"/>
      <point x="838" y="349"/>
      <point x="770" y="438"/>
      <point x="661" y="438" type="curve" smooth="yes"/>
      <point x="549" y="438"/>
      <point x="474" y="347"/>
      <point x="474" y="242" type="curve"/>
      <point x="474" y="231" type="line"/>
      <point x="474" y="106"/>
      <point x="552" y="23"/>
      <point x="661" y="23" type="curve" smooth="yes"/>
      <point x="746" y="23"/>
      <point x="803" y="66"/>
      <point x="839" y="126" type="curve"/>
      <point x="867" y="107" type="line"/>
      <point x="821" y="37"/>
      <point x="760" y="-10"/>
      <point x="661" y="-10" type="curve" smooth="yes"/>
      <point x="530" y="-10"/>
      <point x="444" y="97"/>
      <point x="444" y="230" type="curve" smooth="yes"/>
      <point x="444" y="247"/>
      <point x="445" y="263"/>
      <point x="448" y="279" type="curve" smooth="yes"/>
      <point x="467" y="392"/>
      <point x="551" y="470"/>
      <point x="664" y="470" type="curve" smooth="yes"/>
      <point x="774" y="470"/>
      <point x="875" y="378"/>
      <point x="875" y="246" type="curve" smooth="yes"/>
      <point x="875" y="238"/>
      <point x="875" y="229"/>
      <point x="874" y="221" type="curve"/>
      <point x="837" y="230" type="line"/>
    </contour>
    <contour>
      <point x="465" y="221" type="line"/>
      <point x="465" y="252" type="line"/>
      <point x="866" y="252" type="line"/>
      <point x="874" y="221" type="line"/>
    </contour>
    <contour>
      <point x="41" y="230" type="curve" smooth="yes"/>
      <point x="41" y="379"/>
      <point x="138" y="470"/>
      <point x="257" y="470" type="curve" smooth="yes"/>
      <point x="369" y="470"/>
      <point x="461" y="379"/>
      <point x="461" y="230" type="curve" smooth="yes"/>
      <point x="461" y="81"/>
      <point x="369" y="-10"/>
      <point x="257" y="-10" type="curve" smooth="yes"/>
      <point x="138" y="-10"/>
      <point x="41" y="81"/>
    </contour>
    <contour>
      <point x="77" y="230" type="curve" smooth="yes"/>
      <point x="77" y="102"/>
      <point x="158" y="23"/>
      <point x="262" y="23" type="curve" smooth="yes"/>
      <point x="351" y="23"/>
      <point x="436" y="105"/>
      <point x="436" y="230" type="curve" smooth="yes"/>
      <point x="436" y="355"/>
      <point x="351" y="437"/>
      <point x="262" y="437" type="curve" smooth="yes"/>
      <point x="158" y="437"/>
      <point x="77" y="358"/>
    </contour>
  </outline>
</glyph>
<glyph name="Racute" format="1">
  <advance width="501"/>
  <unicode hex="0154"/>
  <outline>
    <contour>
      <point x="201" y="327" type="line"/>
      <point x="243" y="327" type="line"/>
      <point x="475" y="0" type="line"/>
      <point x="429" y="0" type="line"/>
    </contour>
    <contour>
      <point x="86" y="700" type="line"/>
      <point x="124" y="700" type="line"/>
      <point x="124" y="0" type="line"/>
      <point x="86" y="0" type="line"/>
    </contour>
    <contour>
      <point x="105" y="666" type="line"/>
      <point x="105" y="700" type="line"/>
      <point x="228" y="700" type="line" smooth="yes"/>
      <point x="363" y="700"/>
      <point x="465" y="630"/>
      <point x="465" y="501" type="curve" smooth="yes"/>
      <point x="465" y="372"/>
      <point x="363" y="302"/>
      <point x="228" y="302" type="curve" smooth="yes"/>
      <point x="105" y="302" type="line"/>
      <point x="105" y="335" type="line"/>
      <point x="228" y="335" type="line" smooth="yes"/>
      <point x="345" y="335"/>
      <point x="428" y="391"/>
      <point x="428" y="501" type="curve" smooth="yes"/>
      <point x="428" y="611"/>
      <point x="344" y="666"/>
      <point x="228" y="666" type="curve" smooth="yes"/>
    </contour>
    <contour>
      <point x="378" y="923" type="line"/>
      <point x="203" y="769" type="line"/>
      <point x="183" y="783" type="line"/>
      <point x="346" y="943" type="line"/>
    </contour>
  </outline>
</glyph>
<glyph name="racute" format="1">
  <advance width="308"/>
  <unicode hex="0155"/>
  <outline>
    <contour>
      <point x="117" y="460" type="line"/>
      <point x="117" y="0" type="line"/>
      <point x="81" y="0" type="line"/>
      <point x="81" y="460" type="line"/>
    </contour>
    <contour>
      <point x="278" y="415" type="line"/>
      <point x="259" y="428"/>
      <point x="241" y="437"/>
      <point x="219" y="437" type="curve" smooth="yes"/>
      <point x="146" y="437"/>
      <point x="117" y="365"/>
      <point x="117" y="280" type="curve"/>
      <point x="100" y="280" type="line"/>
      <point x="100" y="389"/>
      <point x="148" y="470"/>
      <point x="226" y="470" type="curve" smooth="yes"/>
      <point x="253" y="470"/>
      <point x="279" y="461"/>
      <point x="298" y="444" type="curve"/>
    </contour>
    <contour>
      <point x="323" y="685" type="line"/>
      <point x="147" y="530" type="line"/>
      <point x="128" y="544" type="line"/>
      <point x="291" y="704" type="line"/>
    </contour>
  </outline>
</glyph>
<glyph name="uni0156" format="1">
  <advance width="501"/>
  <unicode hex="0156"/>
  <outline>
    <contour>
      <point x="201" y="327" type="line"/>
      <point x="243" y="327" type="line"/>
      <point x="475" y="0" type="line"/>
      <point x="429" y="0" type="line"/>
    </contour>
    <contour>
      <point x="86" y="700" type="line"/>
      <point x="124" y="700" type="line"/>
      <point x="124" y="0" type="line"/>
      <point x="86" y="0" type="line"/>
    </contour>
    <contour>
      <point x="105" y="666" type="line"/>
      <point x="105" y="700" type="line"/>
      <point x="228" y="700" type="line" smooth="yes"/>
      <point x="363" y="700"/>
      <point x="465" y="630"/>
      <point x="465" y="501" type="curve" smooth="yes"/>
      <point x="465" y="372"/>
      <point x="363" y="302"/>
      <point x="228" y="302" type="curve" smooth="yes"/>
      <point x="105" y="302" type="line"/>
      <point x="105" y="335" type="line"/>
      <point x="228" y="335" type="line" smooth="yes"/>
      <point x="345" y="335"/>
      <point x="428" y="391"/>
      <point x="428" y="501" type="curve" smooth="yes"/>
      <point x="428" y="611"/>
      <point x="344" y="666"/>
      <point x="228" y="666" type="curve" smooth="yes"/>
    </contour>
    <contour>
      <point x="280" y="-60" type="line"/>
      <point x="316" y="-74" type="line"/>
      <point x="206" y="-324" type="line"/>
      <point x="182" y="-315" type="line"/>
    </contour>
  </outline>
</glyph>
<glyph name="rcaron" format="1">
  <advance width="308"/>
  <unicode hex="0159"/>
  <outline>
    <contour>
      <point x="117" y="460" type="line"/>
      <point x="117" y="0" type="line"/>
      <point x="81" y="0" type="line"/>
      <point x="81" y="460" type="line"/>
    </contour>
    <contour>
      <point x="278" y="415" type="line"/>
      <point x="259" y="428"/>
      <point x="241" y="437"/>
      <point x="219" y="437" type="curve" smooth="yes"/>
      <point x="146" y="437"/>
      <point x="117" y="365"/>
      <point x="117" y="280" type="curve"/>
      <point x="100" y="280" type="line"/>
      <point x="100" y="389"/>
      <point x="148" y="470"/>
      <point x="226" y="470" type="curve" smooth="yes"/>
      <point x="253" y="470"/>
      <point x="279" y="461"/>
      <point x="298" y="444" type="curve"/>
    </contour>
    <contour>
      <point x="190" y="568" type="line"/>
      <point x="326" y="689" type="line"/>
      <point x="350" y="670" type="line"/>
      <point x="190" y="530" type="line"/>
      <point x="30" y="670" type="line"/>
      <point x="53" y="689" type="line"/>
    </contour>
  </outline>
</glyph>
<glyph name="scedilla" format="1">
  <advance width="403"/>
  <unicode hex="015F"/>
  <outline>
    <contour>
      <point x="65" y="152" type="line"/>
      <point x="78" y="86"/>
      <point x="119" y="23"/>
      <point x="202" y="23" type="curve" smooth="yes"/>
      <point x="266" y="23"/>
      <point x="311" y="58"/>
      <point x="311" y="119" type="curve" smooth="yes"/>
      <point x="311" y="179"/>
      <point x="256" y="204"/>
      <point x="193" y="225" type="curve" smooth="yes"/>
      <point x="124" y="247"/>
      <point x="62" y="272"/>
      <point x="62" y="355" type="curve" smooth="yes"/>
      <point x="62" y="428"/>
      <point x="126" y="469"/>
      <point x="199" y="469" type="curve" smooth="yes"/>
      <point x="277" y="469"/>
      <point x="327" y="423"/>
      <point x="345" y="372" type="curve"/>
      <point x="315" y="355" type="line"/>
      <point x="296" y="397"/>
      <point x="258" y="435"/>
      <point x="199" y="435" type="curve" smooth="yes"/>
      <point x="143" y="435"/>
      <point x="97" y="409"/>
      <point x="97" y="354" type="curve" smooth="yes"/>
      <point x="97" y="289"/>
      <point x="156" y="271"/>
      <point x="219" y="250" type="curve" smooth="yes"/>
      <point x="284" y="228"/>
      <point x="347" y="192"/>
      <point x="347" y="122" type="curve" smooth="yes"/>
      <point x="347" y="36"/>
      <point x="286" y="-10"/>
      <point x="200" y="-10" type="curve" smooth="yes"/>
      <point x="102" y="-10"/>
      <point x="49" y="61"/>
      <point x="35" y="136" type="curve"/>
    </contour>
    <contour>
      <point x="200" y="19" type="line"/>
      <point x="230" y="19" type="line"/>
      <point x="170" y="-71" type="line"/>
      <point x="135" y="-98" type="line"/>
    </contour>
    <contour>
      <point x="292" y="-128" type="curve"/>
      <point x="265" y="-128" type="line"/>
      <point x="265" y="-91"/>
      <point x="238" y="-75"/>
      <point x="207" y="-75" type="curve" smooth="yes"/>
      <point x="184" y="-75"/>
      <point x="158" y="-82"/>
      <point x="135" y="-98" type="curve"/>
      <point x="156" y="-75" type="line"/>
      <point x="182" y="-59"/>
      <point x="193" y="-54"/>
      <point x="219" y="-54" type="curve" smooth="yes"/>
      <point x="252" y="-54"/>
      <point x="292" y="-79"/>
    </contour>
    <contour>
      <point x="292" y="-128" type="line"/>
      <point x="292" y="-189"/>
      <point x="240" y="-222"/>
      <point x="185" y="-222" type="curve" smooth="yes"/>
      <point x="148" y="-222"/>
      <point x="124" y="-212"/>
      <point x="96" y="-184" type="curve"/>
      <point x="112" y="-166" type="line"/>
      <point x="137" y="-187"/>
      <point x="154" y="-196"/>
      <point x="185" y="-196" type="curve" smooth="yes"/>
      <point x="227" y="-196"/>
      <point x="265" y="-173"/>
      <point x="265" y="-128" type="curve"/>
    </contour>
  </outline>
</glyph>
<glyph name="Tcaron" format="1">
  <advance width="441"/>
  <unicode hex="0164"/>
  <outline>
    <contour>
      <point x="17" y="668" type="line"/>
      <point x="17" y="700" type="line"/>
      <point x="424" y="700" type="line"/>
      <point x="424" y="668" type="line"/>
      <point x="237" y="668" type="line"/>
      <point x="237" y="0" type="line"/>
      <point x="204" y="0" type="line"/>
      <point x="204" y="668" type="line"/>
    </contour>
    <contour>
      <point x="220.5" y="802" type="line"/>
      <point x="359.5" y="926" type="line"/>
      <point x="380.5" y="908" type="line"/>
      <point x="220.5" y="768" type="line"/>
      <point x="60.5" y="908" type="line"/>
      <point x="81.5" y="926" type="line"/>
    </contour>
  </outline>
</glyph>
<glyph name="tcaron" format="1">
  <advance width="301"/>
  <unicode hex="0165"/>
  <outline>
    <contour>
      <point x="12" y="460" type="line"/>
      <point x="193" y="460" type="line"/>
      <point x="193" y="430" type="line"/>
      <point x="12" y="430" type="line"/>
    </contour>
    <contour>
      <point x="87" y="620" type="line"/>
      <point x="118" y="620" type="line"/>
      <point x="118" y="0" type="line"/>
      <point x="87" y="0" type="line"/>
    </contour>
    <contour>
      <point x="280" y="786" type="line"/>
      <point x="312" y="773" type="line"/>
      <point x="202" y="523" type="line"/>
      <point x="180" y="531" type="line"/>
    </contour>
  </outline>
</glyph>
<glyph name="Ubreve" format="1">
  <advance width="591"/>
  <unicode hex="016C"/>
  <outline>
    <contour>
      <point x="82" y="700" type="line"/>
      <point x="115" y="700" type="line"/>
      <point x="115" y="223" type="line" smooth="yes"/>
      <point x="115" y="99"/>
      <point x="182" y="22"/>
      <point x="296" y="22" type="curve" smooth="yes"/>
      <point x="410" y="22"/>
      <point x="476" y="99"/>
      <point x="476" y="223" type="curve" smooth="yes"/>
      <point x="476" y="700" type="line"/>
      <point x="509" y="700" type="line"/>
      <point x="509" y="223" type="line" smooth="yes"/>
      <point x="509" y="84"/>
      <point x="434" y="-10"/>
      <point x="296" y="-10" type="curve" smooth="yes"/>
      <point x="158" y="-10"/>
      <point x="82" y="84"/>
      <point x="82" y="223" type="curve" smooth="yes"/>
    </contour>
    <contour>
      <point x="138" y="909" type="curve"/>
      <point x="166" y="909" type="line"/>
      <point x="166" y="855"/>
      <point x="211" y="795"/>
      <point x="296" y="795" type="curve" smooth="yes"/>
      <point x="381" y="795"/>
      <point x="425" y="855"/>
      <point x="425" y="909" type="curve"/>
      <point x="454" y="909" type="line"/>
      <point x="454" y="840"/>
      <point x="401" y="769"/>
      <point x="296" y="769" type="curve" smooth="yes"/>
      <point x="191" y="769"/>
      <point x="138" y="840"/>
    </contour>
  </outline>
</glyph>
<glyph name="Wcircumflex" format="1">
  <advance width="962"/>
  <unicode hex="0174"/>
  <outline>
    <contour>
      <point x="696" y="71" type="line"/>
      <point x="909" y="700" type="line"/>
      <point x="945" y="700" type="line"/>
      <point x="698" y="-21" type="line"/>
      <point x="481" y="627" type="line"/>
      <point x="264" y="-21" type="line"/>
      <point x="17" y="700" type="line"/>
      <point x="53" y="700" type="line"/>
      <point x="266" y="71" type="line"/>
      <point x="481" y="721" type="line"/>
    </contour>
    <contour>
      <point x="481" y="904" type="line"/>
      <point x="341" y="781" type="line"/>
      <point x="321" y="798" type="line"/>
      <point x="481" y="938" type="line"/>
      <point x="641" y="798" type="line"/>
      <point x="621" y="781" type="line"/>
    </contour>
  </outline>
</glyph>
<glyph name="Ycircumflex" format="1">
  <advance width="523"/>
  <unicode hex="0176"/>
  <outline>
    <contour>
      <point x="474" y="700" type="line"/>
      <point x="511" y="700" type="line"/>
      <point x="275" y="278" type="line"/>
      <point x="275" y="0" type="line"/>
      <point x="242" y="0" type="line"/>
      <point x="242" y="276" type="line"/>
      <point x="12" y="700" type="line"/>
      <point x="50" y="700" type="line"/>
      <point x="258" y="310" type="line"/>
    </contour>
    <contour>
      <point x="262" y="892" type="line"/>
      <point x="122" y="769" type="line"/>
      <point x="102" y="786" type="line"/>
      <point x="262" y="926" type="line"/>
      <point x="422" y="786" type="line"/>
      <point x="402" y="769" type="line"/>
    </contour>
  </outline>
</glyph>
<glyph name="ycircumflex" format="1">
  <advance width="429"/>
  <unicode hex="0177"/>
  <outline>
    <contour>
      <point x="422" y="460" type="line"/>
      <point x="122" y="-220" type="line"/>
      <point x="88" y="-220" type="line"/>
      <point x="200" y="34" type="line"/>
      <point x="7" y="460" type="line"/>
      <point x="44" y="460" type="line"/>
      <point x="227" y="44" type="line"/>
      <point x="209" y="45" type="line"/>
      <point x="388" y="460" type="line"/>
    </contour>
    <contour>
      <point x="215" y="653" type="line"/>
      <point x="75" y="530" type="line"/>
      <point x="55" y="547" type="line"/>
      <point x="215" y="687" type="line"/>
      <point x="375" y="547" type="line"/>
      <point x="355" y="530" type="line"/>
    </contour>
  </outline>
</glyph>
<glyph name="Zcaron" format="1">
  <advance width="538"/>
  <unicode hex="017D"/>
  <outline>
    <contour>
      <point x="38" y="664" type="line"/>
      <point x="38" y="700" type="line"/>
      <point x="522" y="700" type="line"/>
      <point x="84" y="36" type="line"/>
      <point x="508" y="36" type="line"/>
      <point x="508" y="0" type="line"/>
      <point x="18" y="0" type="line"/>
      <point x="456" y="664" type="line"/>
    </contour>
    <contour>
      <point x="280" y="807" type="line"/>
      <point x="417" y="928" type="line"/>
      <point x="440" y="909" type="line"/>
      <point x="280" y="769" type="line"/>
      <point x="120" y="909" type="line"/>
      <point x="143" y="928" type="line"/>
    </contour>
  </outline>
</glyph>
<glyph name="zcaron" format="1">
  <advance width="440"/>
  <unicode hex="017E"/>
  <outline>
    <contour>
      <point x="57" y="33" type="line"/>
      <point x="415" y="33" type="line"/>
      <point x="415" y="0" type="line"/>
      <point x="18" y="0" type="line"/>
    </contour>
    <contour>
      <point x="42" y="460" type="line"/>
      <point x="416" y="460" type="line"/>
      <point x="381" y="427" type="line"/>
      <point x="42" y="427" type="line"/>
    </contour>
    <contour>
      <point x="376" y="460" type="line"/>
      <point x="416" y="460" type="line"/>
      <point x="59" y="0" type="line"/>
      <point x="18" y="0" type="line"/>
    </contour>
    <contour>
      <point x="245" y="568" type="line"/>
      <point x="382" y="689" type="line"/>
      <point x="405" y="670" type="line"/>
      <point x="245" y="530" type="line"/>
      <point x="85" y="670" type="line"/>
      <point x="108" y="689" type="line"/>
    </contour>
  </outline>
</glyph>
<glyph name="uni0212" format="1">
  <advance width="501"/>
  <unicode hex="0212"/>
  <outline>
    <contour>
      <point x="201" y="327" type="line"/>
      <point x="243" y="327" type="line"/>
      <point x="475" y="0" type="line"/>
      <point x="429" y="0" type="line"/>
    </contour>
    <contour>
      <point x="86" y="700" type="line"/>
      <point x="124" y="700" type="line"/>
      <point x="124" y="0" type="line"/>
      <point x="86" y="0" type="line"/>
    </contour>
    <contour>
      <point x="105" y="666" type="line"/>
      <point x="105" y="700" type="line"/>
      <point x="228" y="700" type="line" smooth="yes"/>
      <point x="363" y="700"/>
      <point x="465" y="630"/>
      <point x="465" y="501" type="curve" smooth="yes"/>
      <point x="465" y="372"/>
      <point x="363" y="302"/>
      <point x="228" y="302" type="curve" smooth="yes"/>
      <point x="105" y="302" type="line"/>
      <point x="105" y="335" type="line"/>
      <point x="228" y="335" type="line" smooth="yes"/>
      <point x="345" y="335"/>
      <point x="428" y="391"/>
      <point x="428" y="501" type="curve" smooth="yes"/>
      <point x="428" y="611"/>
      <point x="344" y="666"/>
      <point x="228" y="666" type="curve" smooth="yes"/>
    </contour>
    <contour>
      <point x="106" y="769" type="curve"/>
      <point x="138" y="769" type="line"/>
      <point x="138" y="821"/>
      <point x="180" y="879"/>
      <point x="264" y="879" type="curve" smooth="yes"/>
      <point x="348" y="879"/>
      <point x="390" y="821"/>
      <point x="390" y="769" type="curve"/>
      <point x="422" y="769" type="line"/>
      <point x="422" y="838"/>
      <point x="369" y="909"/>
      <point x="264" y="909" type="curve" smooth="yes"/>
      <point x="159" y="909"/>
      <point x="106" y="838"/>
    </contour>
  </outline>
</glyph>
<glyph name="caron" format="1">
  <advance width="480"/>
  <unicode hex="02C7"/>
  <outline>
    <contour>
      <point x="240" y="608" type="line"/>
      <point x="377" y="729" type="line"/>
      <point x="400" y="710" type="line"/>
      <point x="240" y="570" type="line"/>
      <point x="80" y="710" type="line"/>
      <point x="103" y="729" type="line"/>
    </contour>
  </outline>
</glyph>
<glyph name="breve" format="1">
  <advance width="546"/>
  <unicode hex="02D8"/>
  <outline>
    <contour>
      <point x="115" y="850" type="curve"/>
      <point x="147" y="850" type="line"/>
      <point x="147" y="798"/>
      <point x="189" y="740"/>
      <point x="273" y="740" type="curve" smooth="yes"/>
      <point x="357" y="740"/>
      <point x="399" y="798"/>
      <point x="399" y="850" type="curve"/>
      <point x="431" y="850" type="line"/>
      <point x="431" y="781"/>
      <point x="378" y="710"/>
      <point x="273" y="710" type="curve" smooth="yes"/>
      <point x="168" y="710"/>
      <point x="115" y="781"/>
    </contour>
  </outline>
</glyph>
<glyph name="ring" format="1">
  <advance width="278"/>
  <unicode hex="02DA"/>
  <outline>
    <contour>
      <point x="37" y="785" type="curve" smooth="yes"/>
      <point x="37" y="845"/>
      <point x="87" y="885"/>
      <point x="139" y="885" type="curve" smooth="yes"/>
      <point x="191" y="885"/>
      <point x="241" y="845"/>
      <point x="241" y="785" type="curve" smooth="yes"/>
      <point x="241" y="725"/>
      <point x="191" y="685"/>
      <point x="139" y="685" type="curve" smooth="yes"/>
      <point x="87" y="685"/>
      <point x="37" y="725"/>
    </contour>
    <contour>
      <point x="62" y="785" type="curve" smooth="yes"/>
      <point x="62" y="739"/>
      <point x="99" y="708"/>
      <point x="139" y="708" type="curve" smooth="yes"/>
      <point x="179" y="708"/>
      <point x="216" y="739"/>
      <point x="216" y="785" type="curve" smooth="yes"/>
      <point x="216" y="831"/>
      <point x="179" y="862"/>
      <point x="139" y="862" type="curve" smooth="yes"/>
      <point x="99" y="862"/>
      <point x="62" y="831"/>
    </contour>
  </outline>
</glyph>
<glyph name="tilde" format="1">
  <advance width="530"/>
  <unicode hex="02DC"/>
  <outline>
    <contour>
      <point x="127" y="641" type="line"/>
      <point x="131" y="677"/>
      <point x="159" y="707"/>
      <point x="204" y="707" type="curve" smooth="yes"/>
      <point x="263" y="707"/>
      <point x="274" y="660"/>
      <point x="328" y="660" type="curve" smooth="yes"/>
      <point x="353" y="660"/>
      <point x="367" y="676"/>
      <point x="384" y="708" type="curve"/>
      <point x="406" y="691" type="line"/>
      <point x="390" y="654"/>
      <point x="363" y="630"/>
      <point x="326" y="630" type="curve" smooth="yes"/>
      <point x="271" y="630"/>
      <point x="250" y="677"/>
      <point x="205" y="677" type="curve" smooth="yes"/>
      <point x="164" y="677"/>
      <point x="152" y="647"/>
      <point x="152" y="626" type="curve"/>
    </contour>
  </outline>
</glyph>
<glyph name="pi" format="1">
  <advance width="495"/>
  <unicode hex="03C0"/>
  <outline>
    <contour>
      <point x="90" y="443" type="line"/>
      <point x="125" y="443" type="line"/>
      <point x="125" y="0" type="line"/>
      <point x="90" y="0" type="line"/>
    </contour>
    <contour>
      <point x="30" y="460" type="line"/>
      <point x="455" y="460" type="line"/>
      <point x="455" y="427" type="line"/>
      <point x="30" y="427" type="line"/>
    </contour>
    <contour>
      <point x="340" y="443" type="line"/>
      <point x="375" y="443" type="line"/>
      <point x="375" y="128" type="line" smooth="yes"/>
      <point x="375" y="43"/>
      <point x="385" y="26"/>
      <point x="428" y="26" type="curve"/>
      <point x="428" y="-9" type="line"/>
      <point x="363" y="-9"/>
      <point x="340" y="12"/>
      <point x="340" y="121" type="curve" smooth="yes"/>
    </contour>
  </outline>
</glyph>
<glyph name="uni040D" format="1">
  <advance width="740"/>
  <unicode hex="040D"/>
  <outline>
    <contour>
      <point x="652" y="683" type="line"/>
      <point x="87" y="-35" type="line"/>
      <point x="88" y="17" type="line"/>
      <point x="653" y="735" type="line"/>
    </contour>
    <contour>
      <point x="120" y="700" type="line"/>
      <point x="120" y="13" type="line"/>
      <point x="87" y="-35" type="line"/>
      <point x="87" y="700" type="line"/>
    </contour>
    <contour>
      <point x="653" y="735" type="line"/>
      <point x="653" y="0" type="line"/>
      <point x="620" y="0" type="line"/>
      <point x="620" y="688" type="line"/>
    </contour>
    <contour>
      <point x="210" y="917" type="line"/>
      <point x="238" y="935" type="line"/>
      <point x="402" y="775" type="line"/>
      <point x="385" y="762" type="line"/>
    </contour>
  </outline>
</glyph>
<glyph name="uni0415" format="1">
  <advance width="550"/>
  <unicode hex="0415"/>
  <outline>
    <contour>
      <point x="102" y="0" type="line"/>
      <point x="102" y="31" type="line"/>
      <point x="445" y="31" type="line"/>
      <point x="445" y="0" type="line"/>
    </contour>
    <contour>
      <point x="102" y="669" type="line"/>
      <point x="102" y="700" type="line"/>
      <point x="445" y="700" type="line"/>
      <point x="445" y="669" type="line"/>
    </contour>
    <contour>
      <point x="102" y="371" type="line"/>
      <point x="102" y="402" type="line"/>
      <point x="425" y="402" type="line"/>
      <point x="425" y="371" type="line"/>
    </contour>
    <contour>
      <point x="87" y="700" type="line"/>
      <point x="120" y="700" type="line"/>
      <point x="120" y="0" type="line"/>
      <point x="87" y="0" type="line"/>
    </contour>
  </outline>
</glyph>
<glyph name="uni0417" format="1">
  <advance width="606"/>
  <unicode hex="0417"/>
  <outline>
    <contour>
      <point x="283" y="356" type="curve"/>
      <point x="283" y="377" type="line"/>
      <point x="415" y="377"/>
      <point x="508" y="436"/>
      <point x="508" y="523" type="curve" smooth="yes"/>
      <point x="508" y="610"/>
      <point x="435" y="680"/>
      <point x="317" y="680" type="curve" smooth="yes"/>
      <point x="199" y="680"/>
      <point x="121" y="615"/>
      <point x="121" y="526" type="curve"/>
      <point x="90" y="526" type="line"/>
      <point x="90" y="635"/>
      <point x="182" y="710"/>
      <point x="317" y="710" type="curve" smooth="yes"/>
      <point x="457" y="710"/>
      <point x="541" y="623"/>
      <point x="541" y="524" type="curve" smooth="yes"/>
      <point x="541" y="425"/>
      <point x="438" y="356"/>
    </contour>
    <contour>
      <point x="313" y="-10" type="curve" smooth="yes"/>
      <point x="148" y="-10"/>
      <point x="60" y="76"/>
      <point x="60" y="185" type="curve"/>
      <point x="93" y="185" type="line"/>
      <point x="95" y="91"/>
      <point x="171" y="21"/>
      <point x="313" y="21" type="curve" smooth="yes"/>
      <point x="451" y="21"/>
      <point x="528" y="89"/>
      <point x="528" y="188" type="curve" smooth="yes"/>
      <point x="528" y="308"/>
      <point x="415" y="347"/>
      <point x="283" y="347" type="curve"/>
      <point x="283" y="370" type="line"/>
      <point x="438" y="370"/>
      <point x="561" y="324"/>
      <point x="561" y="185" type="curve" smooth="yes"/>
      <point x="561" y="66"/>
      <point x="468" y="-10"/>
    </contour>
  </outline>
</glyph>
<glyph name="uni0418" format="1">
  <advance width="740"/>
  <unicode hex="0418"/>
  <outline>
    <contour>
      <point x="652" y="683" type="line"/>
      <point x="87" y="-35" type="line"/>
      <point x="88" y="17" type="line"/>
      <point x="653" y="735" type="line"/>
    </contour>
    <contour>
      <point x="120" y="700" type="line"/>
      <point x="120" y="13" type="line"/>
      <point x="87" y="-35" type="line"/>
      <point x="87" y="700" type="line"/>
    </contour>
    <contour>
      <point x="653" y="735" type="line"/>
      <point x="653" y="0" type="line"/>
      <point x="620" y="0" type="line"/>
      <point x="620" y="688" type="line"/>
    </contour>
  </outline>
</glyph>
<glyph name="uni0424" format="1">
  <advance width="745"/>
  <unicode hex="0424"/>
  <outline>
    <contour>
      <point x="357" y="700" type="line"/>
      <point x="389" y="700" type="line"/>
      <point x="389" y="0" type="line"/>
      <point x="357" y="0" type="line"/>
    </contour>
    <contour>
      <point x="673" y="350" type="curve" smooth="yes"/>
      <point x="673" y="501"/>
      <point x="552" y="587"/>
      <point x="386" y="587" type="curve" smooth="yes"/>
      <point x="360" y="587" type="line" smooth="yes"/>
      <point x="194" y="587"/>
      <point x="72" y="501"/>
      <point x="72" y="350" type="curve" smooth="yes"/>
      <point x="72" y="199"/>
      <point x="194" y="112"/>
      <point x="360" y="112" type="curve" smooth="yes"/>
      <point x="386" y="112" type="line" smooth="yes"/>
      <point x="552" y="112"/>
      <point x="673" y="199"/>
    </contour>
    <contour>
      <point x="706" y="350" type="curve" smooth="yes"/>
      <point x="706" y="181"/>
      <point x="570" y="80"/>
      <point x="386" y="80" type="curve" smooth="yes"/>
      <point x="360" y="80" type="line" smooth="yes"/>
      <point x="176" y="80"/>
      <point x="40" y="181"/>
      <point x="40" y="350" type="curve" smooth="yes"/>
      <point x="40" y="519"/>
      <point x="176" y="620"/>
      <point x="360" y="620" type="curve" smooth="yes"/>
      <point x="386" y="620" type="line" smooth="yes"/>
      <point x="570" y="620"/>
      <point x="706" y="519"/>
    </contour>
  </outline>
</glyph>
<glyph name="uni042A" format="1">
  <advance width="628"/>
  <unicode hex="042A"/>
  <outline>
    <contour>
      <point x="208" y="389" type="line"/>
      <point x="208" y="420" type="line"/>
      <point x="351" y="420" type="line" smooth="yes"/>
      <point x="486" y="420"/>
      <point x="589" y="339"/>
      <point x="589" y="210" type="curve" smooth="yes"/>
      <point x="589" y="81"/>
      <point x="486" y="0"/>
      <point x="351" y="0" type="curve" smooth="yes"/>
      <point x="208" y="0" type="line"/>
      <point x="208" y="31" type="line"/>
      <point x="351" y="31" type="line" smooth="yes"/>
      <point x="469" y="31"/>
      <point x="556" y="100"/>
      <point x="556" y="210" type="curve" smooth="yes"/>
      <point x="556" y="320"/>
      <point x="469" y="389"/>
      <point x="351" y="389" type="curve" smooth="yes"/>
    </contour>
    <contour>
      <point x="190" y="669" type="line"/>
      <point x="10" y="669" type="line"/>
      <point x="10" y="700" type="line"/>
      <point x="222" y="700" type="line"/>
      <point x="222" y="0" type="line"/>
      <point x="190" y="0" type="line"/>
    </contour>
  </outline>
</glyph>
<glyph name="uni042B" format="1">
  <advance width="709"/>
  <unicode hex="042B"/>
  <outline>
    <contour>
      <point x="593" y="700" type="line"/>
      <point x="626" y="700" type="line"/>
      <point x="626" y="0" type="line"/>
      <point x="593" y="0" type="line"/>
    </contour>
    <contour>
      <point x="76" y="700" type="line"/>
      <point x="109" y="700" type="line"/>
      <point x="109" y="0" type="line"/>
      <point x="76" y="0" type="line"/>
    </contour>
    <contour>
      <point x="94" y="389" type="line"/>
      <point x="94" y="420" type="line"/>
      <point x="237" y="420" type="line" smooth="yes"/>
      <point x="372" y="420"/>
      <point x="475" y="339"/>
      <point x="475" y="210" type="curve" smooth="yes"/>
      <point x="475" y="81"/>
      <point x="372" y="0"/>
      <point x="237" y="0" type="curve" smooth="yes"/>
      <point x="94" y="0" type="line"/>
      <point x="94" y="31" type="line"/>
      <point x="237" y="31" type="line" smooth="yes"/>
      <point x="355" y="31"/>
      <point x="443" y="100"/>
      <point x="443" y="210" type="curve" smooth="yes"/>
      <point x="443" y="320"/>
      <point x="355" y="389"/>
      <point x="237" y="389" type="curve" smooth="yes"/>
    </contour>
  </outline>
</glyph>
<glyph name="uni042F" format="1">
  <advance width="495"/>
  <unicode hex="042F"/>
  <outline>
    <contour>
      <point x="295" y="325" type="line"/>
      <point x="69" y="0" type="line"/>
      <point x="28" y="0" type="line"/>
      <point x="258" y="325" type="line"/>
    </contour>
    <contour>
      <point x="409" y="700" type="line"/>
      <point x="409" y="0" type="line"/>
      <point x="375" y="0" type="line"/>
      <point x="375" y="700" type="line"/>
    </contour>
    <contour>
      <point x="393" y="670" type="line"/>
      <point x="271" y="670" type="line" smooth="yes"/>
      <point x="152" y="670"/>
      <point x="68" y="614"/>
      <point x="68" y="502" type="curve" smooth="yes"/>
      <point x="68" y="390"/>
      <point x="152" y="333"/>
      <point x="271" y="333" type="curve" smooth="yes"/>
      <point x="393" y="333" type="line"/>
      <point x="393" y="304" type="line"/>
      <point x="271" y="304" type="line" smooth="yes"/>
      <point x="136" y="304"/>
      <point x="34" y="373"/>
      <point x="34" y="502" type="curve" smooth="yes"/>
      <point x="34" y="631"/>
      <point x="136" y="700"/>
      <point x="271" y="700" type="curve" smooth="yes"/>
      <point x="393" y="700" type="line"/>
    </contour>
  </outline>
</glyph>
<glyph name="uni0433" format="1">
  <advance width="309"/>
  <unicode hex="0433"/>
  <outline>
    <contour>
      <point x="80" y="460" type="line"/>
      <point x="304" y="460" type="line"/>
      <point x="304" y="430" type="line"/>
      <point x="111" y="430" type="line"/>
      <point x="111" y="0" type="line"/>
      <point x="80" y="0" type="line"/>
    </contour>
  </outline>
</glyph>
<glyph name="uni0436" format="1">
  <advance width="520"/>
  <unicode hex="0436"/>
  <outline>
    <contour>
      <point x="454" y="460" type="line"/>
      <point x="493" y="460" type="line"/>
      <point x="304" y="266" type="line"/>
      <point x="513" y="0" type="line"/>
      <point x="474" y="0" type="line"/>
      <point x="268" y="270" type="line"/>
    </contour>
    <contour>
      <point x="275" y="460" type="line"/>
      <point x="275" y="0" type="line"/>
      <point x="245" y="0" type="line"/>
      <point x="245" y="460" type="line"/>
    </contour>
    <contour>
      <point x="66" y="460" type="line"/>
      <point x="253" y="270" type="line"/>
      <point x="46" y="0" type="line"/>
      <point x="7" y="0" type="line"/>
      <point x="217" y="266" type="line"/>
      <point x="27" y="460" type="line"/>
    </contour>
  </outline>
</glyph>
<glyph name="uni043B" format="1">
  <advance width="509"/>
  <unicode hex="043B"/>
  <outline>
    <contour>
      <point x="429" y="460" type="line"/>
      <point x="429" y="0" type="line"/>
      <point x="398" y="0" type="line"/>
      <point x="398" y="430" type="line"/>
      <point x="114" y="430" type="line"/>
      <point x="114" y="160" type="line" smooth="yes"/>
      <point x="114" y="51"/>
      <point x="72" y="0"/>
      <point x="10" y="0" type="curve"/>
      <point x="10" y="29" type="line"/>
      <point x="50" y="29"/>
      <point x="83" y="73"/>
      <point x="83" y="160" type="curve" smooth="yes"/>
      <point x="83" y="460" type="line"/>
    </contour>
  </outline>
</glyph>
<glyph name="uni043C" format="1">
  <advance width="607"/>
  <unicode hex="043C"/>
  <outline>
    <contour>
      <point x="567" y="0" type="line"/>
      <point x="467" y="427" type="line"/>
      <point x="482" y="495" type="line"/>
      <point x="602" y="0" type="line"/>
    </contour>
    <contour>
      <point x="293" y="27" type="line"/>
      <point x="482" y="495" type="line"/>
      <point x="484" y="418" type="line"/>
      <point x="302" y="-31" type="line"/>
    </contour>
    <contour>
      <point x="302" y="-31" type="line"/>
      <point x="123" y="418" type="line"/>
      <point x="125" y="495" type="line"/>
      <point x="311" y="27" type="line"/>
    </contour>
    <contour>
      <point x="5" y="0" type="line"/>
      <point x="125" y="495" type="line"/>
      <point x="140" y="427" type="line"/>
      <point x="42" y="0" type="line"/>
    </contour>
  </outline>
</glyph>
<glyph name="uni043D" format="1">
  <advance width="516"/>
  <unicode hex="043D"/>
  <outline>
    <contour>
      <point x="94" y="230" type="line"/>
      <point x="94" y="259" type="line"/>
      <point x="427" y="259" type="line"/>
      <point x="427" y="230" type="line"/>
    </contour>
    <contour>
      <point x="410" y="460" type="line"/>
      <point x="441" y="460" type="line"/>
      <point x="441" y="0" type="line"/>
      <point x="410" y="0" type="line"/>
    </contour>
    <contour>
      <point x="75" y="460" type="line"/>
      <point x="106" y="460" type="line"/>
      <point x="106" y="0" type="line"/>
      <point x="75" y="0" type="line"/>
    </contour>
  </outline>
</glyph>
<glyph name="uni043E" format="1">
  <advance width="546"/>
  <unicode hex="043E"/>
  <outline>
    <contour>
      <point x="42" y="230" type="curve" smooth="yes"/>
      <point x="42" y="369"/>
      <point x="143" y="470"/>
      <point x="276" y="470" type="curve" smooth="yes"/>
      <point x="409" y="470"/>
      <point x="511" y="369"/>
      <point x="511" y="230" type="curve" smooth="yes"/>
      <point x="511" y="91"/>
      <point x="409" y="-10"/>
      <point x="276" y="-10" type="curve" smooth="yes"/>
      <point x="143" y="-10"/>
      <point x="42" y="91"/>
    </contour>
    <contour>
      <point x="73" y="230" type="curve" smooth="yes"/>
      <point x="73" y="107"/>
      <point x="162" y="20"/>
      <point x="276" y="20" type="curve" smooth="yes"/>
      <point x="390" y="20"/>
      <point x="480" y="107"/>
      <point x="480" y="230" type="curve" smooth="yes"/>
      <point x="480" y="353"/>
      <point x="390" y="440"/>
      <point x="276" y="440" type="curve" smooth="yes"/>
      <point x="162" y="440"/>
      <point x="73" y="353"/>
    </contour>
  </outline>
</glyph>
<glyph name="uni043F" format="1">
  <advance width="476"/>
  <unicode hex="043F"/>
  <outline>
    <contour>
      <point x="401" y="460" type="line"/>
      <point x="401" y="0" type="line"/>
      <point x="370" y="0" type="line"/>
      <point x="370" y="430" type="line"/>
      <point x="106" y="430" type="line"/>
      <point x="106" y="0" type="line"/>
      <point x="75" y="0" type="line"/>
      <point x="75" y="460" type="line"/>
    </contour>
  </outline>
</glyph>
<glyph name="uni0443" format="1">
  <advance width="440"/>
  <unicode hex="0443"/>
  <outline>
    <contour>
      <point x="422" y="460" type="line"/>
      <point x="122" y="-220" type="line"/>
      <point x="88" y="-220" type="line"/>
      <point x="200" y="34" type="line"/>
      <point x="7" y="460" type="line"/>
      <point x="44" y="460" type="line"/>
      <point x="227" y="44" type="line"/>
      <point x="209" y="45" type="line"/>
      <point x="388" y="460" type="line"/>
    </contour>
  </outline>
</glyph>
<glyph name="uni0446" format="1">
  <advance width="516"/>
  <unicode hex="0446"/>
  <outline>
    <contour>
      <point x="401" y="30" type="line"/>
      <point x="481" y="30" type="line"/>
      <point x="481" y="-90" type="line"/>
      <point x="453" y="-90" type="line"/>
      <point x="453" y="0" type="line"/>
      <point x="75" y="0" type="line"/>
      <point x="75" y="460" type="line"/>
      <point x="106" y="460" type="line"/>
      <point x="106" y="30" type="line"/>
      <point x="370" y="30" type="line"/>
      <point x="370" y="460" type="line"/>
      <point x="401" y="460" type="line"/>
    </contour>
  </outline>
</glyph>
<glyph name="uni0448" format="1">
  <advance width="731"/>
  <unicode hex="0448"/>
  <outline>
    <contour>
      <point x="381" y="30" type="line"/>
      <point x="625" y="30" type="line"/>
      <point x="625" y="460" type="line"/>
      <point x="656" y="460" type="line"/>
      <point x="656" y="0" type="line"/>
      <point x="75" y="0" type="line"/>
      <point x="75" y="460" type="line"/>
      <point x="106" y="460" type="line"/>
      <point x="106" y="30" type="line"/>
      <point x="350" y="30" type="line"/>
      <point x="350" y="460" type="line"/>
      <point x="381" y="460" type="line"/>
    </contour>
  </outline>
</glyph>
<glyph name="uni044D" format="1">
  <advance width="485"/>
  <unicode hex="044D"/>
  <outline>
    <contour>
      <point x="137" y="245" type="line"/>
      <point x="440" y="245" type="line"/>
      <point x="419" y="215" type="line"/>
      <point x="137" y="215" type="line"/>
    </contour>
    <contour>
      <point x="417" y="230" type="curve" smooth="yes"/>
      <point x="417" y="353"/>
      <point x="328" y="440"/>
      <point x="214" y="440" type="curve" smooth="yes"/>
      <point x="140" y="440"/>
      <point x="78" y="403"/>
      <point x="57" y="373" type="curve"/>
      <point x="57" y="412" type="line"/>
      <point x="82" y="440"/>
      <point x="144" y="470"/>
      <point x="214" y="470" type="curve" smooth="yes"/>
      <point x="347" y="470"/>
      <point x="448" y="369"/>
      <point x="448" y="230" type="curve" smooth="yes"/>
      <point x="448" y="91"/>
      <point x="347" y="-10"/>
      <point x="214" y="-10" type="curve" smooth="yes"/>
      <point x="144" y="-10"/>
      <point x="82" y="19"/>
      <point x="57" y="48" type="curve"/>
      <point x="57" y="87" type="line"/>
      <point x="78" y="57"/>
      <point x="140" y="20"/>
      <point x="214" y="20" type="curve" smooth="yes"/>
      <point x="328" y="20"/>
      <point x="417" y="107"/>
    </contour>
  </outline>
</glyph>
